<svg width="431" height="707" viewBox="0 0 431 707" fill="none" xmlns="http://www.w3.org/2000/svg">
<g clip-path="url(#clip0_2065_223)">
<rect width="431" height="707" rx="20" fill="#2B2B2B"/>
<path d="M40 295.5C40 198.574 118.574 120 215.5 120C312.426 120 391 198.574 391 295.5V571.172C391 577.152 386.152 582 380.172 582H50.8281C44.8479 582 40 577.152 40 571.172V295.5Z" fill="white"/>
<path d="M122.648 458.64L146.412 458.432L147.504 455.572C148.163 455.641 148.925 455.745 149.792 455.884C150.693 456.023 151.577 456.179 152.444 456.352C153.311 456.525 154.125 456.716 154.888 456.924C155.685 457.097 156.344 457.271 156.864 457.444C157.453 457.652 157.939 457.947 158.32 458.328C158.736 458.709 158.927 459.125 158.892 459.576C158.857 459.957 158.701 460.356 158.424 460.772C158.181 461.153 157.939 461.569 157.696 462.02L156.76 473.772L156.188 486.252C156.119 486.876 155.841 487.431 155.356 487.916C154.871 488.401 154.247 488.817 153.484 489.164C152.756 489.511 151.941 489.771 151.04 489.944C150.139 490.083 149.255 490.152 148.388 490.152C147.071 490.117 146.135 489.875 145.58 489.424C145.025 488.973 144.783 488.384 144.852 487.656C145.025 485.576 145.181 483.496 145.32 481.416C145.493 479.301 145.667 477.169 145.84 475.02L123.272 475.54L115.992 475.904L115.16 472.836L122.752 473.044L145.996 472.576L146.62 460.876L123.168 461.136L116.46 461.396L115.628 458.328L122.648 458.64ZM155.46 493.844C156.292 493.948 157.124 494.225 157.956 494.676C158.823 495.127 159.585 495.647 160.244 496.236C160.903 496.825 161.405 497.432 161.752 498.056C162.133 498.68 162.255 499.2 162.116 499.616L120.308 499.772L113.08 500.084L111.988 496.652L122.908 497.12L152.548 496.964L155.46 493.844ZM167.992 493.74C167.992 492.076 168.304 490.672 168.928 489.528C169.587 488.349 170.488 487.396 171.632 486.668C172.776 485.94 174.111 485.42 175.636 485.108C177.196 484.761 178.877 484.588 180.68 484.588H199.608C201.411 484.588 203.092 484.761 204.652 485.108C206.212 485.42 207.564 485.94 208.708 486.668C209.852 487.396 210.753 488.349 211.412 489.528C212.071 490.672 212.4 492.076 212.4 493.74C212.4 495.369 212.071 496.756 211.412 497.9C210.753 499.044 209.852 499.98 208.708 500.708C207.564 501.471 206.212 502.025 204.652 502.372C203.092 502.719 201.411 502.892 199.608 502.892H180.68C178.877 502.892 177.196 502.719 175.636 502.372C174.111 502.025 172.776 501.471 171.632 500.708C170.488 499.98 169.587 499.044 168.928 497.9C168.304 496.756 167.992 495.369 167.992 493.74ZM191.86 457.08C192.623 457.253 193.368 457.531 194.096 457.912C194.824 458.293 195.448 458.727 195.968 459.212C196.488 459.697 196.887 460.217 197.164 460.772C197.441 461.292 197.511 461.777 197.372 462.228L185.828 462.28C185.447 463.493 185.048 464.637 184.632 465.712C184.216 466.752 183.748 467.775 183.228 468.78C184.372 469.127 185.533 469.525 186.712 469.976C187.925 470.427 189.104 470.912 190.248 471.432C191.392 471.952 192.449 472.507 193.42 473.096C194.425 473.685 195.292 474.292 196.02 474.916C196.436 475.263 196.713 475.731 196.852 476.32C197.025 476.875 197.095 477.464 197.06 478.088C197.06 478.712 196.956 479.319 196.748 479.908C196.575 480.463 196.332 480.913 196.02 481.26C194.876 482.439 193.403 482.855 191.6 482.508C190.976 482.369 190.491 482.144 190.144 481.832C189.832 481.52 189.537 481.121 189.26 480.636C188.151 478.695 187.024 476.996 185.88 475.54C184.771 474.049 183.436 472.593 181.876 471.172C180.836 472.801 179.692 474.292 178.444 475.644C177.231 476.961 175.948 478.175 174.596 479.284C173.244 480.359 171.84 481.364 170.384 482.3C168.928 483.201 167.455 484.068 165.964 484.9C165.687 485.073 165.427 485.108 165.184 485.004C164.976 484.865 164.785 484.692 164.612 484.484C164.335 484.172 164.352 483.86 164.664 483.548C167.264 480.948 169.448 477.949 171.216 474.552C173.019 471.12 174.319 467.029 175.116 462.28H171.528L165.34 462.592L164.716 459.316L173.556 459.732H175.376C175.376 458.657 175.359 457.6 175.324 456.56C175.289 455.485 175.237 454.324 175.168 453.076C176.901 453.076 178.565 453.163 180.16 453.336C181.789 453.509 183.315 453.787 184.736 454.168C185.221 454.307 185.637 454.549 185.984 454.896C186.365 455.208 186.539 455.52 186.504 455.832C186.469 456.213 186.348 456.543 186.14 456.82C185.932 457.097 185.759 457.496 185.62 458.016L185.568 459.732H189.624L191.86 457.08ZM200.96 469.144L197.84 469.196L192.64 469.56L191.808 466.596L197.112 466.7L200.96 466.596V453.804C202.693 453.804 204.392 453.908 206.056 454.116C207.755 454.289 209.436 454.601 211.1 455.052C211.585 455.191 212.001 455.433 212.348 455.78C212.729 456.092 212.903 456.404 212.868 456.716C212.833 457.097 212.712 457.461 212.504 457.808C212.296 458.12 212.123 458.536 211.984 459.056L211.724 468.364L211.88 478.14C211.88 478.972 211.689 479.665 211.308 480.22C210.961 480.775 210.441 481.243 209.748 481.624C209.089 481.971 208.292 482.248 207.356 482.456C206.42 482.629 205.38 482.768 204.236 482.872C202.052 483.08 200.96 482.473 200.96 481.052V469.144ZM192.588 500.24C193.732 500.24 194.841 500.101 195.916 499.824C196.991 499.581 197.927 499.183 198.724 498.628C199.556 498.073 200.215 497.397 200.7 496.6C201.22 495.803 201.48 494.849 201.48 493.74C201.48 492.596 201.22 491.625 200.7 490.828C200.215 489.996 199.556 489.32 198.724 488.8C197.927 488.245 196.991 487.847 195.916 487.604C194.841 487.327 193.732 487.188 192.588 487.188H187.648C186.539 487.188 185.464 487.327 184.424 487.604C183.384 487.847 182.465 488.245 181.668 488.8C180.871 489.32 180.212 489.996 179.692 490.828C179.207 491.625 178.964 492.596 178.964 493.74C178.964 494.849 179.207 495.803 179.692 496.6C180.212 497.397 180.871 498.073 181.668 498.628C182.465 499.183 183.384 499.581 184.424 499.824C185.464 500.101 186.539 500.24 187.648 500.24H192.588ZM244.016 486.044C244.051 484.137 244.085 481.867 244.12 479.232C244.155 476.563 244.155 473.772 244.12 470.86C244.12 467.913 244.085 464.967 244.016 462.02C243.981 459.039 243.929 456.3 243.86 453.804C245.316 453.804 246.737 453.873 248.124 454.012C249.545 454.116 250.828 454.341 251.972 454.688C252.596 454.861 253.029 455.104 253.272 455.416C253.549 455.728 253.671 456.04 253.636 456.352C253.601 456.733 253.497 457.063 253.324 457.34C253.151 457.583 252.995 457.964 252.856 458.484L252.596 468.364H253.688H255.924C255.924 465.625 255.907 462.991 255.872 460.46C255.872 457.929 255.837 455.711 255.768 453.804C257.224 453.804 258.628 453.891 259.98 454.064C261.367 454.237 262.615 454.48 263.724 454.792C264.972 455.139 265.544 455.693 265.44 456.456C265.371 456.837 265.249 457.184 265.076 457.496C264.937 457.773 264.781 458.137 264.608 458.588L264.4 469.664L264.608 484.12C264.643 485.645 264.209 486.651 263.308 487.136C262.441 487.621 261.072 487.881 259.2 487.916C258.091 487.951 257.259 487.829 256.704 487.552C256.149 487.275 255.872 486.772 255.872 486.044C255.872 484.172 255.872 481.971 255.872 479.44C255.907 476.875 255.924 474.188 255.924 471.38H253.792L252.596 471.432L252.856 484.224C252.891 485.541 252.475 486.495 251.608 487.084C250.776 487.639 249.32 487.916 247.24 487.916C245.992 487.916 245.125 487.777 244.64 487.5C244.189 487.188 243.981 486.703 244.016 486.044ZM217.08 456.144C217.635 456.04 218.415 456.005 219.42 456.04C220.425 456.075 221.448 456.161 222.488 456.3C223.528 456.439 224.481 456.647 225.348 456.924C226.215 457.167 226.787 457.479 227.064 457.86H231.432L233.148 455.156C234.569 455.399 235.939 455.676 237.256 455.988C238.573 456.3 239.769 456.664 240.844 457.08C241.191 457.219 241.451 457.409 241.624 457.652C241.797 457.895 241.884 458.155 241.884 458.432C241.884 458.848 241.641 459.299 241.156 459.784L241 468.26L241.208 476.736C241.208 477.949 240.792 478.851 239.96 479.44C239.163 480.029 237.776 480.497 235.8 480.844C234.379 481.087 233.321 481.069 232.628 480.792C231.969 480.48 231.64 480.047 231.64 479.492V478.764H226.856C226.613 479.353 226.145 479.856 225.452 480.272C224.793 480.653 223.875 480.896 222.696 481C221.691 481.104 220.841 481.121 220.148 481.052C219.489 480.983 218.917 480.861 218.432 480.688C218.051 480.549 217.756 480.324 217.548 480.012C217.375 479.7 217.288 479.197 217.288 478.504V467.48L217.08 456.144ZM231.692 498.42H256.496L259.148 495.404C259.98 495.473 260.812 495.716 261.644 496.132C262.476 496.583 263.204 497.085 263.828 497.64C264.452 498.229 264.92 498.819 265.232 499.408C265.579 500.032 265.665 500.552 265.492 500.968H231.64C231.328 501.211 230.895 501.419 230.34 501.592C229.785 501.8 229.179 501.973 228.52 502.112C227.861 502.251 227.168 502.337 226.44 502.372C225.712 502.441 225.019 502.476 224.36 502.476C223.181 502.441 222.28 502.251 221.656 501.904C221.067 501.592 220.772 500.985 220.772 500.084V492.128L220.616 485.472C221.448 485.437 222.332 485.437 223.268 485.472C224.204 485.472 225.123 485.524 226.024 485.628C226.925 485.697 227.775 485.801 228.572 485.94C229.369 486.079 230.063 486.252 230.652 486.46C231.068 486.599 231.432 486.807 231.744 487.084C232.056 487.361 232.247 487.639 232.316 487.916C232.455 488.505 232.247 489.095 231.692 489.684V498.42ZM227.116 460.304V476.32H231.64V460.304H227.116ZM304.44 471.12L302.464 471.172L296.744 471.64L295.808 468.208L300.956 468.26L304.44 468.208V463.216L301.944 463.268L296.224 463.736L295.288 460.304L300.436 460.356L304.44 460.304V453.752C306.173 453.752 307.907 453.856 309.64 454.064C311.408 454.272 313.003 454.584 314.424 455C314.805 455.104 315.169 455.312 315.516 455.624C315.863 455.936 316.019 456.283 315.984 456.664C315.949 457.045 315.811 457.409 315.568 457.756C315.36 458.068 315.187 458.484 315.048 459.004L314.84 471.276L315.1 484.432C315.135 485.229 314.961 485.923 314.58 486.512C314.199 487.101 313.661 487.604 312.968 488.02C312.309 488.401 311.512 488.696 310.576 488.904C309.675 489.112 308.704 489.233 307.664 489.268C306.555 489.337 305.74 489.216 305.22 488.904C304.7 488.557 304.44 488.089 304.44 487.5V471.12ZM269.288 482.924C269.045 483.063 268.82 483.097 268.612 483.028C268.439 482.959 268.231 482.837 267.988 482.664C267.815 482.491 267.711 482.317 267.676 482.144C267.641 481.936 267.676 481.763 267.78 481.624C269.271 479.821 270.571 478.071 271.68 476.372C272.824 474.639 273.829 472.888 274.696 471.12C275.597 469.352 276.377 467.515 277.036 465.608C277.695 463.701 278.284 461.656 278.804 459.472L279.064 454.584C282.149 454.619 284.975 454.983 287.54 455.676C288.58 455.953 289.308 456.317 289.724 456.768C290.14 457.184 290.383 457.583 290.452 457.964C290.521 458.311 290.452 458.675 290.244 459.056C290.036 459.403 289.793 459.801 289.516 460.252C288.476 462.991 287.263 465.469 285.876 467.688C287.02 468.069 288.181 468.555 289.36 469.144C290.573 469.699 291.717 470.305 292.792 470.964C293.901 471.623 294.924 472.316 295.86 473.044C296.796 473.737 297.576 474.431 298.2 475.124C298.547 475.54 298.789 476.025 298.928 476.58C299.101 477.135 299.153 477.707 299.084 478.296C299.049 478.851 298.928 479.405 298.72 479.96C298.512 480.48 298.235 480.913 297.888 481.26C297.299 481.849 296.605 482.248 295.808 482.456C295.011 482.664 294.213 482.681 293.416 482.508C292.792 482.369 292.324 482.144 292.012 481.832C291.7 481.52 291.44 481.104 291.232 480.584C290.435 478.539 289.429 476.649 288.216 474.916C287.003 473.148 285.685 471.536 284.264 470.08C282.392 472.645 280.208 474.968 277.712 477.048C275.251 479.093 272.443 481.052 269.288 482.924ZM283.276 498.42H307.924L310.576 495.404C311.408 495.473 312.24 495.716 313.072 496.132C313.904 496.583 314.632 497.085 315.256 497.64C315.88 498.229 316.348 498.819 316.66 499.408C317.007 500.032 317.093 500.552 316.92 500.968H283.224C282.912 501.211 282.479 501.419 281.924 501.592C281.369 501.8 280.763 501.973 280.104 502.112C279.445 502.251 278.752 502.337 278.024 502.372C277.296 502.441 276.603 502.476 275.944 502.476C274.765 502.441 273.864 502.251 273.24 501.904C272.651 501.592 272.356 500.985 272.356 500.084V491.868L272.2 485.212C273.032 485.177 273.916 485.177 274.852 485.212C275.788 485.212 276.707 485.264 277.608 485.368C278.509 485.437 279.359 485.541 280.156 485.68C280.953 485.819 281.647 485.992 282.236 486.2C282.652 486.339 283.016 486.547 283.328 486.824C283.64 487.101 283.831 487.379 283.9 487.656C284.039 488.245 283.831 488.835 283.276 489.424V498.42Z" fill="#2B2B2B"/>
<path d="M131.259 536.18H116.031V535.064H126.903C127.245 533.336 127.497 531.68 127.695 530.096C125.751 530.258 122.511 530.492 117.993 530.834L117.669 529.574C122.691 529.358 126.075 529.16 127.821 528.98C127.947 527.81 128.037 526.694 128.091 525.596H118.335V524.48H129.405L129.387 525.398C129.333 528.422 128.937 531.644 128.217 535.064H131.259V536.18ZM145.738 538.61H144.496V522.59H145.738V538.61ZM143.074 534.65C140.032 535.028 136.666 535.244 133.012 535.262V528.962H139.384V525.74H133.012V524.624H140.68V530.024H134.308V534.128C137.17 534.11 140.05 533.93 142.948 533.588L143.074 534.65ZM162.863 530.06L162.017 531.14C160.811 530.924 159.623 530.42 158.471 529.61C157.229 528.764 156.347 527.792 155.861 526.712C155.519 527.594 154.853 528.422 153.845 529.232C152.729 530.132 151.415 530.78 149.921 531.194L149.021 530.132C150.569 529.862 151.919 529.268 153.089 528.332C154.583 527.126 155.321 525.632 155.321 523.814L156.671 523.94C156.653 524.156 156.599 524.498 156.509 524.948C156.761 526.334 157.571 527.54 158.939 528.53C160.163 529.412 161.477 529.916 162.863 530.06ZM163.655 536.36H148.463V535.244H163.655V536.36ZM177.936 534.866H176.694V529.304H173.688V528.188H176.694V522.536H177.936V534.866ZM172.05 524.156H168.18V523.04H172.05V524.156ZM174.588 531.752L173.742 532.76C172.896 532.238 172.068 531.5 171.276 530.546C170.556 529.7 170.124 529.016 169.998 528.512C169.782 529.178 169.314 529.898 168.576 530.69C167.73 531.59 166.758 532.31 165.66 532.832L164.778 531.878C165.93 531.5 166.956 530.834 167.838 529.862C168.828 528.8 169.35 527.648 169.404 526.406H165.462V525.29H174.282V526.406H170.754L170.7 526.856C170.718 527.63 171.096 528.512 171.87 529.52C172.68 530.582 173.58 531.338 174.588 531.752ZM178.242 538.322H167.298V533.462H168.54V537.206H178.242V538.322ZM199.062 532.616H197.82V528.89H195.066V527.774H197.82V522.59H199.062V532.616ZM193.05 523.994H189.126V522.878H193.05V523.994ZM195.912 530.78L195.138 531.77C194.22 531.464 193.32 530.87 192.42 530.024C191.664 529.304 191.232 528.746 191.124 528.35C190.89 528.872 190.404 529.502 189.666 530.204C188.766 531.086 187.794 531.734 186.732 532.184L185.868 531.212C187.11 530.78 188.208 530.078 189.144 529.106C190.08 528.134 190.548 527.162 190.566 526.208H186.588V525.092H195.444V526.208H191.844L191.79 526.766C191.898 527.558 192.312 528.332 193.05 529.07C193.824 529.844 194.778 530.42 195.912 530.78ZM199.242 535.946C199.242 537.044 198.648 537.782 197.442 538.178C196.65 538.448 195.426 538.574 193.752 538.574C192.078 538.574 190.854 538.448 190.044 538.178C188.802 537.782 188.19 537.044 188.19 535.946C188.19 534.092 190.044 533.174 193.752 533.174C197.406 533.174 199.242 534.092 199.242 535.946ZM198.072 535.946C198.072 535.28 197.586 534.794 196.632 534.506C195.912 534.29 194.958 534.2 193.752 534.218C192.366 534.236 191.376 534.344 190.782 534.506C189.882 534.758 189.432 535.244 189.432 535.946C189.432 536.972 190.872 537.494 193.752 537.494C196.614 537.494 198.054 536.972 198.072 535.946ZM215.341 534.938H214.099V529.304H209.815V528.242H214.099V526.172H209.815V525.11H214.099V522.59H215.341V534.938ZM210.139 531.716C207.601 532.058 205.171 532.238 202.849 532.292V523.832H204.073V531.158C206.323 531.032 208.285 530.834 209.941 530.564L210.139 531.716ZM215.737 538.286H204.595V533.516H205.819V537.17H215.737V538.286ZM231.872 527.486H220.226V523.076H231.566V524.102H221.45V526.46H231.872V527.486ZM233.51 530.258H218.3V529.232L233.51 529.25V530.258ZM231.746 538.34H220.172V534.578H230.216V532.922H220.172V531.932H231.458V535.514H221.396V537.35H231.746V538.34ZM248.079 538.61H246.855V522.626H248.079V538.61ZM244.317 527.684C244.317 528.71 243.939 529.574 243.201 530.312C242.391 531.086 241.365 531.482 240.087 531.482C237.477 531.482 235.875 529.97 235.875 527.468C235.875 526.406 236.271 525.506 237.063 524.768C237.873 524.03 238.881 523.67 240.087 523.67C241.365 523.67 242.391 524.048 243.183 524.804C243.939 525.542 244.317 526.514 244.317 527.684ZM246.027 534.362C244.425 534.578 242.499 534.758 240.249 534.902C239.349 534.956 237.549 535.028 234.849 535.118L234.615 533.912C236.001 533.966 237.909 533.912 240.303 533.768C242.877 533.606 244.749 533.462 245.901 533.3L246.027 534.362ZM243.201 527.54C243.201 526.73 242.895 526.064 242.301 525.542C241.707 525.02 240.951 524.75 240.069 524.75C239.133 524.75 238.395 525.02 237.855 525.56C237.333 526.1 237.063 526.766 237.063 527.54C237.063 528.458 237.351 529.16 237.945 529.682C238.485 530.168 239.187 530.402 240.051 530.402C241.005 530.402 241.761 530.114 242.337 529.556C242.913 528.998 243.201 528.314 243.201 527.54ZM269.547 534.758H268.305V522.626H269.547V534.758ZM266.289 530.654L265.425 531.608C264.525 531.05 263.679 530.276 262.887 529.286C262.149 528.368 261.663 527.522 261.429 526.748C260.547 528.764 259.053 530.492 256.983 531.95L255.993 531.122C257.487 530.204 258.675 529.052 259.557 527.666C260.439 526.28 260.925 524.804 260.997 523.256L262.329 523.508C262.275 523.778 262.203 524.264 262.149 524.93C262.131 525.74 262.545 526.748 263.373 527.954C264.255 529.232 265.227 530.132 266.289 530.654ZM269.979 538.268H258.855V532.976H260.079V537.152H269.979V538.268ZM287.824 529.016H285.574V532.22H284.35V522.626H285.574V527.918H287.824V529.016ZM281.29 527.18C281.29 528.134 280.93 528.944 280.192 529.646C279.418 530.402 278.428 530.78 277.222 530.78C275.998 530.78 274.99 530.402 274.216 529.646C273.478 528.944 273.118 528.134 273.118 527.18C273.118 526.226 273.478 525.416 274.216 524.714C274.99 523.958 275.998 523.58 277.204 523.58C278.41 523.58 279.4 523.958 280.192 524.714C280.93 525.416 281.29 526.226 281.29 527.18ZM285.808 535.406C285.808 536.432 285.196 537.188 283.954 537.674C282.964 538.052 281.65 538.25 279.994 538.25C278.392 538.25 277.096 538.07 276.124 537.692C274.918 537.242 274.324 536.522 274.324 535.55C274.324 534.488 274.918 533.714 276.124 533.21C277.096 532.796 278.392 532.598 280.012 532.598C281.632 532.598 282.946 532.796 283.972 533.192C285.196 533.678 285.808 534.416 285.808 535.406ZM280.066 527.198C280.066 526.478 279.796 525.884 279.256 525.416C278.716 524.93 278.032 524.696 277.204 524.696C276.376 524.696 275.692 524.93 275.134 525.416C274.594 525.884 274.324 526.478 274.324 527.18C274.324 527.882 274.594 528.476 275.152 528.962C275.71 529.448 276.394 529.682 277.222 529.682C278.032 529.682 278.716 529.448 279.256 528.962C279.796 528.476 280.066 527.9 280.066 527.198ZM284.512 535.478C284.512 534.848 284.026 534.362 283.072 534.056C282.28 533.804 281.254 533.678 280.012 533.678C277.078 533.678 275.602 534.29 275.602 535.532C275.602 536.594 277.078 537.134 280.03 537.134C283.018 537.134 284.512 536.576 284.512 535.478ZM303.622 523.868V532.094C303.622 534.83 302.254 536.99 298.78 536.99C295.324 536.99 293.938 534.848 293.938 532.094V523.868H295.126V531.824C295.126 534.812 296.494 535.946 298.78 535.946C301.084 535.946 302.434 534.812 302.434 531.824V523.868H303.622ZM313.955 527.54C313.955 525.776 312.821 524.912 311.183 524.912H307.151V530.168H311.183C312.821 530.168 313.955 529.304 313.955 527.54ZM315.143 527.54C315.143 529.844 313.685 531.212 311.435 531.212H307.151V536.72H305.963V523.868H311.435C313.667 523.868 315.143 525.236 315.143 527.54ZM319.685 535.784V537.404H318.173V535.784H319.685ZM319.613 523.688V529.214L319.271 534.2H318.587L318.245 529.214V523.688H319.613Z" fill="#2B2B2B"/>
<path d="M239.987 382.524V387.3H222.77V382.524H217.185V372.183H217.628C220.825 372.183 223.425 369.583 223.425 366.387C223.425 363.19 220.825 360.59 217.628 360.59H217.185V233.952C233.208 234.241 245.688 223.168 245.688 212.056C245.688 183.786 227.277 182.63 211.619 182.63C195.962 182.63 178.495 186.944 178.495 212.557C178.495 224.381 192.072 234.241 206.054 233.971V360.609H205.611C202.414 360.609 199.814 363.209 199.814 366.406C199.814 369.603 202.414 372.202 205.611 372.202H206.054V418.363C206.054 421.444 208.557 423.948 211.639 423.948C214.72 423.948 217.224 421.444 217.224 418.363V412.874H222.809V408.099H240.026V412.874H251.196V382.544H240.026L239.987 382.524ZM193.054 209.61C193.054 204.257 197.387 199.924 202.741 199.924C206.728 199.924 210.156 202.35 211.639 205.797C213.122 202.35 216.55 199.924 220.536 199.924C225.871 199.924 230.223 204.257 230.223 209.61C230.223 214.964 225.89 219.297 220.536 219.297C216.55 219.297 213.122 216.87 211.639 213.423C210.156 216.87 206.728 219.297 202.741 219.297C197.387 219.297 193.054 214.964 193.054 209.61Z" fill="#2B2B2B"/>
<rect x="40" y="607" width="351" height="61" rx="30.5" fill="white"/>
<circle cx="110" cy="637.5" r="5" fill="#2B2B2B"/>
<path d="M146.264 638.808H151.576L148.92 630.776L146.264 638.808ZM152.728 642.296H145.112L143.096 648.344H139.064L147.128 625.368H150.712L158.776 648.344H154.744L152.728 642.296ZM174.684 641.496C174.684 639.256 173.212 638.136 170.14 638.136H164.764V644.856H170.14C172.988 644.856 174.684 643.896 174.684 641.496ZM173.852 631.736C173.852 629.88 172.732 628.856 170.14 628.856H164.764V634.616H170.14C172.86 634.616 173.852 633.592 173.852 631.736ZM178.428 641.848C178.428 646.296 175.612 648.344 170.14 648.344H161.02V625.368H170.14C174.588 625.368 177.596 626.936 177.596 631.32C177.596 633.592 176.796 635.256 174.972 636.344C177.052 637.112 178.428 638.776 178.428 641.848ZM197.547 636.856C197.547 631.576 195.083 628.344 191.019 628.344C186.955 628.344 184.491 631.576 184.491 636.856C184.491 642.136 186.955 645.368 191.019 645.368C195.083 645.368 197.547 642.136 197.547 636.856ZM201.323 636.856C201.323 644.536 196.779 648.824 191.019 648.824C185.259 648.824 180.715 644.536 180.715 636.856C180.715 629.176 185.259 624.888 191.019 624.888C196.779 624.888 201.323 629.176 201.323 636.856ZM221.955 625.368V639.608C221.955 645.368 219.363 648.824 213.283 648.824C207.203 648.824 204.611 645.368 204.611 639.608V625.368H208.355V639.256C208.355 643.864 210.403 645.368 213.283 645.368C216.163 645.368 218.211 643.864 218.211 639.256V625.368H221.955ZM241.061 625.368V628.856H234.405V648.344H230.661V628.856H224.005V625.368H241.061ZM269.611 625.368V639.608C269.611 645.368 267.019 648.824 260.939 648.824C254.859 648.824 252.267 645.368 252.267 639.608V625.368H256.011V639.256C256.011 643.864 258.059 645.368 260.939 645.368C263.819 645.368 265.867 643.864 265.867 639.256V625.368H269.611ZM289.933 642.328C289.933 646.232 286.989 648.824 281.453 648.824C276.685 648.824 272.621 646.552 272.621 640.696H276.397C276.397 644.216 278.669 645.432 281.869 645.432C284.397 645.432 286.157 644.44 286.157 642.424C286.157 640.792 285.229 639.608 282.477 638.744L278.669 637.56C276.333 636.824 273.325 635.384 273.325 631.32C273.325 627.608 276.173 624.888 280.973 624.888C285.645 624.888 289.197 627.544 289.197 632.12H285.421C285.421 629.4 283.629 628.248 281.005 628.248C278.541 628.248 277.101 629.368 277.101 631.288C277.101 632.888 277.901 633.56 279.565 634.104L283.853 635.48C288.077 636.824 289.933 638.552 289.933 642.328Z" fill="#2B2B2B"/>
<circle cx="321" cy="637.5" r="5" fill="#2B2B2B"/>
<path d="M135.586 53.256H140.91L132.55 84.848H127.402L121.594 61.88L115.786 84.848H110.594L102.322 53.256H107.602L113.19 76.224L118.822 53.256H124.366L129.954 76.224L135.586 53.256ZM164.885 80.052V84.848H143.897V53.256H164.577V58.052H149.045V66.06H163.521V70.856H149.045V80.052H164.885ZM189.606 80.052V84.848H169.806V53.256H174.954V80.052H189.606ZM213.642 73.056H218.79C217.954 81.064 213.07 85.508 205.898 85.508C196.834 85.508 191.774 78.996 191.774 69.052C191.774 59.152 197.23 52.596 205.898 52.596C212.498 52.596 217.514 56.292 218.35 62.936H213.246C212.586 58.976 210.034 57.304 205.898 57.304C199.65 57.304 196.922 62.364 196.922 69.052C196.922 76.092 199.474 80.8 205.898 80.8C210.474 80.8 212.938 78.248 213.642 73.056ZM244.998 69.052C244.998 61.792 241.61 57.348 236.022 57.348C230.434 57.348 227.046 61.792 227.046 69.052C227.046 76.312 230.434 80.756 236.022 80.756C241.61 80.756 244.998 76.312 244.998 69.052ZM250.19 69.052C250.19 79.612 243.942 85.508 236.022 85.508C228.102 85.508 221.854 79.612 221.854 69.052C221.854 58.492 228.102 52.596 236.022 52.596C243.942 52.596 250.19 58.492 250.19 69.052ZM284.543 53.256V84.848H279.483V62.408L271.871 84.848H267.471L259.859 62.364V84.848H254.799V53.256H261.443L269.671 77.456L277.899 53.256H284.543ZM311.366 80.052V84.848H290.378V53.256H311.058V58.052H295.526V66.06H310.002V70.856H295.526V80.052H311.366ZM324.207 80.712V86.564H318.311V80.712H324.207ZM324.031 52.772V65.312L323.019 78.292H319.587L318.487 65.312V52.772H324.031Z" fill="white"/>
</g>
<g clip-path="url(#clip1_2065_223)">
<rect width="431" height="707" rx="20" transform="matrix(-1 0 0 1 431 0)" fill="#2B2B2B"/>
<path d="M391 295.5C391 198.574 312.426 120 215.5 120C118.574 120 40 198.574 40 295.5V571.172C40 577.152 44.8479 582 50.8281 582H380.172C386.152 582 391 577.152 391 571.172V295.5Z" fill="white"/>
<rect width="351" height="61" rx="30.5" transform="matrix(-1 0 0 1 391 607)" fill="white"/>
<circle cx="5" cy="5" r="5" transform="matrix(-1 0 0 1 326 632.5)" fill="#2B2B2B"/>
<path d="M284.736 638.808H279.424L282.08 630.776L284.736 638.808ZM278.272 642.296H285.888L287.904 648.344H291.936L283.872 625.368H280.288L272.224 648.344H276.256L278.272 642.296ZM256.316 641.496C256.316 639.256 257.788 638.136 260.86 638.136H266.236V644.856H260.86C258.012 644.856 256.316 643.896 256.316 641.496ZM257.148 631.736C257.148 629.88 258.268 628.856 260.86 628.856H266.236V634.616H260.86C258.14 634.616 257.148 633.592 257.148 631.736ZM252.572 641.848C252.572 646.296 255.388 648.344 260.86 648.344H269.98V625.368H260.86C256.412 625.368 253.404 626.936 253.404 631.32C253.404 633.592 254.204 635.256 256.028 636.344C253.948 637.112 252.572 638.776 252.572 641.848ZM233.453 636.856C233.453 631.576 235.917 628.344 239.981 628.344C244.045 628.344 246.509 631.576 246.509 636.856C246.509 642.136 244.045 645.368 239.981 645.368C235.917 645.368 233.453 642.136 233.453 636.856ZM229.677 636.856C229.677 644.536 234.221 648.824 239.981 648.824C245.741 648.824 250.285 644.536 250.285 636.856C250.285 629.176 245.741 624.888 239.981 624.888C234.221 624.888 229.677 629.176 229.677 636.856ZM209.045 625.368V639.608C209.045 645.368 211.637 648.824 217.717 648.824C223.797 648.824 226.389 645.368 226.389 639.608V625.368H222.645V639.256C222.645 643.864 220.597 645.368 217.717 645.368C214.837 645.368 212.789 643.864 212.789 639.256V625.368H209.045ZM189.939 625.368V628.856H196.595V648.344H200.339V628.856H206.995V625.368H189.939ZM161.389 625.368V639.608C161.389 645.368 163.981 648.824 170.061 648.824C176.141 648.824 178.733 645.368 178.733 639.608V625.368H174.989V639.256C174.989 643.864 172.941 645.368 170.061 645.368C167.181 645.368 165.133 643.864 165.133 639.256V625.368H161.389ZM141.067 642.328C141.067 646.232 144.011 648.824 149.547 648.824C154.315 648.824 158.379 646.552 158.379 640.696H154.603C154.603 644.216 152.331 645.432 149.131 645.432C146.603 645.432 144.843 644.44 144.843 642.424C144.843 640.792 145.771 639.608 148.523 638.744L152.331 637.56C154.667 636.824 157.675 635.384 157.675 631.32C157.675 627.608 154.827 624.888 150.027 624.888C145.355 624.888 141.803 627.544 141.803 632.12H145.579C145.579 629.4 147.371 628.248 149.995 628.248C152.459 628.248 153.899 629.368 153.899 631.288C153.899 632.888 153.099 633.56 151.435 634.104L147.147 635.48C142.923 636.824 141.067 638.552 141.067 642.328Z" fill="#2B2B2B"/>
<circle cx="5" cy="5" r="5" transform="matrix(-1 0 0 1 115 632.5)" fill="#2B2B2B"/>
<path d="M98.7014 240.6H96.7174V225.24H98.7014V240.6ZM89.9494 237.992C87.4534 237.992 85.7254 236.056 85.7254 232.424C85.7254 228.792 87.4534 226.856 89.9494 226.856C92.4454 226.856 94.1734 228.792 94.1734 232.424C94.1734 236.056 92.4454 237.992 89.9494 237.992ZM89.9494 236.12C91.3574 236.12 92.1574 234.84 92.1574 232.424C92.1574 230.008 91.3574 228.728 89.9494 228.728C88.5414 228.728 87.7414 230.008 87.7414 232.424C87.7414 234.84 88.5414 236.12 89.9494 236.12ZM112.621 231.304L110.637 231.192C110.877 229.976 110.973 228.76 111.021 227.576H102.525V225.88H113.005C112.989 227.896 112.861 229.64 112.621 231.304ZM108.061 228.984V232.424H115.469V234.104H100.269V232.424H106.077V228.984H108.061ZM107.469 234.84L109.517 235.144C109.309 235.704 109.037 236.232 108.701 236.728L114.221 239.096L113.277 240.6L107.517 238.072C106.173 239.272 104.381 240.152 102.301 240.68L101.341 239.032C104.477 238.28 106.749 236.84 107.469 234.84ZM123.229 231.896C119.885 231.896 117.853 230.744 117.853 228.776C117.853 226.824 119.885 225.64 123.229 225.64C126.589 225.64 128.605 226.824 128.605 228.776C128.605 230.744 126.589 231.896 123.229 231.896ZM123.229 230.296C124.589 230.296 125.581 230.056 126.141 229.624C126.381 229.416 126.509 229.112 126.509 228.776C126.509 228.424 126.397 228.136 126.141 227.928C125.565 227.496 124.589 227.256 123.229 227.256C121.869 227.256 120.877 227.496 120.317 227.928C120.061 228.136 119.949 228.424 119.949 228.776C119.949 229.112 120.077 229.416 120.317 229.624C120.877 230.056 121.869 230.296 123.229 230.296ZM130.829 234.664H115.629V232.968H130.829V234.664ZM128.717 240.408H118.269V235.64H120.253V238.696H128.717V240.408ZM147.546 225.24V228.984H149.946V230.712H147.546V233.144H145.61V225.24H147.546ZM135.434 226.392H142.778V232.664H135.434V226.392ZM137.274 231.192H140.97V227.896H137.274V231.192ZM147.546 237.88H139.434V239.128H148.138V240.616H137.434V236.504H145.546V235.336H137.098V233.88H147.546V237.88ZM157.242 232.008L156.026 230.632C158.074 229.4 159.162 227.816 159.498 225.448L161.37 225.608C161.258 226.328 161.066 227 160.842 227.624L164.266 230.232L163.258 231.624L160.074 229.16C159.37 230.28 158.426 231.208 157.242 232.008ZM155.994 230.264L154.522 229.08C153.738 230.248 152.682 231.224 151.466 231.96L150.314 230.488C152.298 229.368 153.722 227.688 154.042 225.512L155.882 225.688C155.786 226.328 155.61 226.952 155.354 227.544L157.146 228.888L155.994 230.264ZM149.866 234.024V232.376H165.066V234.024H149.866ZM162.506 240.488H152.426V235.272H162.506V240.488ZM160.554 236.76H154.362V238.92H160.554V236.76ZM172.826 230.648C169.482 230.648 167.466 229.768 167.466 228.04C167.466 226.344 169.482 225.432 172.826 225.432C176.186 225.432 178.186 226.344 178.186 228.04C178.186 229.768 176.186 230.648 172.826 230.648ZM172.826 229.144C174.186 229.144 175.194 228.968 175.754 228.68C175.994 228.52 176.106 228.296 176.106 228.04C176.106 227.784 176.01 227.576 175.754 227.416C175.178 227.128 174.186 226.952 172.826 226.952C171.466 226.952 170.458 227.128 169.898 227.416C169.642 227.576 169.546 227.784 169.546 228.04C169.546 228.296 169.658 228.52 169.898 228.68C170.458 228.968 171.466 229.144 172.826 229.144ZM180.426 233.096H165.226V231.48H180.426V233.096ZM178.746 240.568H167.77V236.648H175.866V235.592H167.514V234.168H177.866V237.976H169.754V239.096H178.746V240.568ZM197.142 231.56H199.542V233.432H197.142V240.6H195.254V236.904C193.526 237.336 191.894 237.528 189.27 237.592V227.128H193.894V228.92H191.142V235.8C192.39 235.752 193.638 235.624 195.254 235.256V225.24H197.142V231.56ZM186.614 228.92V235.784C186.982 235.752 187.814 235.672 188.662 235.512L188.774 237.24C187.67 237.432 186.534 237.544 184.742 237.576V227.128H188.566V228.92H186.614ZM212.502 231.608H214.902V233.496H212.502V240.6H210.566V236.776C208.278 237.464 205.11 237.88 200.502 237.88V231.56H206.038V229.032H200.31V227.256H207.878V233.192H202.422V236.104C205.254 236.104 208.166 235.752 210.566 235.096V225.24H212.502V231.608ZM231.378 225.24V229.096H233.778V230.84H231.378V233.144H229.442V225.24H231.378ZM227.074 232.824L223.058 230.392C222.178 231.752 221.01 232.888 219.602 233.784L218.306 232.296C220.754 230.856 222.354 228.696 222.642 225.832L224.642 225.976C224.498 227.016 224.242 227.96 223.874 228.84L228.002 231.336L227.074 232.824ZM231.378 237.88H223.266V239.128H231.97V240.616H221.266V236.504H229.378V235.336H220.93V233.88H231.378V237.88ZM246.738 231.608H249.138V233.496H246.738V240.6H244.802V225.24H246.738V231.608ZM238.482 226.856C240.898 226.856 242.562 228.776 242.562 232.424C242.562 236.072 240.898 237.992 238.482 237.992C236.05 237.992 234.37 236.072 234.37 232.424C234.37 228.776 236.05 226.856 238.482 226.856ZM238.482 236.12C239.81 236.12 240.594 234.84 240.594 232.424C240.594 230.008 239.81 228.728 238.482 228.728C237.138 228.728 236.354 230.008 236.354 232.424C236.354 234.84 237.138 236.12 238.482 236.12ZM262.098 231.72H264.498V233.608H262.098V240.6H260.162V225.24H262.098V231.72ZM255.65 229.288H250.098V227.464H257.922C257.458 232.648 254.498 236.36 250.562 238.36L249.234 236.696C252.962 234.936 255.042 232.088 255.65 229.352V229.288ZM276.658 235.144L274.674 235.016C275.074 232.872 275.234 230.744 275.298 228.648H266.434V226.856H277.33C277.282 229.88 277.058 232.6 276.658 235.144ZM272.066 231.512V237.128H279.618V238.968H264.418V237.128H270.082V231.512H272.066ZM292.818 231.72H295.218V233.608H292.818V240.6H290.882V225.24H292.818V231.72ZM280.77 227.368H288.434C288.178 229.464 287.458 231.352 286.402 233L289.778 236.36L288.578 237.832L285.346 234.456C284.13 235.928 282.658 237.144 281.074 238.104L279.858 236.504C283.026 234.744 285.378 231.944 286.098 229.208V229.16H280.77V227.368ZM311.694 231.608H314.094V233.496H311.694V240.6H309.758V225.24H311.694V231.608ZM300.59 226.296H306.782V227.896H300.59V226.296ZM308.286 231.128H298.798V229.416H308.286V231.128ZM303.678 232.216C305.886 232.216 307.342 233.512 307.342 235.352C307.342 237.192 305.886 238.504 303.678 238.504C301.47 238.504 299.998 237.192 299.998 235.352C299.998 233.512 301.47 232.216 303.678 232.216ZM303.678 236.888C304.862 236.888 305.518 236.28 305.518 235.336C305.518 234.392 304.862 233.784 303.678 233.784C302.494 233.784 301.838 234.392 301.838 235.336C301.838 236.28 302.494 236.888 303.678 236.888ZM326.926 231.4H316.638V225.736H318.622V229.704H326.926V231.4ZM329.214 234.632H314.014V232.936H329.214V234.632ZM327.054 240.424H316.718V235.736H318.702V238.696H327.054V240.424ZM62.5524 261.16L62.4244 259.384L71.5444 259.048C71.6084 258.232 71.6404 257.416 71.6404 256.616H62.8564V254.856H73.6564C73.6084 258.312 73.3684 261.352 72.9364 263.816L70.9364 263.704C71.1444 262.728 71.2884 261.704 71.4004 260.68L62.5524 261.16ZM60.7444 266.968V265.128H75.9444V266.968H60.7444ZM87.9124 262.984V253.24H89.8964V268.6H87.9124V264.632C85.4804 265.4 82.1524 265.832 77.3044 265.832V259.528H83.1124V257.016H77.1124V255.256H84.9684V261.176H79.2404V264.072C82.2324 264.072 85.3684 263.688 87.9124 262.984ZM104.808 262.76L98.7764 258.6C97.2564 260.456 95.2244 261.896 93.1284 262.904L92.0084 261.192C95.1604 259.8 97.8324 257.496 98.8564 254.392L100.84 254.824C100.584 255.624 100.248 256.376 99.8324 257.096L105.944 261.144L104.808 262.76ZM91.4644 266.968V265.128H106.664V266.968H91.4644ZM120.616 264.744H118.632V260.088H115.48V258.36H118.632V253.24H120.616V264.744ZM108.84 253.896H114.568V255.416H108.84V253.896ZM116.456 261.976L115.528 263.32L112.264 261.432C111.016 262.424 109.544 263.176 108.008 263.688L107.096 262.168C109.928 261.288 111.944 259.912 112.968 258.296V258.248H107.832V256.664H115.352C115.064 258.04 114.408 259.24 113.496 260.264L116.456 261.976ZM112.504 263.704V266.696H121.192V268.424H110.52V263.704H112.504ZM139.493 262.68H137.509V259.368H134.357V257.688H137.509V253.24H139.493V262.68ZM127.717 253.64H133.445V255.144H127.717V253.64ZM135.333 261.112L134.485 262.44L131.141 260.808C129.893 261.72 128.389 262.424 126.837 262.888L125.973 261.4C128.837 260.584 130.789 259.368 131.845 257.896V257.848H126.709V256.296H134.229C133.957 257.592 133.317 258.712 132.437 259.656L135.333 261.112ZM134.261 262.904C137.589 262.904 139.557 263.976 139.557 265.816C139.557 267.704 137.589 268.728 134.261 268.728C130.933 268.728 128.965 267.704 128.965 265.816C128.965 263.976 130.933 262.904 134.261 262.904ZM137.077 266.616C137.365 266.408 137.493 266.12 137.493 265.8C137.493 265.48 137.365 265.176 137.077 264.984C136.517 264.664 135.605 264.472 134.261 264.472C132.917 264.472 131.989 264.664 131.445 264.984C131.157 265.176 131.029 265.48 131.029 265.8C131.029 266.12 131.157 266.408 131.445 266.616C131.989 266.92 132.917 267.128 134.261 267.128C135.605 267.128 136.517 266.92 137.077 266.616ZM154.853 264.744H152.869V259.976H147.941V258.44H152.869V257.08H147.941V255.528H152.869V253.24H154.853V264.744ZM150.485 260.312L150.661 262.008C148.405 262.456 145.477 262.648 142.389 262.648V254.792H144.357V260.888C145.765 260.888 148.325 260.728 150.485 260.312ZM146.741 263.512V266.68H155.429V268.424H144.757V263.512H146.741ZM169.445 258.44H159.061V253.72H169.157V255.256H161.029V256.952H169.445V258.44ZM171.621 261.096H156.421V259.48H171.621V261.096ZM169.941 268.568H158.965V264.648H167.061V263.592H158.709V262.168H169.061V265.976H160.949V267.096H169.941V268.568ZM179.381 258.648C176.037 258.648 174.021 257.768 174.021 256.04C174.021 254.344 176.037 253.432 179.381 253.432C182.741 253.432 184.741 254.344 184.741 256.04C184.741 257.768 182.741 258.648 179.381 258.648ZM179.381 257.144C180.741 257.144 181.749 256.968 182.309 256.68C182.549 256.52 182.661 256.296 182.661 256.04C182.661 255.784 182.565 255.576 182.309 255.416C181.733 255.128 180.741 254.952 179.381 254.952C178.021 254.952 177.013 255.128 176.453 255.416C176.197 255.576 176.101 255.784 176.101 256.04C176.101 256.296 176.213 256.52 176.453 256.68C177.013 256.968 178.021 257.144 179.381 257.144ZM186.981 261.096H171.781V259.48H186.981V261.096ZM185.301 268.568H174.325V264.648H182.421V263.592H174.069V262.168H184.421V265.976H176.309V267.096H185.301V268.568ZM202.513 268.6V253.24H204.449V268.6H202.513ZM196.193 261.096C193.809 261.096 192.097 259.864 192.097 257.672C192.097 255.512 193.809 254.264 196.193 254.264C198.561 254.264 200.273 255.512 200.273 257.672C200.273 259.864 198.561 261.096 196.193 261.096ZM196.209 255.832C194.881 255.832 194.001 256.472 194.001 257.672C194.001 258.888 194.881 259.528 196.209 259.528C197.505 259.528 198.385 258.888 198.385 257.672C198.385 256.472 197.505 255.832 196.209 255.832ZM201.681 261.544L201.889 263.224C200.481 263.528 198.961 263.752 197.281 263.912V268.536H195.329V264.056C193.969 264.136 192.513 264.168 190.929 264.168L190.721 262.376C195.329 262.376 198.689 262.184 201.681 261.544ZM219.057 253.24V259.032H221.457V260.808H219.057V264.744H217.121V253.24H219.057ZM207.937 253.784H214.097V255.24H207.937V253.784ZM206.161 256.392H215.601V257.96H206.161V256.392ZM214.657 261.304C214.657 262.824 213.217 263.816 211.009 263.816C208.801 263.816 207.361 262.824 207.361 261.304C207.361 259.784 208.801 258.792 211.009 258.792C213.217 258.792 214.657 259.784 214.657 261.304ZM209.137 261.288C209.137 261.976 209.809 262.424 211.009 262.424C212.225 262.424 212.897 261.976 212.897 261.288C212.897 260.6 212.225 260.152 211.009 260.152C209.809 260.152 209.137 260.6 209.137 261.288ZM209.121 264.376H211.089V266.712H219.633V268.424H209.121V264.376ZM238.173 260.104H227.341V253.752H237.725V255.192H229.277V256.232H237.437V257.608H229.277V258.664H238.173V260.104ZM240.093 262.888H224.893V261.288H240.093V262.888ZM237.581 268.68H235.597V265.768H227.005V264.168H237.581V268.68ZM252.061 259.784H248.941V261.016H241.437V254.136H243.245V256.216H247.149V254.136H248.941V255.336H252.061V253.24H254.045V261.304H252.061V259.784ZM252.061 258.28V256.84H248.941V258.28H252.061ZM243.245 259.512H247.149V257.672H243.245V259.512ZM245.837 265.944V267.144H254.637V268.616H243.853V264.6H252.045V263.48H243.517V262.04H254.045V265.944H245.837ZM268.653 253.24V259.032H271.053V260.808H268.653V264.744H266.717V253.24H268.653ZM257.533 253.784H263.693V255.24H257.533V253.784ZM255.757 256.392H265.197V257.96H255.757V256.392ZM264.253 261.304C264.253 262.824 262.813 263.816 260.605 263.816C258.397 263.816 256.957 262.824 256.957 261.304C256.957 259.784 258.397 258.792 260.605 258.792C262.813 258.792 264.253 259.784 264.253 261.304ZM258.733 261.288C258.733 261.976 259.405 262.424 260.605 262.424C261.821 262.424 262.493 261.976 262.493 261.288C262.493 260.6 261.821 260.152 260.605 260.152C259.405 260.152 258.733 260.6 258.733 261.288ZM258.717 264.376H260.685V266.712H269.229V268.424H258.717V264.376ZM286.841 259.128L284.857 259.016C285.097 257.848 285.193 256.712 285.241 255.56H276.745V253.88H287.225C287.209 255.832 287.081 257.528 286.841 259.128ZM282.281 256.76V259.944H289.689V261.608H274.489V259.944H280.297V256.76H282.281ZM282.089 262.728C285.449 262.728 287.417 263.848 287.417 265.72C287.417 267.64 285.449 268.712 282.089 268.712C278.729 268.712 276.761 267.64 276.761 265.72C276.761 263.848 278.729 262.728 282.089 262.728ZM284.921 266.568C285.209 266.36 285.337 266.056 285.337 265.704C285.337 265.352 285.209 265.048 284.921 264.84C284.377 264.488 283.449 264.28 282.089 264.28C280.729 264.28 279.801 264.488 279.257 264.84C278.969 265.048 278.841 265.352 278.841 265.704C278.841 266.056 278.969 266.36 279.257 266.568C279.801 266.92 280.729 267.128 282.089 267.128C283.449 267.128 284.377 266.92 284.921 266.568ZM302.889 253.24V258.232H305.289V260.008H302.889V264.744H300.953V253.24H302.889ZM290.873 254.856H298.601C298.169 259.144 294.953 261.992 291.065 263.288L290.025 261.64C293.529 260.568 295.593 258.552 296.281 256.6V256.552H290.873V254.856ZM292.953 263.24H294.937V266.664H303.465V268.424H292.953V263.24ZM319.001 261.288H317.017V253.24H319.001V261.288ZM310.105 261.288C307.721 261.288 306.025 260.056 306.025 257.72C306.025 255.384 307.721 254.152 310.105 254.152C312.473 254.152 314.185 255.384 314.185 257.72C314.185 260.056 312.473 261.288 310.105 261.288ZM310.105 259.72C311.401 259.72 312.281 259.08 312.281 257.704C312.281 256.36 311.401 255.72 310.105 255.72C308.809 255.72 307.929 256.36 307.929 257.72C307.929 259.08 308.809 259.72 310.105 259.72ZM319.001 268.536H308.825V262.072H310.793V263.736H317.033V262.072H319.001V268.536ZM310.777 265.272V266.888H317.049V265.272H310.777ZM332.377 262.056V253.24H334.361V268.6H332.377V263.752C329.769 264.728 325.833 265.304 321.897 265.304V255.128H323.881V263.48C325.897 263.48 329.721 262.952 332.377 262.056ZM348.969 259.72H351.369V261.608H348.969V268.6H347.033V264.184C344.569 265.032 340.969 265.464 336.985 265.464V255.256H344.649V257.048H338.969L339.001 263.656C341.177 263.656 344.521 263.288 347.033 262.488V253.24H348.969V259.72ZM354.089 267.176C353.241 267.176 352.601 266.504 352.601 265.752C352.601 264.952 353.241 264.264 354.089 264.264C354.953 264.264 355.577 264.936 355.577 265.752C355.577 266.504 354.953 267.176 354.089 267.176ZM119.864 315.608H122.264V317.496H119.864V324.6H117.928V309.24H119.864V315.608ZM108.76 310.296H114.952V311.896H108.76V310.296ZM116.456 315.128H106.968V313.416H116.456V315.128ZM111.848 316.216C114.056 316.216 115.512 317.512 115.512 319.352C115.512 321.192 114.056 322.504 111.848 322.504C109.64 322.504 108.168 321.192 108.168 319.352C108.168 317.512 109.64 316.216 111.848 316.216ZM111.848 320.888C113.032 320.888 113.688 320.28 113.688 319.336C113.688 318.392 113.032 317.784 111.848 317.784C110.664 317.784 110.008 318.392 110.008 319.336C110.008 320.28 110.664 320.888 111.848 320.888ZM135.224 315.72H137.624V317.608H135.224V324.6H133.288V319.992C130.728 320.84 127.032 321.304 123.256 321.304V311.128H125.24V319.48C127.176 319.48 130.664 319.048 133.288 318.264V309.24H135.224V315.72ZM149.352 314.232V309.24H151.336V317.8H149.352V315.848C146.808 316.776 142.744 317.336 138.872 317.336V310.44H140.856V315.608C142.856 315.608 146.648 315.112 149.352 314.232ZM151.336 324.488H141.16V318.536H151.336V324.488ZM149.384 320.12H143.112V322.84H149.384V320.12ZM160.504 314.648C157.16 314.648 155.144 313.768 155.144 312.04C155.144 310.344 157.16 309.432 160.504 309.432C163.864 309.432 165.864 310.344 165.864 312.04C165.864 313.768 163.864 314.648 160.504 314.648ZM160.504 313.144C161.864 313.144 162.872 312.968 163.432 312.68C163.672 312.52 163.784 312.296 163.784 312.04C163.784 311.784 163.688 311.576 163.432 311.416C162.856 311.128 161.864 310.952 160.504 310.952C159.144 310.952 158.136 311.128 157.576 311.416C157.32 311.576 157.224 311.784 157.224 312.04C157.224 312.296 157.336 312.52 157.576 312.68C158.136 312.968 159.144 313.144 160.504 313.144ZM168.104 317.096H152.904V315.48H168.104V317.096ZM166.424 324.568H155.448V320.648H163.544V319.592H155.192V318.168H165.544V321.976H157.432V323.096H166.424V324.568ZM183.589 315.176V309.24H185.573V324.6H183.589V316.984H179.093V315.176H183.589ZM175.013 313.064L175.045 319.832C176.053 319.832 179.349 319.688 181.637 319.16L181.829 320.952C179.381 321.496 175.925 321.672 173.045 321.672V311.256H180.517V313.064H175.013ZM194.741 315.464C191.397 315.464 189.381 314.44 189.381 312.552C189.381 310.712 191.397 309.64 194.741 309.64C198.101 309.64 200.101 310.712 200.101 312.552C200.101 314.44 198.101 315.464 194.741 315.464ZM191.829 311.8C191.573 311.992 191.461 312.264 191.461 312.552C191.461 312.872 191.573 313.128 191.829 313.32C192.389 313.688 193.365 313.896 194.741 313.896C196.117 313.896 197.093 313.688 197.653 313.32C197.909 313.128 198.021 312.872 198.021 312.552C198.021 312.264 197.909 311.992 197.653 311.8C197.077 311.432 196.117 311.224 194.741 311.224C193.365 311.224 192.389 311.432 191.829 311.8ZM202.341 316.408V318.088H195.685V319.768H199.813V324.68H197.829V321.4H189.285V319.768H193.813V318.088H187.141V316.408H202.341ZM217.825 309.24H219.809V317.864H217.825V309.24ZM207.281 310.552H215.249C214.817 314.648 211.345 317.256 207.345 318.296L206.385 316.632C209.969 315.8 212.145 314.024 212.929 312.28V312.216H207.281V310.552ZM220.065 320.184H209.121V318.6H220.065V320.184ZM218.289 320.856L217.937 322.92H220.417V324.488H208.769V322.92H211.265L210.913 320.856L212.913 320.76L213.169 322.92H216.049L216.289 320.76L218.289 320.856ZM235.169 324.6H233.185V309.24H235.169V324.6ZM226.417 321.992C223.921 321.992 222.193 320.056 222.193 316.424C222.193 312.792 223.921 310.856 226.417 310.856C228.913 310.856 230.641 312.792 230.641 316.424C230.641 320.056 228.913 321.992 226.417 321.992ZM226.417 320.12C227.825 320.12 228.625 318.84 228.625 316.424C228.625 314.008 227.825 312.728 226.417 312.728C225.009 312.728 224.209 314.008 224.209 316.424C224.209 318.84 225.009 320.12 226.417 320.12ZM253.293 309.24V312.984H255.693V314.712H253.293V317.144H251.357V309.24H253.293ZM248.829 313.544C248.829 315.768 247.149 316.936 244.829 316.936C242.477 316.936 240.813 315.768 240.813 313.544C240.813 311.32 242.477 310.152 244.829 310.152C247.149 310.152 248.829 311.32 248.829 313.544ZM242.685 313.544C242.685 314.808 243.565 315.4 244.829 315.4C246.077 315.4 246.973 314.808 246.973 313.528C246.973 312.248 246.077 311.688 244.829 311.688C243.565 311.688 242.685 312.264 242.685 313.544ZM253.293 321.88H245.181V323.128H253.885V324.616H243.181V320.504H251.293V319.336H242.845V317.88H253.293V321.88ZM268.653 315.608H271.053V317.496H268.653V324.6H266.717V309.24H268.653V315.608ZM260.397 310.856C262.813 310.856 264.477 312.776 264.477 316.424C264.477 320.072 262.813 321.992 260.397 321.992C257.965 321.992 256.285 320.072 256.285 316.424C256.285 312.776 257.965 310.856 260.397 310.856ZM260.397 320.12C261.725 320.12 262.509 318.84 262.509 316.424C262.509 314.008 261.725 312.728 260.397 312.728C259.053 312.728 258.269 314.008 258.269 316.424C258.269 318.84 259.053 320.12 260.397 320.12ZM284.013 315.72H286.413V317.608H284.013V324.6H282.077V309.24H284.013V315.72ZM277.565 313.288H272.013V311.464H279.837C279.373 316.648 276.413 320.36 272.477 322.36L271.149 320.696C274.877 318.936 276.957 316.088 277.565 313.352V313.288ZM298.573 319.144L296.589 319.016C296.989 316.872 297.149 314.744 297.213 312.648H288.349V310.856H299.245C299.197 313.88 298.973 316.6 298.573 319.144ZM293.981 315.512V321.128H301.533V322.968H286.333V321.128H291.997V315.512H293.981ZM303.741 326.648L302.605 326.2C303.677 325.16 304.141 323.976 304.141 322.792C304.141 321.912 303.565 321.304 302.893 321.192C302.957 320.44 303.517 319.736 304.429 319.736C305.341 319.736 306.061 320.424 306.061 321.72C306.061 323.496 305.117 325.576 303.741 326.648ZM112.077 337.24H114.061V348.744H112.077V337.24ZM110.541 344.92L109.485 346.424L105.421 343.368C104.541 344.92 103.357 346.216 101.965 347.24L100.573 345.752C103.021 344.104 104.717 341.496 104.957 338.152L106.989 338.264C106.877 339.496 106.605 340.648 106.205 341.704L110.541 344.92ZM105.949 347.24V350.664H114.637V352.424H103.965V347.24H105.949ZM128.669 337.24V341.288H131.069V343.064H128.669V346.216H126.733V337.24H128.669ZM124.253 341.864C124.253 344.264 122.573 345.528 120.221 345.528C117.869 345.528 116.189 344.264 116.189 341.864C116.189 339.48 117.869 338.232 120.221 338.232C122.573 338.232 124.253 339.48 124.253 341.864ZM118.077 341.864C118.077 343.272 118.941 343.928 120.221 343.928C121.517 343.928 122.381 343.272 122.381 341.864C122.381 340.472 121.517 339.816 120.221 339.816C118.941 339.816 118.077 340.472 118.077 341.864ZM123.549 346.424C126.877 346.424 128.845 347.624 128.845 349.576C128.845 351.576 126.877 352.728 123.549 352.728C120.221 352.728 118.253 351.576 118.253 349.576C118.253 347.624 120.221 346.424 123.549 346.424ZM126.365 350.488C126.653 350.248 126.781 349.944 126.781 349.56C126.781 349.192 126.653 348.856 126.365 348.632C125.805 348.264 124.877 348.04 123.549 348.04C122.221 348.04 121.293 348.264 120.733 348.632C120.461 348.856 120.317 349.192 120.317 349.56C120.317 349.944 120.461 350.248 120.733 350.488C121.277 350.872 122.221 351.096 123.549 351.096C124.877 351.096 125.805 350.872 126.365 350.488ZM144.781 352.6H142.845V337.24H144.781V352.6ZM136.509 346.408C134.093 346.408 132.381 345.048 132.381 342.616C132.381 340.2 134.093 338.824 136.509 338.824C138.925 338.824 140.653 340.2 140.653 342.616C140.653 345.048 138.925 346.408 136.509 346.408ZM136.509 344.792C137.853 344.792 138.733 344.024 138.733 342.616C138.733 341.224 137.853 340.456 136.509 340.456C135.181 340.456 134.301 341.224 134.301 342.616C134.301 344.024 135.181 344.792 136.509 344.792ZM131.277 350.44L131.053 348.6C135.661 348.6 139.021 348.392 142.013 347.752L142.237 349.496C139.261 350.152 135.789 350.44 131.277 350.44ZM161.674 337.24H163.658V348.744H161.674V337.24ZM160.202 345.304L159.226 346.712L155.546 344.472C154.25 345.592 152.682 346.488 151.002 347.128L150.026 345.544C153.37 344.424 155.578 342.472 156.426 340.536V340.472H150.97V338.792H158.794C158.554 340.472 157.818 341.96 156.762 343.224L160.202 345.304ZM155.546 347.24V350.664H164.234V352.424H153.562V347.24H155.546ZM179.018 346.2H177.034V342.472H173.866V340.776H177.034V337.24H179.018V346.2ZM175.146 344.504L174.186 345.88L170.682 343.88C169.45 344.92 167.962 345.736 166.33 346.328L165.386 344.792C168.65 343.768 170.682 341.976 171.498 340.216V340.152H166.298V338.488H173.818C173.578 340.088 172.89 341.48 171.898 342.648L175.146 344.504ZM173.786 346.424C177.114 346.424 179.082 347.624 179.082 349.576C179.082 351.576 177.114 352.728 173.786 352.728C170.442 352.728 168.49 351.576 168.49 349.576C168.49 347.624 170.442 346.424 173.786 346.424ZM176.586 350.488C176.874 350.248 177.018 349.944 177.018 349.56C177.018 349.192 176.874 348.856 176.586 348.632C176.042 348.264 175.114 348.04 173.786 348.04C172.442 348.04 171.53 348.264 170.97 348.632C170.682 348.856 170.554 349.192 170.554 349.56C170.554 349.944 170.682 350.248 170.97 350.488C171.514 350.872 172.442 351.096 173.786 351.096C175.114 351.096 176.042 350.872 176.586 350.488ZM193.626 337.24V343.032H196.026V344.808H193.626V348.744H191.69V337.24H193.626ZM182.506 337.784H188.666V339.24H182.506V337.784ZM180.73 340.392H190.17V341.96H180.73V340.392ZM189.226 345.304C189.226 346.824 187.786 347.816 185.578 347.816C183.37 347.816 181.93 346.824 181.93 345.304C181.93 343.784 183.37 342.792 185.578 342.792C187.786 342.792 189.226 343.784 189.226 345.304ZM183.706 345.288C183.706 345.976 184.378 346.424 185.578 346.424C186.794 346.424 187.466 345.976 187.466 345.288C187.466 344.6 186.794 344.152 185.578 344.152C184.378 344.152 183.706 344.6 183.706 345.288ZM183.69 348.376H185.658V350.712H194.202V352.424H183.69V348.376ZM212.502 343.72H214.902V345.608H212.502V352.6H210.566V337.24H212.502V343.72ZM206.054 341.288H200.502V339.464H208.326C207.862 344.648 204.902 348.36 200.966 350.36L199.638 348.696C203.366 346.936 205.446 344.088 206.054 341.352V341.288ZM226.63 352.6V337.24H228.614V352.6H226.63ZM216.966 338.44H223.094V340.072H216.966V338.44ZM215.894 341.656H223.99C223.67 343.352 222.918 344.824 221.926 346.056L225.142 348.68L224.022 350.12L220.694 347.352C219.334 348.616 217.702 349.56 216.102 350.2L215.094 348.584C218.022 347.512 220.534 345.608 221.59 343.4V343.352H215.894V341.656ZM243.43 343.304H232.71V339.8H240.87V338.984H232.534V337.608H242.79V341.08H234.63V341.976H243.43V343.304ZM245.382 345.768H230.182V344.216H245.382V345.768ZM243.702 352.568H232.742V348.936H240.822V348.024H232.454V346.68H242.822V350.2H234.726V351.16H243.702V352.568ZM262.098 341.112H264.498V342.872H262.098V345.32H260.162V337.24H262.098V341.112ZM257.778 344.856L253.778 342.392C252.898 343.752 251.714 344.888 250.322 345.8L249.026 344.312C251.474 342.872 253.074 340.696 253.362 337.832L255.362 337.976C255.218 339.016 254.962 339.96 254.594 340.84L258.722 343.352L257.778 344.856ZM252.834 351.112H252.898C254.13 351.112 255.298 351.032 256.29 350.888L256.386 352.376C255.266 352.536 254.05 352.6 252.546 352.6H251.042V348.584H254.178V347.48H250.834V346.056H255.874V349.832H252.834V351.112ZM262.098 352.52H256.898V346.056H262.098V352.52ZM260.386 347.528H258.562V351H260.386V347.528ZM281.358 343.496L275.23 340.504C273.71 341.896 271.694 342.904 269.614 343.624L268.622 342.024C271.838 341.064 274.398 339.416 275.326 337.24L277.246 337.736C277.022 338.248 276.75 338.728 276.43 339.176L282.27 342.024L281.358 343.496ZM276.526 342.136V344.552H283.134V346.232H267.934V344.552H274.542V342.136H276.526ZM278.622 349.272H270.078V347.656H280.606V352.68H278.622V349.272ZM295.598 352.584V337.24H297.438V352.584H295.598ZM290.414 343.496H291.95V337.864H293.758V352.04H291.95V345.336H290.446C290.254 348.408 288.926 349.912 287.07 349.912C285.038 349.912 283.662 348.152 283.662 344.536C283.662 340.92 285.038 339.16 287.07 339.16C288.878 339.16 290.174 340.584 290.414 343.496ZM287.086 348.088C288.046 348.088 288.622 346.92 288.622 344.536C288.622 342.136 288.046 340.984 287.086 340.984C286.11 340.984 285.518 342.136 285.518 344.536C285.518 346.92 286.11 348.088 287.086 348.088ZM310.462 342.328V337.24H312.446V352.6H310.462V344.12H306.414V342.328H310.462ZM302.91 338.856L304.926 338.92C304.846 340.648 304.574 342.216 304.142 343.64L308.67 348.168L307.438 349.624L303.454 345.528C302.686 347.288 301.646 348.792 300.398 350.04L298.846 348.632C301.198 346.408 302.734 343.208 302.91 338.856ZM98.4755 365.24H100.46V373.144H98.4755V365.24ZM96.0115 372.808L91.8195 370.376C90.9075 371.736 89.6915 372.872 88.2675 373.784L86.9715 372.28C89.4675 370.856 91.1315 368.664 91.4355 365.832L93.4355 365.976C93.2915 367 93.0355 367.96 92.6515 368.824L96.9395 371.288L96.0115 372.808ZM92.2675 377.88V379.128H101.052V380.616H90.2675V376.504H98.4595V375.336H89.9315V373.88H100.46V377.88H92.2675ZM115.82 376.744H113.836V372.088H110.684V370.36H113.836V365.24H115.82V376.744ZM104.044 365.896H109.772V367.416H104.044V365.896ZM111.66 373.976L110.732 375.32L107.468 373.432C106.22 374.424 104.748 375.176 103.212 375.688L102.3 374.168C105.132 373.288 107.148 371.912 108.172 370.296V370.248H103.036V368.664H110.556C110.268 370.04 109.612 371.24 108.7 372.264L111.66 373.976ZM107.708 375.704V378.696H116.396V380.424H105.724V375.704H107.708ZM130.428 371.608H132.828V373.496H130.428V380.6H128.492V365.24H130.428V371.608ZM119.324 366.296H125.516V367.896H119.324V366.296ZM127.02 371.128H117.532V369.416H127.02V371.128ZM122.412 372.216C124.62 372.216 126.076 373.512 126.076 375.352C126.076 377.192 124.62 378.504 122.412 378.504C120.204 378.504 118.732 377.192 118.732 375.352C118.732 373.512 120.204 372.216 122.412 372.216ZM122.412 376.888C123.596 376.888 124.252 376.28 124.252 375.336C124.252 374.392 123.596 373.784 122.412 373.784C121.228 373.784 120.572 374.392 120.572 375.336C120.572 376.28 121.228 376.888 122.412 376.888ZM144.556 369.144V365.24H146.54V380.6H144.556V375.576H141.452V377.672H133.964V367.256H141.452V369.144H144.556ZM135.868 375.896H139.548V369.032H135.868V375.896ZM141.452 370.84V373.896H144.556V370.84H141.452ZM164.664 369.288H167.064V371.064H164.664V373.8H162.728V372.088C160.408 372.904 156.68 373.352 152.616 373.352V366.488H160.216V368.152H154.6L154.616 371.672C156.84 371.672 160.312 371.32 162.728 370.552V365.24H164.664V369.288ZM164.664 380.488H154.584V374.536H164.664V380.488ZM162.696 376.12H156.52V378.84H162.696V376.12ZM180.024 371.608H182.424V373.496H180.024V380.6H178.088V365.24H180.024V371.608ZM171.768 366.856C174.184 366.856 175.848 368.776 175.848 372.424C175.848 376.072 174.184 377.992 171.768 377.992C169.336 377.992 167.656 376.072 167.656 372.424C167.656 368.776 169.336 366.856 171.768 366.856ZM171.768 376.12C173.096 376.12 173.88 374.84 173.88 372.424C173.88 370.008 173.096 368.728 171.768 368.728C170.424 368.728 169.64 370.008 169.64 372.424C169.64 374.84 170.424 376.12 171.768 376.12ZM194.648 371.336V365.24H196.488V380.584H194.648V373.16H192.504V380.04H190.68V376.248C188.68 376.792 185.912 377.112 183.224 377.112V367.272H185.144V375.304C186.28 375.304 188.744 375 190.68 374.504V365.864H192.504V371.336H194.648ZM210.616 371.4H200.328V365.736H202.312V369.704H210.616V371.4ZM212.904 374.632H197.704V372.936H212.904V374.632ZM210.744 380.424H200.408V375.736H202.392V378.696H210.744V380.424ZM229.62 371.72H232.02V373.608H229.62V380.6H227.684V376.184C225.22 377.032 221.62 377.464 217.636 377.464V367.256H225.3V369.048H219.62L219.652 375.656C221.828 375.656 225.172 375.288 227.684 374.488V365.24H229.62V371.72ZM247.38 367.56V369.144H244.98V370.888H247.38V372.456H244.98V374.216H243.044V365.24H244.98V367.56H247.38ZM240.564 369.864C240.564 372.264 238.884 373.528 236.532 373.528C234.18 373.528 232.5 372.264 232.5 369.864C232.5 367.48 234.18 366.232 236.532 366.232C238.884 366.232 240.564 367.48 240.564 369.864ZM234.388 369.864C234.388 371.272 235.252 371.928 236.532 371.928C237.828 371.928 238.692 371.272 238.692 369.864C238.692 368.472 237.828 367.816 236.532 367.816C235.252 367.816 234.388 368.472 234.388 369.864ZM239.86 374.424C243.188 374.424 245.156 375.624 245.156 377.576C245.156 379.576 243.188 380.728 239.86 380.728C236.532 380.728 234.564 379.576 234.564 377.576C234.564 375.624 236.532 374.424 239.86 374.424ZM242.676 378.488C242.964 378.248 243.092 377.944 243.092 377.56C243.092 377.192 242.964 376.856 242.676 376.632C242.116 376.264 241.188 376.04 239.86 376.04C238.532 376.04 237.604 376.264 237.044 376.632C236.772 376.856 236.628 377.192 236.628 377.56C236.628 377.944 236.772 378.248 237.044 378.488C237.588 378.872 238.532 379.096 239.86 379.096C241.188 379.096 242.116 378.872 242.676 378.488ZM260.34 365.24V371.032H262.74V372.808H260.34V376.744H258.404V365.24H260.34ZM249.22 365.784H255.38V367.24H249.22V365.784ZM247.444 368.392H256.884V369.96H247.444V368.392ZM255.94 373.304C255.94 374.824 254.5 375.816 252.292 375.816C250.084 375.816 248.644 374.824 248.644 373.304C248.644 371.784 250.084 370.792 252.292 370.792C254.5 370.792 255.94 371.784 255.94 373.304ZM250.42 373.288C250.42 373.976 251.092 374.424 252.292 374.424C253.508 374.424 254.18 373.976 254.18 373.288C254.18 372.6 253.508 372.152 252.292 372.152C251.092 372.152 250.42 372.6 250.42 373.288ZM250.404 376.376H252.372V378.712H260.916V380.424H250.404V376.376ZM268.08 370.504L268.032 369L277.056 368.84C277.072 368.36 277.088 367.912 277.088 367.496H268.464V365.928H279.008C278.992 368.28 278.864 370.36 278.672 372.168L276.752 372.104C276.832 371.528 276.912 370.904 276.96 370.28L268.08 370.504ZM274 371V373.176H281.376V374.856H266.176V373.176H271.984V371H274ZM268.8 375.848H270.784V378.712H279.28V380.424H268.8V375.848ZM293.84 365.24H295.68V376.952H293.84V365.24ZM292 376.424H290.192V371.304H288.448V369.592H290.192V365.592H292V376.424ZM288.832 373.064L288.976 374.616C287.36 374.936 285.344 375.048 282.384 375.048V366.968H288.144V368.552H284.24V370.104H287.808V371.592H284.24V373.448C285.424 373.448 287.296 373.368 288.832 373.064ZM287.296 375.896V378.696H296.08V380.424H285.312V375.896H287.296ZM301.056 366.104H307.952V367.688H301.056V366.104ZM298.656 375.464L297.936 373.8C301.936 373.272 305.264 372.008 306.672 370.68V370.6L305.056 370.632H299.328V368.968H309.44C309.2 370.488 308.08 371.752 306.496 372.776L311.04 373.928L310.32 375.448L304.496 373.848C302.672 374.648 300.592 375.192 298.656 375.464ZM296.896 378.968V377.192H312.096V378.968H296.896ZM325.28 371.768H327.696V373.656H325.28V380.6H323.36V365.24H325.28V371.768ZM318.224 374.04V376.408C319.808 376.264 321.2 376.056 322.544 375.752L322.768 377.48C319.952 378.152 316.752 378.44 312.528 378.44L312.32 376.616C313.792 376.616 315.12 376.584 316.336 376.536V374.072C314.432 373.8 313.152 372.552 313.152 370.472C313.152 368.136 314.816 366.824 317.184 366.824C319.536 366.824 321.2 368.136 321.2 370.472C321.2 372.472 320.016 373.704 318.224 374.04ZM315.056 370.472C315.056 371.816 315.904 372.52 317.184 372.52C318.464 372.52 319.312 371.816 319.312 370.472C319.312 369.144 318.464 368.44 317.184 368.44C315.904 368.44 315.056 369.144 315.056 370.472ZM86.1542 393.24H88.1382V404.744H86.1542V393.24ZM84.6182 400.92L83.5622 402.424L79.4982 399.368C78.6182 400.92 77.4342 402.216 76.0422 403.24L74.6502 401.752C77.0982 400.104 78.7942 397.496 79.0342 394.152L81.0662 394.264C80.9542 395.496 80.6822 396.648 80.2822 397.704L84.6182 400.92ZM80.0262 403.24V406.664H88.7142V408.424H78.0422V403.24H80.0262ZM102.746 393.24V397.288H105.146V399.064H102.746V402.216H100.81V393.24H102.746ZM98.3302 397.864C98.3302 400.264 96.6502 401.528 94.2982 401.528C91.9462 401.528 90.2662 400.264 90.2662 397.864C90.2662 395.48 91.9462 394.232 94.2982 394.232C96.6502 394.232 98.3302 395.48 98.3302 397.864ZM92.1542 397.864C92.1542 399.272 93.0182 399.928 94.2982 399.928C95.5942 399.928 96.4582 399.272 96.4582 397.864C96.4582 396.472 95.5942 395.816 94.2982 395.816C93.0182 395.816 92.1542 396.472 92.1542 397.864ZM97.6262 402.424C100.954 402.424 102.922 403.624 102.922 405.576C102.922 407.576 100.954 408.728 97.6262 408.728C94.2982 408.728 92.3302 407.576 92.3302 405.576C92.3302 403.624 94.2982 402.424 97.6262 402.424ZM100.442 406.488C100.73 406.248 100.858 405.944 100.858 405.56C100.858 405.192 100.73 404.856 100.442 404.632C99.8822 404.264 98.9542 404.04 97.6262 404.04C96.2982 404.04 95.3702 404.264 94.8102 404.632C94.5382 404.856 94.3942 405.192 94.3942 405.56C94.3942 405.944 94.5382 406.248 94.8102 406.488C95.3542 406.872 96.2982 407.096 97.6262 407.096C98.9542 407.096 99.8822 406.872 100.442 406.488ZM120.39 399.72V393.24H122.374V408.6H120.39V401.512H116.022C114.678 403.672 112.678 405.256 110.15 406.408L108.998 404.76C111.398 403.816 113.078 402.52 114.198 400.936L109.446 401.24L109.35 399.48L115.142 399.256C115.414 398.6 115.638 397.928 115.782 397.208V397.16H110.006V395.384H117.926C117.782 397.016 117.446 398.456 116.934 399.72H120.39ZM126.39 394.008H136.694V400.184H126.39V394.008ZM128.358 398.552H134.726V395.672H128.358V398.552ZM123.942 401.752H139.142V403.48H135.19V408.632H133.27V403.48H129.83V408.632H127.91V403.48H123.942V401.752ZM151.11 402.056V393.24H153.094V408.6H151.11V403.752C148.502 404.728 144.566 405.304 140.63 405.304V395.128H142.614V403.48C144.63 403.48 148.454 402.952 151.11 402.056ZM166.47 403.016V393.24H168.454V408.6H166.47V404.664C163.958 405.432 160.486 405.784 155.878 405.784V395.256H163.83V397H157.798V399.48H163.414V401.128H157.798V404.04C160.63 404.04 163.894 403.736 166.47 403.016ZM172.07 410.648L170.934 410.2C172.006 409.16 172.47 407.976 172.47 406.792C172.47 405.912 171.894 405.304 171.222 405.192C171.286 404.44 171.846 403.736 172.758 403.736C173.67 403.736 174.39 404.424 174.39 405.72C174.39 407.496 173.446 409.576 172.07 410.648ZM191.417 403.48L189.385 403.336C189.801 401.112 189.945 398.952 190.009 396.792H181.433V395H192.025C191.977 398.008 191.785 400.824 191.417 403.48ZM179.305 406.968V405.128H194.505V406.968H179.305ZM206.473 402.984V393.24H208.457V408.6H206.473V404.632C204.041 405.4 200.713 405.832 195.865 405.832V399.528H201.673V397.016H195.673V395.256H203.529V401.176H197.801V404.072C200.793 404.072 203.929 403.688 206.473 402.984ZM222.265 403.144L220.281 403.016C220.681 400.872 220.841 398.744 220.905 396.648H212.041V394.856H222.937C222.889 397.88 222.665 400.6 222.265 403.144ZM217.673 399.512V405.128H225.225V406.968H210.025V405.128H215.689V399.512H217.673ZM236.501 400.472C233.077 400.472 231.013 399.208 231.013 397.128C231.013 395.064 233.077 393.784 236.501 393.784C239.925 393.784 241.989 395.064 241.989 397.128C241.989 399.208 239.925 400.472 236.501 400.472ZM233.509 396.184C233.221 396.424 233.093 396.76 233.093 397.144C233.093 397.512 233.221 397.832 233.509 398.088C234.069 398.552 235.077 398.824 236.501 398.824C237.925 398.824 238.933 398.552 239.493 398.088C239.765 397.832 239.909 397.512 239.909 397.144C239.909 396.76 239.781 396.424 239.493 396.184C238.933 395.72 237.925 395.464 236.501 395.464C235.077 395.464 234.069 395.72 233.509 396.184ZM228.901 401.752H244.101V403.48H240.149V408.632H238.229V403.48H234.789V408.632H232.869V403.48H228.901V401.752ZM258.053 402.44H256.069V393.24H258.053V402.44ZM249.157 401.8C246.773 401.8 245.077 400.504 245.077 398.056C245.077 395.608 246.773 394.312 249.157 394.312C251.525 394.312 253.237 395.608 253.237 398.056C253.237 400.504 251.525 401.8 249.157 401.8ZM249.157 400.2C250.453 400.2 251.317 399.496 251.317 398.056C251.317 396.6 250.453 395.912 249.157 395.912C247.845 395.912 246.997 396.6 246.997 398.056C246.997 399.496 247.845 400.2 249.157 400.2ZM258.053 408.664H256.037V404.904H247.541V403.176H258.053V408.664ZM272.661 393.24V399.032H275.061V400.808H272.661V404.744H270.725V393.24H272.661ZM261.541 393.784H267.701V395.24H261.541V393.784ZM259.765 396.392H269.205V397.96H259.765V396.392ZM268.261 401.304C268.261 402.824 266.821 403.816 264.613 403.816C262.405 403.816 260.965 402.824 260.965 401.304C260.965 399.784 262.405 398.792 264.613 398.792C266.821 398.792 268.261 399.784 268.261 401.304ZM262.741 401.288C262.741 401.976 263.413 402.424 264.613 402.424C265.829 402.424 266.501 401.976 266.501 401.288C266.501 400.6 265.829 400.152 264.613 400.152C263.413 400.152 262.741 400.6 262.741 401.288ZM262.725 404.376H264.693V406.712H273.237V408.424H262.725V404.376ZM290.513 399.32H293.697V400.92H278.497V399.32H288.865C288.961 398.856 289.041 398.328 289.105 397.8L280.497 398.088L280.449 396.6L289.249 396.392C289.297 395.896 289.313 395.464 289.329 395.176H280.865V393.656H291.281C291.217 395.528 290.961 397.72 290.513 399.32ZM291.137 405.928H283.025V407.112H292.017V408.568H281.041V404.616H289.137V403.496H280.785V402.072H291.137V405.928ZM306.161 399.448V393.24H308.001V408.584H306.161V401.288H304.081V408.04H302.257V404.872C300.625 405.32 298.337 405.672 294.705 405.672V399.544H298.833V397.112H294.513V395.368H300.577V401.16H296.561V403.928C298.657 403.928 300.593 403.64 302.257 403.208V393.864H304.081V399.448H306.161ZM322.561 402.76L316.529 398.6C315.009 400.456 312.977 401.896 310.881 402.904L309.761 401.192C312.913 399.8 315.585 397.496 316.609 394.392L318.593 394.824C318.337 395.624 318.001 396.376 317.585 397.096L323.697 401.144L322.561 402.76ZM309.217 406.968V405.128H324.417V406.968H309.217ZM333.169 402.744V405.176H339.777V406.968H324.577V405.176H331.185V402.744H327.025V397.848H335.297V396.2H326.881V394.568H337.249V399.4H328.977V401.112H338.065V402.744H333.169ZM146.421 427.72H148.821V429.608H146.421V436.6H144.485V421.24H146.421V427.72ZM139.973 425.288H134.421V423.464H142.245C141.781 428.648 138.821 432.36 134.885 434.36L133.557 432.696C137.285 430.936 139.365 428.088 139.973 425.352V425.288ZM161.765 427.064H151.365V421.816H161.477V423.416H153.349V425.512H161.765V427.064ZM163.941 430.152H148.741V428.456H163.941V430.152ZM161.397 436.68H159.413V433.24H150.901V431.608H161.397V436.68ZM179.921 427.448V421.24H181.761V436.584H179.921V429.288H177.841V436.04H176.017V421.864H177.841V427.448H179.921ZM169.041 422.52H173.937V424.136H169.041V422.52ZM168.193 425.704H174.577C174.321 427.288 173.761 428.712 172.977 429.96L175.441 432.712L174.289 434.024L171.969 431.336C171.009 432.472 169.873 433.416 168.641 434.152L167.537 432.648C170.001 431.336 171.729 429.368 172.449 427.416V427.368H168.193V425.704ZM194.833 432.456V421.24H196.769V436.6H194.833V434.056H191.313V432.456H194.833ZM188.497 428.728C186.113 428.728 184.417 427.544 184.417 425.464C184.417 423.4 186.113 422.216 188.497 422.216C190.881 422.216 192.577 423.4 192.577 425.464C192.577 427.544 190.881 428.728 188.497 428.728ZM188.513 423.752C187.185 423.752 186.305 424.36 186.305 425.464C186.305 426.6 187.185 427.192 188.513 427.192C189.809 427.192 190.705 426.6 190.705 425.464C190.705 424.344 189.809 423.752 188.513 423.752ZM193.953 428.952L194.193 430.6C192.721 431 191.153 431.288 189.425 431.464V436.536H187.489V431.64C186.177 431.72 184.769 431.768 183.249 431.768L183.041 430.024C187.649 430.024 190.929 429.752 193.953 428.952ZM210.145 425.384V421.24H212.129V436.6H210.145V430.712H207.137V429.016H210.145V427.064H207.137V425.384H210.145ZM199.393 423.368H206.897C206.641 425.464 205.937 427.352 204.913 428.984L208.177 432.376L206.961 433.832L203.857 430.472C202.689 431.928 201.265 433.144 199.729 434.104L198.497 432.52C201.617 430.744 203.889 427.912 204.577 425.208V425.16H199.393V423.368ZM229.021 421.24H231.005V429.8H229.021V421.24ZM222.109 429.48C219.725 429.48 218.029 428.232 218.029 425.848C218.029 423.48 219.725 422.232 222.109 422.232C224.477 422.232 226.189 423.48 226.189 425.848C226.189 428.232 224.477 429.48 222.109 429.48ZM222.109 423.816C220.813 423.816 219.933 424.456 219.933 425.848C219.933 427.24 220.813 427.896 222.109 427.896C223.405 427.896 224.285 427.24 224.285 425.848C224.285 424.456 223.405 423.816 222.109 423.816ZM229.245 432.376L232.253 435.224L231.197 436.568L228.477 433.976C227.773 435.16 226.813 436.136 225.661 436.968L224.381 435.576C226.365 434.248 227.533 432.632 227.885 430.264L229.757 430.44C229.645 431.128 229.469 431.784 229.245 432.376ZM223.469 432.088L225.309 433.768L224.189 435.144L222.685 433.688C221.965 434.872 221.005 435.896 219.917 436.664L218.605 435.304C220.445 434.088 221.693 432.408 222.045 430.344L223.901 430.536C223.805 431.064 223.661 431.576 223.469 432.088ZM245.933 427.24L239.837 424.424C238.349 425.752 236.381 426.728 234.333 427.368L233.373 425.752C236.557 424.888 239.101 423.288 239.981 421.192L241.901 421.64C241.677 422.168 241.389 422.664 241.053 423.128L246.797 425.736L245.933 427.24ZM232.573 429.752V428.104H247.773V429.752H232.573ZM237.101 432.072H243.245V430.664H245.213V436.488H235.133V430.664H237.101V432.072ZM237.069 434.888H243.261V433.48H237.069V434.888ZM259.741 430.056V421.24H261.725V436.6H259.741V431.752C257.133 432.728 253.197 433.304 249.261 433.304V423.128H251.245V431.48C253.261 431.48 257.085 430.952 259.741 430.056ZM276.333 427.72H278.733V429.608H276.333V436.6H274.397V432.184C271.933 433.032 268.333 433.464 264.349 433.464V423.256H272.013V425.048H266.333L266.365 431.656C268.541 431.656 271.885 431.288 274.397 430.488V421.24H276.333V427.72ZM281.453 435.176C280.605 435.176 279.965 434.504 279.965 433.752C279.965 432.952 280.605 432.264 281.453 432.264C282.317 432.264 282.941 432.936 282.941 433.752C282.941 434.504 282.317 435.176 281.453 435.176ZM93.2724 485.16L93.1444 483.384L102.264 483.048C102.328 482.232 102.36 481.416 102.36 480.616H93.5764V478.856H104.376C104.328 482.312 104.088 485.352 103.656 487.816L101.656 487.704C101.864 486.728 102.008 485.704 102.12 484.68L93.2724 485.16ZM91.4644 490.968V489.128H106.664V490.968H91.4644ZM120.616 486.68H118.632V483.368H115.48V481.688H118.632V477.24H120.616V486.68ZM108.84 477.64H114.568V479.144H108.84V477.64ZM116.456 485.112L115.608 486.44L112.264 484.808C111.016 485.72 109.512 486.424 107.96 486.888L107.096 485.4C109.96 484.584 111.912 483.368 112.968 481.896V481.848H107.832V480.296H115.352C115.08 481.592 114.44 482.712 113.56 483.656L116.456 485.112ZM115.384 486.904C118.712 486.904 120.68 487.976 120.68 489.816C120.68 491.704 118.712 492.728 115.384 492.728C112.056 492.728 110.088 491.704 110.088 489.816C110.088 487.976 112.056 486.904 115.384 486.904ZM118.2 490.616C118.488 490.408 118.616 490.12 118.616 489.8C118.616 489.48 118.488 489.176 118.2 488.984C117.64 488.664 116.728 488.472 115.384 488.472C114.04 488.472 113.112 488.664 112.568 488.984C112.28 489.176 112.152 489.48 112.152 489.8C112.152 490.12 112.28 490.408 112.568 490.616C113.112 490.92 114.04 491.128 115.384 491.128C116.728 491.128 117.64 490.92 118.2 490.616ZM134.488 483.576H132.456V488.424H130.648V477.592H132.456V481.832H134.488V477.24H136.328V488.952H134.488V483.576ZM123.032 479.016H129.16V485.928H123.032V479.016ZM124.776 484.424H127.464V480.552H124.776V484.424ZM127.944 487.24V490.664H136.728V492.424H125.96V487.24H127.944ZM145.784 482.856H149.352V481.192H145.304V479.624H149.352V477.24H151.336V488.744H149.352V484.408H145.784V482.856ZM147.144 485.528L146.184 486.968L142.04 483.864C141.304 485.256 140.312 486.456 139.112 487.496L137.736 486.088C140.12 484.088 141.32 481.72 141.608 478.152L143.528 478.264C143.416 479.752 143.144 481.08 142.728 482.264L147.144 485.528ZM143.224 487.24V490.664H151.912V492.424H141.24V487.24H143.224ZM165.208 492.584V477.24H167.048V492.584H165.208ZM160.024 483.496H161.56V477.864H163.368V492.04H161.56V485.336H160.056C159.864 488.408 158.536 489.912 156.68 489.912C154.648 489.912 153.272 488.152 153.272 484.536C153.272 480.92 154.648 479.16 156.68 479.16C158.488 479.16 159.784 480.584 160.024 483.496ZM156.696 488.088C157.656 488.088 158.232 486.92 158.232 484.536C158.232 482.136 157.656 480.984 156.696 480.984C155.72 480.984 155.128 482.136 155.128 484.536C155.128 486.92 155.72 488.088 156.696 488.088ZM180.072 482.328V477.24H182.056V492.6H180.072V484.12H176.024V482.328H180.072ZM172.52 478.856L174.536 478.92C174.456 480.648 174.184 482.216 173.752 483.64L178.28 488.168L177.048 489.624L173.064 485.528C172.296 487.288 171.256 488.792 170.008 490.04L168.456 488.632C170.808 486.408 172.344 483.208 172.52 478.856ZM198.949 482.328V477.24H200.933V492.6H198.949V484.12H194.901V482.328H198.949ZM191.397 478.856L193.413 478.92C193.333 480.648 193.061 482.216 192.629 483.64L197.157 488.168L195.925 489.624L191.941 485.528C191.173 487.288 190.133 488.792 188.885 490.04L187.333 488.632C189.685 486.408 191.221 483.208 191.397 478.856ZM211.093 486.744V489.176H217.701V490.968H202.501V489.176H209.109V486.744H204.949V481.848H213.221V480.2H204.805V478.568H215.173V483.4H206.901V485.112H215.989V486.744H211.093ZM231.653 492.6H229.717V477.24H231.653V492.6ZM223.381 486.408C220.965 486.408 219.253 485.048 219.253 482.616C219.253 480.2 220.965 478.824 223.381 478.824C225.797 478.824 227.525 480.2 227.525 482.616C227.525 485.048 225.797 486.408 223.381 486.408ZM223.381 484.792C224.725 484.792 225.605 484.024 225.605 482.616C225.605 481.224 224.725 480.456 223.381 480.456C222.053 480.456 221.173 481.224 221.173 482.616C221.173 484.024 222.053 484.792 223.381 484.792ZM218.149 490.44L217.925 488.6C222.533 488.6 225.893 488.392 228.885 487.752L229.109 489.496C226.133 490.152 222.661 490.44 218.149 490.44ZM249.777 481.112H252.177V482.872H249.777V485.32H247.841V477.24H249.777V481.112ZM245.457 484.856L241.457 482.392C240.577 483.752 239.393 484.888 238.001 485.8L236.705 484.312C239.153 482.872 240.753 480.696 241.041 477.832L243.041 477.976C242.897 479.016 242.641 479.96 242.273 480.84L246.401 483.352L245.457 484.856ZM240.513 491.112H240.577C241.809 491.112 242.977 491.032 243.969 490.888L244.065 492.376C242.945 492.536 241.729 492.6 240.225 492.6H238.721V488.584H241.857V487.48H238.513V486.056H243.553V489.832H240.513V491.112ZM249.777 492.52H244.577V486.056H249.777V492.52ZM248.065 487.528H246.241V491H248.065V487.528ZM259.697 482.648C256.353 482.648 254.337 481.768 254.337 480.04C254.337 478.344 256.353 477.432 259.697 477.432C263.057 477.432 265.057 478.344 265.057 480.04C265.057 481.768 263.057 482.648 259.697 482.648ZM259.697 481.144C261.057 481.144 262.065 480.968 262.625 480.68C262.865 480.52 262.977 480.296 262.977 480.04C262.977 479.784 262.881 479.576 262.625 479.416C262.049 479.128 261.057 478.952 259.697 478.952C258.337 478.952 257.329 479.128 256.769 479.416C256.513 479.576 256.417 479.784 256.417 480.04C256.417 480.296 256.529 480.52 256.769 480.68C257.329 480.968 258.337 481.144 259.697 481.144ZM267.297 485.096H252.097V483.48H267.297V485.096ZM265.617 492.568H254.641V488.648H262.737V487.592H254.385V486.168H264.737V489.976H256.625V491.096H265.617V492.568ZM284.013 483.72H286.413V485.608H284.013V492.6H282.077V487.992C279.517 488.84 275.821 489.304 272.045 489.304V479.128H274.029V487.48C275.965 487.48 279.453 487.048 282.077 486.264V477.24H284.013V483.72ZM290.973 482.2H299.277V483.944H288.989V477.8H290.973V482.2ZM286.333 485.72H301.533V487.464H294.941V492.632H292.925V487.464H286.333V485.72ZM313.501 481.144V477.24H315.485V492.6H313.501V487.576H310.397V489.672H302.909V479.256H310.397V481.144H313.501ZM304.813 487.896H308.493V481.032H304.813V487.896ZM310.397 482.84V485.896H313.501V482.84H310.397ZM319.101 494.648L317.965 494.2C319.037 493.16 319.501 491.976 319.501 490.792C319.501 489.912 318.925 489.304 318.253 489.192C318.317 488.44 318.877 487.736 319.789 487.736C320.701 487.736 321.421 488.424 321.421 489.72C321.421 491.496 320.477 493.576 319.101 494.648ZM106.381 514.072H104.397V505.24H106.381V514.072ZM101.309 513.192H93.8054V506.472H101.309V513.192ZM95.6614 507.992V511.688H99.4854V507.992H95.6614ZM106.861 520.488H96.2054V514.808H106.493V516.408H98.2534V518.84H106.861V520.488ZM115.549 511.176C112.205 511.176 110.189 510.2 110.189 508.392C110.189 506.616 112.205 505.624 115.549 505.624C118.909 505.624 120.909 506.616 120.909 508.392C120.909 510.2 118.909 511.176 115.549 511.176ZM115.549 509.624C116.909 509.624 117.917 509.432 118.477 509.096C118.717 508.92 118.829 508.68 118.829 508.392C118.829 508.12 118.717 507.88 118.477 507.72C117.901 507.384 116.909 507.192 115.549 507.192C114.189 507.192 113.181 507.384 112.637 507.72C112.381 507.88 112.269 508.12 112.269 508.392C112.269 508.68 112.381 508.92 112.637 509.096C113.181 509.432 114.189 509.624 115.549 509.624ZM123.149 513.848H107.949V512.168H123.149V513.848ZM120.589 520.488H110.509V515.16H120.589V520.488ZM112.445 516.648V518.904H118.637V516.648H112.445ZM139.866 505.24V510.008H142.266V511.784H139.866V516.744H137.93V505.24H139.866ZM135.514 510.328C135.514 512.824 133.834 514.136 131.45 514.136C129.082 514.136 127.386 512.824 127.386 510.328C127.386 507.832 129.082 506.52 131.45 506.52C133.834 506.52 135.514 507.832 135.514 510.328ZM129.274 510.328C129.274 511.816 130.154 512.536 131.466 512.536C132.762 512.536 133.626 511.816 133.626 510.328C133.626 508.84 132.762 508.136 131.466 508.136C130.154 508.136 129.274 508.856 129.274 510.328ZM129.93 515.24H131.914V518.664H140.442V520.424H129.93V515.24ZM154.49 520.584V505.24H156.33V520.584H154.49ZM149.306 511.496H150.842V505.864H152.65V520.04H150.842V513.336H149.338C149.146 516.408 147.818 517.912 145.962 517.912C143.93 517.912 142.554 516.152 142.554 512.536C142.554 508.92 143.93 507.16 145.962 507.16C147.77 507.16 149.066 508.584 149.306 511.496ZM145.978 516.088C146.938 516.088 147.514 514.92 147.514 512.536C147.514 510.136 146.938 508.984 145.978 508.984C145.002 508.984 144.41 510.136 144.41 512.536C144.41 514.92 145.002 516.088 145.978 516.088ZM169.354 510.328V505.24H171.338V520.6H169.354V512.12H165.306V510.328H169.354ZM161.802 506.856L163.818 506.92C163.738 508.648 163.466 510.216 163.034 511.64L167.562 516.168L166.33 517.624L162.346 513.528C161.578 515.288 160.538 516.792 159.29 518.04L157.738 516.632C160.09 514.408 161.626 511.208 161.802 506.856ZM189.462 510.28H191.862V512.056H189.462V514.6H187.526V505.24H189.462V510.28ZM178.342 505.576H184.502V506.984H178.342V505.576ZM176.566 507.96H186.006V509.448H176.566V507.96ZM185.062 512.392C185.062 513.752 183.638 514.6 181.414 514.6C179.19 514.6 177.766 513.752 177.766 512.392C177.766 511.032 179.19 510.152 181.414 510.152C183.638 510.152 185.062 511.032 185.062 512.392ZM179.51 512.376C179.51 512.936 180.198 513.32 181.414 513.32C182.646 513.32 183.334 512.936 183.334 512.376C183.334 511.8 182.646 511.416 181.414 511.416C180.198 511.416 179.51 511.8 179.51 512.376ZM189.462 520.488H179.382V515.336H189.462V520.488ZM187.526 516.84H181.318V518.92H187.526V516.84ZM204.15 520.584V505.24H205.926V520.584H204.15ZM199.318 511.608H200.806V505.864H202.55V520.04H200.806V513.448H198.982C198.518 515.576 197.782 517.336 196.742 518.904L195.062 517.88C196.902 515.368 197.622 512.36 197.734 509.304V509.256H196.422V507.48H199.638C199.59 508.984 199.494 510.36 199.318 511.608ZM192.086 509.256V507.48H195.862C195.654 511.768 194.742 514.744 192.998 517.176L191.446 516.088C193.062 514.168 193.926 511.576 194.038 509.304V509.256H192.086ZM224.45 514.2H222.466V509.8H218.418V508.056H222.466V505.24H224.45V514.2ZM220.514 512.536L219.554 514.008L215.362 511.128C214.562 512.536 213.49 513.72 212.194 514.712L210.85 513.256C213.266 511.512 214.69 509.192 214.978 505.88L216.93 506.024C216.802 507.32 216.53 508.488 216.114 509.544L220.514 512.536ZM219.218 514.424C222.546 514.424 224.514 515.624 224.514 517.576C224.514 519.576 222.546 520.728 219.218 520.728C215.874 520.728 213.922 519.576 213.922 517.576C213.922 515.624 215.874 514.424 219.218 514.424ZM222.018 518.488C222.306 518.248 222.45 517.944 222.45 517.56C222.45 517.192 222.306 516.856 222.018 516.632C221.474 516.264 220.546 516.04 219.218 516.04C217.874 516.04 216.962 516.264 216.402 516.632C216.114 516.856 215.986 517.192 215.986 517.56C215.986 517.944 216.114 518.248 216.402 518.488C216.946 518.872 217.874 519.096 219.218 519.096C220.546 519.096 221.474 518.872 222.018 518.488ZM239.058 505.24V509.512H241.458V511.288H239.058V514.216H237.122V505.24H239.058ZM235.89 512.504L234.93 513.88L231.41 511.88C230.178 512.92 228.674 513.736 227.042 514.328L226.098 512.792C229.362 511.752 231.394 509.976 232.226 508.216V508.152H227.026V506.488H234.546C234.306 508.088 233.618 509.48 232.626 510.648L235.89 512.504ZM233.938 514.424C237.266 514.424 239.234 515.624 239.234 517.576C239.234 519.576 237.266 520.728 233.938 520.728C230.61 520.728 228.642 519.576 228.642 517.576C228.642 515.624 230.61 514.424 233.938 514.424ZM236.754 518.488C237.042 518.248 237.17 517.944 237.17 517.56C237.17 517.192 237.042 516.856 236.754 516.632C236.194 516.264 235.266 516.04 233.938 516.04C232.61 516.04 231.682 516.264 231.122 516.632C230.85 516.856 230.706 517.192 230.706 517.56C230.706 517.944 230.85 518.248 231.122 518.488C231.666 518.872 232.61 519.096 233.938 519.096C235.266 519.096 236.194 518.872 236.754 518.488ZM254.418 511.608H256.818V513.496H254.418V520.6H252.482V505.24H254.418V511.608ZM243.314 506.296H249.506V507.896H243.314V506.296ZM251.01 511.128H241.522V509.416H251.01V511.128ZM246.402 512.216C248.61 512.216 250.066 513.512 250.066 515.352C250.066 517.192 248.61 518.504 246.402 518.504C244.194 518.504 242.722 517.192 242.722 515.352C242.722 513.512 244.194 512.216 246.402 512.216ZM246.402 516.888C247.586 516.888 248.242 516.28 248.242 515.336C248.242 514.392 247.586 513.784 246.402 513.784C245.218 513.784 244.562 514.392 244.562 515.336C244.562 516.28 245.218 516.888 246.402 516.888ZM269.65 511.4H259.362V505.736H261.346V509.704H269.65V511.4ZM271.938 514.632H256.738V512.936H271.938V514.632ZM269.778 520.424H259.442V515.736H261.426V518.696H269.778V520.424ZM289.406 520.6H287.422V505.24H289.406V520.6ZM277.294 518.296L275.982 516.6C279.838 514.92 282.03 512.104 282.67 509.352V509.288H276.862V507.464H284.974C284.494 512.664 281.358 516.36 277.294 518.296ZM298.062 511.592H292.878V505.544H294.526V507.24H296.478V505.544H298.062V511.592ZM304.27 511.592H299.07V505.544H300.654V507.24H302.622V505.544H304.27V511.592ZM294.51 508.648V510.216H296.494V508.648H294.51ZM300.654 508.648V510.216H302.638V508.648H300.654ZM306.174 514.248H290.974V512.6H306.174V514.248ZM303.614 520.488H293.534V515.416H303.614V520.488ZM295.454 516.872V518.952H301.678V516.872H295.454ZM313.934 510.648C310.59 510.648 308.574 509.768 308.574 508.04C308.574 506.344 310.59 505.432 313.934 505.432C317.294 505.432 319.294 506.344 319.294 508.04C319.294 509.768 317.294 510.648 313.934 510.648ZM313.934 509.144C315.294 509.144 316.302 508.968 316.862 508.68C317.102 508.52 317.214 508.296 317.214 508.04C317.214 507.784 317.118 507.576 316.862 507.416C316.286 507.128 315.294 506.952 313.934 506.952C312.574 506.952 311.566 507.128 311.006 507.416C310.75 507.576 310.654 507.784 310.654 508.04C310.654 508.296 310.766 508.52 311.006 508.68C311.566 508.968 312.574 509.144 313.934 509.144ZM321.534 513.096H306.334V511.48H321.534V513.096ZM319.854 520.568H308.878V516.648H316.974V515.592H308.622V514.168H318.974V517.976H310.862V519.096H319.854V520.568ZM177.667 537.464H173.859C172.579 539.944 170.067 541.64 167.235 542.504L166.227 540.872C169.683 539.928 171.715 538.056 172.419 536.28V536.232H167.075V534.552H174.723C174.675 535.032 174.595 535.496 174.467 535.928H177.667V533.24H179.651V542.2H177.667V540.52H173.939V539H177.667V537.464ZM174.419 542.424C177.747 542.424 179.715 543.624 179.715 545.576C179.715 547.576 177.747 548.728 174.419 548.728C171.075 548.728 169.123 547.576 169.123 545.576C169.123 543.624 171.075 542.424 174.419 542.424ZM177.219 546.488C177.507 546.248 177.651 545.944 177.651 545.56C177.651 545.192 177.507 544.856 177.219 544.632C176.675 544.264 175.747 544.04 174.419 544.04C173.075 544.04 172.163 544.264 171.603 544.632C171.315 544.856 171.187 545.192 171.187 545.56C171.187 545.944 171.315 546.248 171.603 546.488C172.147 546.872 173.075 547.096 174.419 547.096C175.747 547.096 176.675 546.872 177.219 546.488ZM193.027 538.296V533.24H195.011V542.6H193.027V540.056H190.355V538.296H193.027ZM183.347 533.576H189.443V534.984H183.347V533.576ZM181.603 535.96H190.915V537.448H181.603V535.96ZM190.003 540.392C190.003 541.752 188.579 542.6 186.387 542.6C184.211 542.6 182.771 541.752 182.771 540.392C182.771 539.032 184.211 538.152 186.387 538.152C188.579 538.152 190.003 539.032 190.003 540.392ZM184.499 540.376C184.499 540.952 185.187 541.32 186.387 541.32C187.587 541.32 188.275 540.952 188.275 540.376C188.275 539.8 187.587 539.416 186.387 539.416C185.187 539.416 184.499 539.8 184.499 540.376ZM195.011 548.488H184.835V543.336H195.011V548.488ZM193.059 544.84H186.771V546.92H193.059V544.84ZM208.883 539.512V533.24H210.723V548.584H208.883V541.352H206.803V548.04H204.979V533.864H206.803V539.512H208.883ZM198.019 534.584H203.123V536.136H198.019V534.584ZM204.259 539.288H196.723V537.608H204.259V539.288ZM200.611 540.392C202.451 540.392 203.715 541.592 203.715 543.4C203.715 545.208 202.451 546.392 200.611 546.392C198.771 546.392 197.491 545.208 197.491 543.4C197.491 541.592 198.771 540.392 200.611 540.392ZM200.627 544.824C201.507 544.824 202.067 544.328 202.067 543.384C202.067 542.44 201.507 541.944 200.627 541.944C199.747 541.944 199.187 542.44 199.187 543.384C199.187 544.328 199.747 544.824 200.627 544.824ZM224.047 542.328V545.128H230.655V546.968H215.455V545.128H222.063V542.328H217.839V534.488H219.823V536.824H226.287V534.488H228.271V542.328H224.047ZM226.319 538.504H219.807L219.791 540.648H226.303L226.319 538.504ZM243.119 548.584V533.24H244.959V548.584H243.119ZM236.655 538.424H239.471V533.864H241.279V548.04H239.471V540.264H236.655V538.424ZM233.855 534.888L235.759 534.952C235.711 536.696 235.519 538.264 235.199 539.688L238.591 544.344L237.311 545.64L234.575 541.832C233.999 543.4 233.231 544.744 232.271 545.944L230.735 544.632C232.687 542.28 233.727 539.336 233.855 534.888ZM253.775 542.216C250.303 542.216 248.207 540.632 248.207 538.296C248.207 535.96 250.303 534.376 253.775 534.376C257.247 534.376 259.359 535.96 259.359 538.296C259.359 540.632 257.247 542.216 253.775 542.216ZM250.751 537.096C250.431 537.416 250.287 537.848 250.287 538.312C250.287 538.792 250.447 539.208 250.751 539.544C251.295 540.168 252.319 540.504 253.775 540.504C255.231 540.504 256.255 540.168 256.799 539.544C257.103 539.208 257.263 538.792 257.263 538.312C257.263 537.848 257.119 537.416 256.799 537.096C256.239 536.488 255.231 536.136 253.775 536.136C252.319 536.136 251.295 536.472 250.751 537.096ZM257.791 542.344V545.128H261.375V546.968H246.175V545.128H249.775V542.344H251.759V545.128H255.791V542.344H257.791ZM264.335 547.176C263.487 547.176 262.847 546.504 262.847 545.752C262.847 544.952 263.487 544.264 264.335 544.264C265.199 544.264 265.823 544.936 265.823 545.752C265.823 546.504 265.199 547.176 264.335 547.176Z" fill="#2B2B2B"/>
<path d="M295.414 53.256H290.09L298.45 84.848H303.598L309.406 61.88L315.214 84.848H320.406L328.678 53.256H323.398L317.81 76.224L312.178 53.256H306.634L301.046 76.224L295.414 53.256ZM266.115 80.052V84.848H287.103V53.256H266.423V58.052H281.955V66.06H267.479V70.856H281.955V80.052H266.115ZM241.394 80.052V84.848H261.194V53.256H256.046V80.052H241.394ZM217.358 73.056H212.21C213.046 81.064 217.93 85.508 225.102 85.508C234.166 85.508 239.226 78.996 239.226 69.052C239.226 59.152 233.77 52.596 225.102 52.596C218.502 52.596 213.486 56.292 212.65 62.936H217.754C218.414 58.976 220.966 57.304 225.102 57.304C231.35 57.304 234.078 62.364 234.078 69.052C234.078 76.092 231.526 80.8 225.102 80.8C220.526 80.8 218.062 78.248 217.358 73.056ZM186.002 69.052C186.002 61.792 189.39 57.348 194.978 57.348C200.566 57.348 203.954 61.792 203.954 69.052C203.954 76.312 200.566 80.756 194.978 80.756C189.39 80.756 186.002 76.312 186.002 69.052ZM180.81 69.052C180.81 79.612 187.058 85.508 194.978 85.508C202.898 85.508 209.146 79.612 209.146 69.052C209.146 58.492 202.898 52.596 194.978 52.596C187.058 52.596 180.81 58.492 180.81 69.052ZM146.457 53.256V84.848H151.517V62.408L159.129 84.848H163.529L171.141 62.364V84.848H176.201V53.256H169.557L161.329 77.456L153.101 53.256H146.457ZM119.634 80.052V84.848H140.622V53.256H119.942V58.052H135.474V66.06H120.998V70.856H135.474V80.052H119.634ZM106.793 80.712V86.564H112.689V80.712H106.793ZM106.969 52.772V65.312L107.981 78.292H111.413L112.513 65.312V52.772H106.969Z" fill="white"/>
</g>
<defs>
<clipPath id="clip0_2065_223">
<rect width="431" height="707" rx="20" fill="white"/>
</clipPath>
<clipPath id="clip1_2065_223">
<rect width="431" height="707" rx="20" transform="matrix(-1 0 0 1 431 0)" fill="white"/>
</clipPath>
</defs>
</svg>
