<svg width="659" height="992" viewBox="0 0 659 992" fill="none" xmlns="http://www.w3.org/2000/svg">
<rect width="659" height="992" rx="20" transform="matrix(-1 0 0 1 659 0)" fill="black"/>
<rect width="475" height="77" rx="38.5" transform="matrix(-1 0 0 1 567 860)" fill="white"/>
<circle cx="4" cy="4" r="4" transform="matrix(-1 0 0 1 470.5 895)" fill="black"/>
<path d="M424.512 900.736H417.208L420.86 889.692L424.512 900.736ZM415.624 905.532H426.096L428.868 913.848H434.412L423.324 882.256H418.396L407.308 913.848H412.852L415.624 905.532ZM385.435 904.432C385.435 901.352 387.459 899.812 391.683 899.812H399.075V909.052H391.683C387.767 909.052 385.435 907.732 385.435 904.432ZM386.579 891.012C386.579 888.46 388.119 887.052 391.683 887.052H399.075V894.972H391.683C387.943 894.972 386.579 893.564 386.579 891.012ZM380.287 904.916C380.287 911.032 384.159 913.848 391.683 913.848H404.223V882.256H391.683C385.567 882.256 381.431 884.412 381.431 890.44C381.431 893.564 382.531 895.852 385.039 897.348C382.179 898.404 380.287 900.692 380.287 904.916ZM353.999 898.052C353.999 890.792 357.387 886.348 362.975 886.348C368.563 886.348 371.951 890.792 371.951 898.052C371.951 905.312 368.563 909.756 362.975 909.756C357.387 909.756 353.999 905.312 353.999 898.052ZM348.807 898.052C348.807 908.612 355.055 914.508 362.975 914.508C370.895 914.508 377.143 908.612 377.143 898.052C377.143 887.492 370.895 881.596 362.975 881.596C355.055 881.596 348.807 887.492 348.807 898.052ZM320.438 882.256V901.836C320.438 909.756 324.002 914.508 332.362 914.508C340.722 914.508 344.286 909.756 344.286 901.836V882.256H339.138V901.352C339.138 907.688 336.322 909.756 332.362 909.756C328.402 909.756 325.586 907.688 325.586 901.352V882.256H320.438ZM294.167 882.256V887.052H303.319V913.848H308.467V887.052H317.619V882.256H294.167ZM254.91 882.256V901.836C254.91 909.756 258.474 914.508 266.834 914.508C275.194 914.508 278.758 909.756 278.758 901.836V882.256H273.61V901.352C273.61 907.688 270.794 909.756 266.834 909.756C262.874 909.756 260.058 907.688 260.058 901.352V882.256H254.91ZM226.967 905.576C226.967 910.944 231.015 914.508 238.627 914.508C245.183 914.508 250.771 911.384 250.771 903.332H245.579C245.579 908.172 242.455 909.844 238.055 909.844C234.579 909.844 232.159 908.48 232.159 905.708C232.159 903.464 233.435 901.836 237.219 900.648L242.455 899.02C245.667 898.008 249.803 896.028 249.803 890.44C249.803 885.336 245.887 881.596 239.287 881.596C232.863 881.596 227.979 885.248 227.979 891.54H233.171C233.171 887.8 235.635 886.216 239.243 886.216C242.631 886.216 244.611 887.756 244.611 890.396C244.611 892.596 243.511 893.52 241.223 894.268L235.327 896.16C229.519 898.008 226.967 900.384 226.967 905.576Z" fill="black"/>
<circle cx="4" cy="4" r="4" transform="matrix(-1 0 0 1 196.5 895)" fill="black"/>
<path d="M567 435.5C567 304.332 460.668 198 329.5 198C198.332 198 92 304.332 92 435.5V808C92 814.627 97.3726 820 104 820H555C561.627 820 567 814.627 567 808V435.5Z" fill="white"/>
<path d="M198.691 322.36L198.691 327.976L202.291 327.976L202.291 330.568L198.691 330.568L198.691 334.216L195.787 334.216L195.787 322.36L198.691 322.36ZM180.523 324.088L191.539 324.088L191.539 333.496L180.523 333.496L180.523 324.088ZM183.283 331.288L188.827 331.288L188.827 326.344L183.283 326.344L183.283 331.288ZM198.691 341.32L186.523 341.32L186.523 343.192L199.579 343.192L199.579 345.424L183.523 345.424L183.523 339.256L195.691 339.256L195.691 337.504L183.019 337.504L183.019 335.32L198.691 335.32L198.691 341.32ZM214.195 332.512L212.371 330.448C215.443 328.6 217.075 326.224 217.579 322.672L220.387 322.912C220.219 323.992 219.931 325 219.595 325.936L224.731 329.848L223.219 331.936L218.443 328.24C217.387 329.92 215.971 331.312 214.195 332.512ZM212.323 329.896L210.115 328.12C208.939 329.872 207.355 331.336 205.531 332.44L203.803 330.232C206.779 328.552 208.915 326.032 209.395 322.768L212.155 323.032C212.011 323.992 211.747 324.928 211.363 325.816L214.051 327.832L212.323 329.896ZM203.131 335.536L203.131 333.064L225.931 333.064L225.931 335.536L203.131 335.536ZM222.091 345.232L206.971 345.232L206.971 337.408L222.091 337.408L222.091 345.232ZM219.163 339.64L209.875 339.64L209.875 342.88L219.163 342.88L219.163 339.64ZM238.531 330.472C233.515 330.472 230.491 329.152 230.491 326.56C230.491 324.016 233.515 322.648 238.531 322.648C243.571 322.648 246.571 324.016 246.571 326.56C246.571 329.152 243.571 330.472 238.531 330.472ZM238.531 328.216C240.571 328.216 242.083 327.952 242.923 327.52C243.283 327.28 243.451 326.944 243.451 326.56C243.451 326.176 243.307 325.864 242.923 325.624C242.059 325.192 240.571 324.928 238.531 324.928C236.491 324.928 234.979 325.192 234.139 325.624C233.755 325.864 233.611 326.176 233.611 326.56C233.611 326.944 233.779 327.28 234.139 327.52C234.979 327.952 236.491 328.216 238.531 328.216ZM249.931 334.144L227.131 334.144L227.131 331.72L249.931 331.72L249.931 334.144ZM247.411 345.352L230.947 345.352L230.947 339.472L243.091 339.472L243.091 337.888L230.563 337.888L230.563 335.752L246.091 335.752L246.091 341.464L233.923 341.464L233.923 343.144L247.411 343.144L247.411 345.352ZM276.926 331.84L280.526 331.84L280.526 334.648L276.926 334.648L276.926 345.4L274.094 345.4L274.094 339.856C271.502 340.504 269.054 340.792 265.118 340.888L265.118 325.192L272.054 325.192L272.054 327.88L267.926 327.88L267.926 338.2C269.798 338.128 271.67 337.936 274.094 337.384L274.094 322.36L276.926 322.36L276.926 331.84ZM261.134 327.88L261.134 338.176C261.686 338.128 262.934 338.008 264.206 337.768L264.374 340.36C262.718 340.648 261.014 340.816 258.326 340.864L258.326 325.192L264.062 325.192L264.062 327.88L261.134 327.88ZM300.926 331.912L304.526 331.912L304.526 334.744L300.926 334.744L300.926 345.4L298.022 345.4L298.022 339.664C294.59 340.696 289.838 341.32 282.926 341.32L282.926 331.84L291.23 331.84L291.23 328.048L282.638 328.048L282.638 325.384L293.99 325.384L293.99 334.288L285.806 334.288L285.806 338.656C290.054 338.656 294.422 338.128 298.022 337.144L298.022 322.36L300.926 322.36L300.926 331.912ZM331.16 322.36L331.16 328.144L334.76 328.144L334.76 330.76L331.16 330.76L331.16 334.216L328.256 334.216L328.256 322.36L331.16 322.36ZM324.704 333.736L318.68 330.088C317.36 332.128 315.608 333.832 313.496 335.176L311.552 332.944C315.224 330.784 317.624 327.544 318.056 323.248L321.056 323.464C320.84 325.024 320.456 326.44 319.904 327.76L326.096 331.504L324.704 333.736ZM331.16 341.32L318.992 341.32L318.992 343.192L332.048 343.192L332.048 345.424L315.992 345.424L315.992 339.256L328.16 339.256L328.16 337.504L315.488 337.504L315.488 335.32L331.16 335.32L331.16 341.32ZM355.16 331.912L358.76 331.912L358.76 334.744L355.16 334.744L355.16 345.4L352.256 345.4L352.256 322.36L355.16 322.36L355.16 331.912ZM342.776 324.784C346.4 324.784 348.896 327.664 348.896 333.136C348.896 338.608 346.4 341.488 342.776 341.488C339.128 341.488 336.608 338.608 336.608 333.136C336.608 327.664 339.128 324.784 342.776 324.784ZM342.776 338.68C344.768 338.68 345.944 336.76 345.944 333.136C345.944 329.512 344.768 327.592 342.776 327.592C340.76 327.592 339.584 329.512 339.584 333.136C339.584 336.76 340.76 338.68 342.776 338.68ZM379.16 332.08L382.76 332.08L382.76 334.912L379.16 334.912L379.16 345.4L376.256 345.4L376.256 322.36L379.16 322.36L379.16 332.08ZM369.488 328.432L361.16 328.432L361.16 325.696L372.896 325.696C372.2 333.472 367.76 339.04 361.856 342.04L359.864 339.544C365.456 336.904 368.576 332.632 369.488 328.528L369.488 328.432ZM404.288 334.216L401.312 334.216L401.312 322.36L404.288 322.36L404.288 334.216ZM385.496 335.128L384.152 332.632C389.48 331.576 392.72 329.152 393.92 326.752L393.92 326.68L385.496 326.68L385.496 324.208L397.448 324.208C396.8 330.112 391.496 333.784 385.496 335.128ZM405.176 345.424L389 345.424L389 339.256L401.288 339.256L401.288 337.504L388.496 337.504L388.496 335.32L404.288 335.32L404.288 341.32L392 341.32L392 343.192L405.176 343.192L405.176 345.424ZM426.53 337.936L426.53 335.656L431.666 335.656L431.666 322.36L434.522 322.36L434.522 340.432L431.666 340.432L431.666 337.936L426.53 337.936ZM422.066 331.624C418.562 331.624 416.042 330.112 416.042 327.424C416.042 324.784 418.562 323.272 422.066 323.272C425.522 323.272 428.066 324.784 428.066 327.424C428.066 330.112 425.522 331.624 422.066 331.624ZM422.066 325.504C420.17 325.504 418.826 326.128 418.826 327.424C418.826 328.744 420.17 329.392 422.066 329.392C423.938 329.392 425.306 328.744 425.306 327.424C425.306 326.128 423.938 325.504 422.066 325.504ZM423.29 338.68L420.386 338.68L420.386 335.392C418.49 335.512 416.45 335.56 414.242 335.56L413.93 332.992C420.53 332.992 425.282 332.68 429.554 331.768L429.842 334.168C427.826 334.624 425.666 334.96 423.29 335.176L423.29 338.68ZM422.114 339.28L422.114 342.664L434.93 342.664L434.93 345.232L419.162 345.232L419.162 339.28L422.114 339.28ZM457.394 331.912L460.994 331.912L460.994 334.744L457.394 334.744L457.394 345.4L454.49 345.4L454.49 322.36L457.394 322.36L457.394 331.912ZM440.738 323.944L450.026 323.944L450.026 326.344L440.738 326.344L440.738 323.944ZM452.282 331.192L438.05 331.192L438.05 328.624L452.282 328.624L452.282 331.192ZM445.37 332.824C448.682 332.824 450.866 334.768 450.866 337.528C450.866 340.288 448.682 342.256 445.37 342.256C442.058 342.256 439.85 340.288 439.85 337.528C439.85 334.768 442.058 332.824 445.37 332.824ZM445.37 339.832C447.146 339.832 448.13 338.92 448.13 337.504C448.13 336.088 447.146 335.176 445.37 335.176C443.594 335.176 442.61 336.088 442.61 337.504C442.61 338.92 443.594 339.832 445.37 339.832ZM481.202 331.6L465.77 331.6L465.77 323.104L468.746 323.104L468.746 329.056L481.202 329.056L481.202 331.6ZM484.634 336.448L461.834 336.448L461.834 333.904L484.634 333.904L484.634 336.448ZM481.394 345.136L465.89 345.136L465.89 338.104L468.866 338.104L468.866 342.544L481.394 342.544L481.394 345.136ZM144.156 378.24L143.964 375.576L157.644 375.072C157.74 373.848 157.788 372.624 157.788 371.424L144.612 371.424L144.612 368.784L160.812 368.784C160.74 373.968 160.38 378.528 159.732 382.224L156.732 382.056C157.044 380.592 157.26 379.056 157.428 377.52L144.156 378.24ZM141.444 386.952L141.444 384.192L164.244 384.192L164.244 386.952L141.444 386.952ZM183.156 380.976L183.156 366.36L186.132 366.36L186.132 389.4L183.156 389.4L183.156 383.448C179.508 384.6 174.516 385.248 167.244 385.248L167.244 375.792L175.956 375.792L175.956 372.024L166.956 372.024L166.956 369.384L178.74 369.384L178.74 378.264L170.148 378.264L170.148 382.608C174.636 382.608 179.34 382.032 183.156 380.976ZM209.46 380.64L200.412 374.4C198.132 377.184 195.084 379.344 191.94 380.856L190.26 378.288C194.988 376.2 198.996 372.744 200.532 368.088L203.508 368.736C203.124 369.936 202.62 371.064 201.996 372.144L211.164 378.216L209.46 380.64ZM189.444 386.952L189.444 384.192L212.244 384.192L212.244 386.952L189.444 386.952ZM234.132 383.616L231.156 383.616L231.156 376.632L226.428 376.632L226.428 374.04L231.156 374.04L231.156 366.36L234.132 366.36L234.132 383.616ZM216.468 367.344L225.06 367.344L225.06 369.624L216.468 369.624L216.468 367.344ZM227.892 379.464L226.5 381.48L221.604 378.648C219.732 380.136 217.524 381.264 215.22 382.032L213.852 379.752C218.1 378.432 221.124 376.368 222.66 373.944L222.66 373.872L214.956 373.872L214.956 371.496L226.236 371.496C225.804 373.56 224.82 375.36 223.452 376.896L227.892 379.464ZM221.964 382.056L221.964 386.544L234.996 386.544L234.996 389.136L218.988 389.136L218.988 382.056L221.964 382.056ZM264.366 380.52L261.39 380.52L261.39 375.552L256.662 375.552L256.662 373.032L261.39 373.032L261.39 366.36L264.366 366.36L264.366 380.52ZM246.702 366.96L255.294 366.96L255.294 369.216L246.702 369.216L246.702 366.96ZM258.126 378.168L256.854 380.16L251.838 377.712C249.966 379.08 247.71 380.136 245.382 380.832L244.086 378.6C248.382 377.376 251.31 375.552 252.894 373.344L252.894 373.272L245.19 373.272L245.19 370.944L256.47 370.944C256.062 372.888 255.102 374.568 253.782 375.984L258.126 378.168ZM256.518 380.856C261.51 380.856 264.462 382.464 264.462 385.224C264.462 388.056 261.51 389.592 256.518 389.592C251.526 389.592 248.574 388.056 248.574 385.224C248.574 382.464 251.526 380.856 256.518 380.856ZM260.742 386.424C261.174 386.112 261.366 385.68 261.366 385.2C261.366 384.72 261.174 384.264 260.742 383.976C259.902 383.496 258.534 383.208 256.518 383.208C254.502 383.208 253.11 383.496 252.294 383.976C251.862 384.264 251.67 384.72 251.67 385.2C251.67 385.68 251.862 386.112 252.294 386.424C253.11 386.88 254.502 387.192 256.518 387.192C258.534 387.192 259.902 386.88 260.742 386.424ZM288.366 383.616L285.39 383.616L285.39 376.464L277.998 376.464L277.998 374.16L285.39 374.16L285.39 372.12L277.998 372.12L277.998 369.792L285.39 369.792L285.39 366.36L288.366 366.36L288.366 383.616ZM281.814 376.968L282.078 379.512C278.694 380.184 274.302 380.472 269.67 380.472L269.67 368.688L272.622 368.688L272.622 377.832C274.734 377.832 278.574 377.592 281.814 376.968ZM276.198 381.768L276.198 386.52L289.23 386.52L289.23 389.136L273.222 389.136L273.222 381.768L276.198 381.768ZM311.214 374.16L295.638 374.16L295.638 367.08L310.782 367.08L310.782 369.384L298.59 369.384L298.59 371.928L311.214 371.928L311.214 374.16ZM314.478 378.144L291.678 378.144L291.678 375.72L314.478 375.72L314.478 378.144ZM311.958 389.352L295.494 389.352L295.494 383.472L307.638 383.472L307.638 381.888L295.11 381.888L295.11 379.752L310.638 379.752L310.638 385.464L298.47 385.464L298.47 387.144L311.958 387.144L311.958 389.352ZM327.078 374.472C322.062 374.472 319.038 373.152 319.038 370.56C319.038 368.016 322.062 366.648 327.078 366.648C332.118 366.648 335.118 368.016 335.118 370.56C335.118 373.152 332.118 374.472 327.078 374.472ZM327.078 372.216C329.118 372.216 330.63 371.952 331.47 371.52C331.83 371.28 331.998 370.944 331.998 370.56C331.998 370.176 331.854 369.864 331.47 369.624C330.606 369.192 329.118 368.928 327.078 368.928C325.038 368.928 323.526 369.192 322.686 369.624C322.302 369.864 322.158 370.176 322.158 370.56C322.158 370.944 322.326 371.28 322.686 371.52C323.526 371.952 325.038 372.216 327.078 372.216ZM338.478 378.144L315.678 378.144L315.678 375.72L338.478 375.72L338.478 378.144ZM335.958 389.352L319.494 389.352L319.494 383.472L331.638 383.472L331.638 381.888L319.11 381.888L319.11 379.752L334.638 379.752L334.638 385.464L322.47 385.464L322.47 387.144L335.958 387.144L335.958 389.352ZM363.697 389.4L363.697 366.36L366.601 366.36L366.601 389.4L363.697 389.4ZM354.217 378.144C350.641 378.144 348.073 376.296 348.073 373.008C348.073 369.768 350.641 367.896 354.217 367.896C357.769 367.896 360.337 369.768 360.337 373.008C360.337 376.296 357.769 378.144 354.217 378.144ZM354.241 370.248C352.249 370.248 350.929 371.208 350.929 373.008C350.929 374.832 352.249 375.792 354.241 375.792C356.185 375.792 357.505 374.832 357.505 373.008C357.505 371.208 356.185 370.248 354.241 370.248ZM362.449 378.816L362.761 381.336C360.649 381.792 358.369 382.128 355.849 382.368L355.849 389.304L352.921 389.304L352.921 382.584C350.881 382.704 348.697 382.752 346.321 382.752L346.009 380.064C352.921 380.064 357.961 379.776 362.449 378.816ZM389.473 366.36L389.473 375.048L393.073 375.048L393.073 377.712L389.473 377.712L389.473 383.616L386.569 383.616L386.569 366.36L389.473 366.36ZM372.793 367.176L382.033 367.176L382.033 369.36L372.793 369.36L372.793 367.176ZM370.129 371.088L384.289 371.088L384.289 373.44L370.129 373.44L370.129 371.088ZM382.873 378.456C382.873 380.736 380.713 382.224 377.401 382.224C374.089 382.224 371.929 380.736 371.929 378.456C371.929 376.176 374.089 374.688 377.401 374.688C380.713 374.688 382.873 376.176 382.873 378.456ZM374.593 378.432C374.593 379.464 375.601 380.136 377.401 380.136C379.225 380.136 380.233 379.464 380.233 378.432C380.233 377.4 379.225 376.728 377.401 376.728C375.601 376.728 374.593 377.4 374.593 378.432ZM374.569 383.064L377.521 383.064L377.521 386.568L390.337 386.568L390.337 389.136L374.569 389.136L374.569 383.064ZM418.675 375.192L415.699 375.024C416.059 373.272 416.203 371.568 416.275 369.84L403.531 369.84L403.531 367.32L419.251 367.32C419.227 370.248 419.035 372.792 418.675 375.192ZM411.835 371.64L411.835 376.416L422.947 376.416L422.947 378.912L400.147 378.912L400.147 376.416L408.859 376.416L408.859 371.64L411.835 371.64ZM411.547 380.592C416.587 380.592 419.539 382.272 419.539 385.08C419.539 387.96 416.587 389.568 411.547 389.568C406.507 389.568 403.555 387.96 403.555 385.08C403.555 382.272 406.507 380.592 411.547 380.592ZM415.795 386.352C416.227 386.04 416.419 385.584 416.419 385.056C416.419 384.528 416.227 384.072 415.795 383.76C414.979 383.232 413.587 382.92 411.547 382.92C409.507 382.92 408.115 383.232 407.299 383.76C406.867 384.072 406.675 384.528 406.675 385.056C406.675 385.584 406.867 386.04 407.299 386.352C408.115 386.88 409.507 387.192 411.547 387.192C413.587 387.192 414.979 386.88 415.795 386.352ZM443.707 366.36L443.707 373.848L447.307 373.848L447.307 376.512L443.707 376.512L443.707 383.616L440.803 383.616L440.803 366.36L443.707 366.36ZM425.683 368.784L437.275 368.784C436.627 375.216 431.803 379.488 425.971 381.432L424.411 378.96C429.667 377.352 432.763 374.328 433.795 371.4L433.795 371.328L425.683 371.328L425.683 368.784ZM428.803 381.36L431.779 381.36L431.779 386.496L444.571 386.496L444.571 389.136L428.803 389.136L428.803 381.36ZM468.835 378.432L465.859 378.432L465.859 366.36L468.835 366.36L468.835 378.432ZM455.491 378.432C451.915 378.432 449.371 376.584 449.371 373.08C449.371 369.576 451.915 367.728 455.491 367.728C459.043 367.728 461.611 369.576 461.611 373.08C461.611 376.584 459.043 378.432 455.491 378.432ZM455.491 376.08C457.435 376.08 458.755 375.12 458.755 373.056C458.755 371.04 457.435 370.08 455.491 370.08C453.547 370.08 452.227 371.04 452.227 373.08C452.227 375.12 453.547 376.08 455.491 376.08ZM468.835 389.304L453.571 389.304L453.571 379.608L456.523 379.608L456.523 382.104L465.883 382.104L465.883 379.608L468.835 379.608L468.835 389.304ZM456.499 384.408L456.499 386.832L465.907 386.832L465.907 384.408L456.499 384.408ZM489.859 379.584L489.859 366.36L492.835 366.36L492.835 389.4L489.859 389.4L489.859 382.128C485.947 383.592 480.043 384.456 474.139 384.456L474.139 369.192L477.115 369.192L477.115 381.72C480.139 381.72 485.875 380.928 489.859 379.584ZM515.707 376.08L519.307 376.08L519.307 378.912L515.707 378.912L515.707 389.4L512.803 389.4L512.803 382.776C509.107 384.048 503.707 384.696 497.731 384.696L497.731 369.384L509.227 369.384L509.227 372.072L500.707 372.072L500.755 381.984C504.019 381.984 509.035 381.432 512.803 380.232L512.803 366.36L515.707 366.36L515.707 376.08ZM524.347 387.264C523.075 387.264 522.115 386.256 522.115 385.128C522.115 383.928 523.075 382.896 524.347 382.896C525.643 382.896 526.579 383.904 526.579 385.128C526.579 386.256 525.643 387.264 524.347 387.264ZM213.808 463.912L217.408 463.912L217.408 466.744L213.808 466.744L213.808 477.4L210.904 477.4L210.904 454.36L213.808 454.36L213.808 463.912ZM197.152 455.944L206.44 455.944L206.44 458.344L197.152 458.344L197.152 455.944ZM208.696 463.192L194.464 463.192L194.464 460.624L208.696 460.624L208.696 463.192ZM201.784 464.824C205.096 464.824 207.28 466.768 207.28 469.528C207.28 472.288 205.096 474.256 201.784 474.256C198.472 474.256 196.264 472.288 196.264 469.528C196.264 466.768 198.472 464.824 201.784 464.824ZM201.784 471.832C203.56 471.832 204.544 470.92 204.544 469.504C204.544 468.088 203.56 467.176 201.784 467.176C200.008 467.176 199.024 468.088 199.024 469.504C199.024 470.92 200.008 471.832 201.784 471.832ZM237.808 464.08L241.408 464.08L241.408 466.912L237.808 466.912L237.808 477.4L234.904 477.4L234.904 470.488C231.064 471.76 225.52 472.456 219.856 472.456L219.856 457.192L222.832 457.192L222.832 469.72C225.736 469.72 230.968 469.072 234.904 467.896L234.904 454.36L237.808 454.36L237.808 464.08ZM259.96 461.848L259.96 454.36L262.936 454.36L262.936 467.2L259.96 467.2L259.96 464.272C256.144 465.664 250.048 466.504 244.24 466.504L244.24 456.16L247.216 456.16L247.216 463.912C250.216 463.912 255.904 463.168 259.96 461.848ZM262.936 477.232L247.672 477.232L247.672 468.304L262.936 468.304L262.936 477.232ZM260.008 470.68L250.6 470.68L250.6 474.76L260.008 474.76L260.008 470.68ZM277.648 462.472C272.632 462.472 269.608 461.152 269.608 458.56C269.608 456.016 272.632 454.648 277.648 454.648C282.688 454.648 285.688 456.016 285.688 458.56C285.688 461.152 282.688 462.472 277.648 462.472ZM277.648 460.216C279.688 460.216 281.2 459.952 282.04 459.52C282.4 459.28 282.568 458.944 282.568 458.56C282.568 458.176 282.424 457.864 282.04 457.624C281.176 457.192 279.688 456.928 277.648 456.928C275.608 456.928 274.096 457.192 273.256 457.624C272.872 457.864 272.728 458.176 272.728 458.56C272.728 458.944 272.896 459.28 273.256 459.52C274.096 459.952 275.608 460.216 277.648 460.216ZM289.048 466.144L266.248 466.144L266.248 463.72L289.048 463.72L289.048 466.144ZM286.528 477.352L270.064 477.352L270.064 471.472L282.208 471.472L282.208 469.888L269.68 469.888L269.68 467.752L285.208 467.752L285.208 473.464L273.04 473.464L273.04 475.144L286.528 475.144L286.528 477.352ZM314.195 463.264L314.195 454.36L317.171 454.36L317.171 477.4L314.195 477.4L314.195 465.976L307.451 465.976L307.451 463.264L314.195 463.264ZM301.331 460.096L301.379 470.248C302.891 470.248 307.835 470.032 311.267 469.24L311.555 471.928C307.883 472.744 302.699 473.008 298.379 473.008L298.379 457.384L309.587 457.384L309.587 460.096L301.331 460.096ZM344.429 454.36L347.405 454.36L347.405 467.296L344.429 467.296L344.429 454.36ZM328.613 456.328L340.565 456.328C339.917 462.472 334.709 466.384 328.709 467.944L327.269 465.448C332.645 464.2 335.909 461.536 337.085 458.92L337.085 458.824L328.613 458.824L328.613 456.328ZM347.789 470.776L331.373 470.776L331.373 468.4L347.789 468.4L347.789 470.776ZM345.125 471.784L344.597 474.88L348.317 474.88L348.317 477.232L330.845 477.232L330.845 474.88L334.589 474.88L334.061 471.784L337.061 471.64L337.445 474.88L341.765 474.88L342.125 471.64L345.125 471.784ZM371.405 477.4L368.429 477.4L368.429 454.36L371.405 454.36L371.405 477.4ZM358.277 473.488C354.533 473.488 351.941 470.584 351.941 465.136C351.941 459.688 354.533 456.784 358.277 456.784C362.021 456.784 364.613 459.688 364.613 465.136C364.613 470.584 362.021 473.488 358.277 473.488ZM358.277 470.68C360.389 470.68 361.589 468.76 361.589 465.136C361.589 461.512 360.389 459.592 358.277 459.592C356.165 459.592 354.965 461.512 354.965 465.136C354.965 468.76 356.165 470.68 358.277 470.68ZM400.512 454.36L400.512 459.976L404.112 459.976L404.112 462.568L400.512 462.568L400.512 466.216L397.608 466.216L397.608 454.36L400.512 454.36ZM393.816 460.816C393.816 464.152 391.296 465.904 387.816 465.904C384.288 465.904 381.792 464.152 381.792 460.816C381.792 457.48 384.288 455.728 387.816 455.728C391.296 455.728 393.816 457.48 393.816 460.816ZM384.6 460.816C384.6 462.712 385.92 463.6 387.816 463.6C389.688 463.6 391.032 462.712 391.032 460.792C391.032 458.872 389.688 458.032 387.816 458.032C385.92 458.032 384.6 458.896 384.6 460.816ZM400.512 473.32L388.344 473.32L388.344 475.192L401.4 475.192L401.4 477.424L385.344 477.424L385.344 471.256L397.512 471.256L397.512 469.504L384.84 469.504L384.84 467.32L400.512 467.32L400.512 473.32ZM424.512 463.912L428.112 463.912L428.112 466.744L424.512 466.744L424.512 477.4L421.608 477.4L421.608 454.36L424.512 454.36L424.512 463.912ZM412.128 456.784C415.752 456.784 418.248 459.664 418.248 465.136C418.248 470.608 415.752 473.488 412.128 473.488C408.48 473.488 405.96 470.608 405.96 465.136C405.96 459.664 408.48 456.784 412.128 456.784ZM412.128 470.68C414.12 470.68 415.296 468.76 415.296 465.136C415.296 461.512 414.12 459.592 412.128 459.592C410.112 459.592 408.936 461.512 408.936 465.136C408.936 468.76 410.112 470.68 412.128 470.68ZM448.512 464.08L452.112 464.08L452.112 466.912L448.512 466.912L448.512 477.4L445.608 477.4L445.608 454.36L448.512 454.36L448.512 464.08ZM438.84 460.432L430.512 460.432L430.512 457.696L442.248 457.696C441.552 465.472 437.112 471.04 431.208 474.04L429.216 471.544C434.808 468.904 437.928 464.632 438.84 460.528L438.84 460.432ZM471.312 469.216L468.336 469.024C468.936 465.808 469.176 462.616 469.272 459.472L455.976 459.472L455.976 456.784L472.32 456.784C472.248 461.32 471.912 465.4 471.312 469.216ZM464.424 463.768L464.424 472.192L475.752 472.192L475.752 474.952L452.952 474.952L452.952 472.192L461.448 472.192L461.448 463.768L464.424 463.768ZM206.054 512.52L203.078 512.52L203.078 507.552L198.35 507.552L198.35 505.032L203.078 505.032L203.078 498.36L206.054 498.36L206.054 512.52ZM188.39 498.96L196.982 498.96L196.982 501.216L188.39 501.216L188.39 498.96ZM199.814 510.168L198.542 512.16L193.526 509.712C191.654 511.08 189.398 512.136 187.07 512.832L185.774 510.6C190.07 509.376 192.998 507.552 194.582 505.344L194.582 505.272L186.878 505.272L186.878 502.944L198.158 502.944C197.75 504.888 196.79 506.568 195.47 507.984L199.814 510.168ZM198.206 512.856C203.198 512.856 206.15 514.464 206.15 517.224C206.15 520.056 203.198 521.592 198.206 521.592C193.214 521.592 190.262 520.056 190.262 517.224C190.262 514.464 193.214 512.856 198.206 512.856ZM202.43 518.424C202.862 518.112 203.054 517.68 203.054 517.2C203.054 516.72 202.862 516.264 202.43 515.976C201.59 515.496 200.222 515.208 198.206 515.208C196.19 515.208 194.798 515.496 193.982 515.976C193.55 516.264 193.358 516.72 193.358 517.2C193.358 517.68 193.55 518.112 193.982 518.424C194.798 518.88 196.19 519.192 198.206 519.192C200.222 519.192 201.59 518.88 202.43 518.424ZM230.054 515.616L227.078 515.616L227.078 508.464L219.686 508.464L219.686 506.16L227.078 506.16L227.078 504.12L219.686 504.12L219.686 501.792L227.078 501.792L227.078 498.36L230.054 498.36L230.054 515.616ZM223.502 508.968L223.766 511.512C220.382 512.184 215.99 512.472 211.358 512.472L211.358 500.688L214.31 500.688L214.31 509.832C216.422 509.832 220.262 509.592 223.502 508.968ZM217.886 513.768L217.886 518.52L230.918 518.52L230.918 521.136L214.91 521.136L214.91 513.768L217.886 513.768ZM252.902 506.16L237.326 506.16L237.326 499.08L252.47 499.08L252.47 501.384L240.278 501.384L240.278 503.928L252.902 503.928L252.902 506.16ZM256.166 510.144L233.366 510.144L233.366 507.72L256.166 507.72L256.166 510.144ZM253.646 521.352L237.182 521.352L237.182 515.472L249.326 515.472L249.326 513.888L236.798 513.888L236.798 511.752L252.326 511.752L252.326 517.464L240.158 517.464L240.158 519.144L253.646 519.144L253.646 521.352ZM278.054 521.4L275.078 521.4L275.078 498.36L278.054 498.36L278.054 521.4ZM264.926 517.488C261.182 517.488 258.59 514.584 258.59 509.136C258.59 503.688 261.182 500.784 264.926 500.784C268.67 500.784 271.262 503.688 271.262 509.136C271.262 514.584 268.67 517.488 264.926 517.488ZM264.926 514.68C267.038 514.68 268.238 512.76 268.238 509.136C268.238 505.512 267.038 503.592 264.926 503.592C262.814 503.592 261.614 505.512 261.614 509.136C261.614 512.76 262.814 514.68 264.926 514.68ZM305.312 498.36L308.288 498.36L308.288 515.616L305.312 515.616L305.312 498.36ZM303.008 509.88L301.424 512.136L295.328 507.552C294.008 509.88 292.232 511.824 290.144 513.36L288.056 511.128C291.728 508.656 294.272 504.744 294.632 499.728L297.68 499.896C297.512 501.744 297.104 503.472 296.504 505.056L303.008 509.88ZM296.12 513.36L296.12 518.496L309.152 518.496L309.152 521.136L293.144 521.136L293.144 513.36L296.12 513.36ZM331.16 498.36L331.16 504.432L334.76 504.432L334.76 507.096L331.16 507.096L331.16 511.824L328.256 511.824L328.256 498.36L331.16 498.36ZM324.536 505.296C324.536 508.896 322.016 510.792 318.488 510.792C314.96 510.792 312.44 508.896 312.44 505.296C312.44 501.72 314.96 499.848 318.488 499.848C322.016 499.848 324.536 501.72 324.536 505.296ZM315.272 505.296C315.272 507.408 316.568 508.392 318.488 508.392C320.432 508.392 321.728 507.408 321.728 505.296C321.728 503.208 320.432 502.224 318.488 502.224C316.568 502.224 315.272 503.208 315.272 505.296ZM323.48 512.136C328.472 512.136 331.424 513.936 331.424 516.864C331.424 519.864 328.472 521.592 323.48 521.592C318.488 521.592 315.536 519.864 315.536 516.864C315.536 513.936 318.488 512.136 323.48 512.136ZM327.704 518.232C328.136 517.872 328.328 517.416 328.328 516.84C328.328 516.288 328.136 515.784 327.704 515.448C326.864 514.896 325.472 514.56 323.48 514.56C321.488 514.56 320.096 514.896 319.256 515.448C318.848 515.784 318.632 516.288 318.632 516.84C318.632 517.416 318.848 517.872 319.256 518.232C320.072 518.808 321.488 519.144 323.48 519.144C325.472 519.144 326.864 518.808 327.704 518.232ZM356.288 521.4L353.384 521.4L353.384 498.36L356.288 498.36L356.288 521.4ZM343.88 512.112C340.256 512.112 337.688 510.072 337.688 506.424C337.688 502.8 340.256 500.736 343.88 500.736C347.504 500.736 350.096 502.8 350.096 506.424C350.096 510.072 347.504 512.112 343.88 512.112ZM343.88 509.688C345.896 509.688 347.216 508.536 347.216 506.424C347.216 504.336 345.896 503.184 343.88 503.184C341.888 503.184 340.568 504.336 340.568 506.424C340.568 508.536 341.888 509.688 343.88 509.688ZM336.032 518.16L335.696 515.4C342.608 515.4 347.648 515.088 352.136 514.128L352.472 516.744C348.008 517.728 342.8 518.16 336.032 518.16ZM385.394 508.08L388.994 508.08L388.994 510.912L385.394 510.912L385.394 521.4L382.49 521.4L382.49 498.36L385.394 498.36L385.394 508.08ZM375.722 504.432L367.394 504.432L367.394 501.696L379.13 501.696C378.434 509.472 373.994 515.04 368.09 518.04L366.098 515.544C371.69 512.904 374.81 508.632 375.722 504.528L375.722 504.432ZM407.546 521.4L407.546 498.36L410.522 498.36L410.522 521.4L407.546 521.4ZM393.05 500.16L402.242 500.16L402.242 502.608L393.05 502.608L393.05 500.16ZM391.442 504.984L403.586 504.984C403.106 507.528 401.978 509.736 400.49 511.584L405.314 515.52L403.634 517.68L398.642 513.528C396.602 515.424 394.154 516.84 391.754 517.8L390.242 515.376C394.634 513.768 398.402 510.912 399.986 507.6L399.986 507.528L391.442 507.528L391.442 504.984ZM433.394 498.36L433.394 506.424L437.09 506.424L437.09 509.088L433.394 509.088L433.394 516.432L430.514 516.432L430.514 498.36L433.394 498.36ZM426.842 508.464L424.082 508.344C424.49 506.496 424.682 504.096 424.682 502.488L415.682 502.488L415.682 499.992L427.418 499.992C427.418 502.92 427.274 505.848 426.842 508.464ZM429.122 509.616L429.41 512.016C425.306 512.832 420.482 513.192 414.218 513.192L413.93 510.648C415.802 510.648 417.53 510.624 419.114 510.576L419.114 505.488L421.874 505.488L421.874 510.456C424.586 510.288 426.938 510.024 429.122 509.616ZM418.394 514.56L421.37 514.56L421.37 518.64L433.802 518.64L433.802 521.232L418.394 521.232L418.394 514.56ZM449.234 512.544C444.026 512.544 440.882 510.096 440.882 506.472C440.882 502.872 444.026 500.4 449.234 500.4C454.442 500.4 457.61 502.872 457.61 506.472C457.61 510.096 454.442 512.544 449.234 512.544ZM449.234 509.88C451.418 509.88 452.954 509.328 453.77 508.392C454.226 507.864 454.466 507.216 454.466 506.472C454.466 505.728 454.25 505.08 453.77 504.576C452.93 503.64 451.418 503.064 449.234 503.064C447.05 503.064 445.514 503.616 444.698 504.576C444.218 505.08 444.002 505.728 444.002 506.472C444.002 507.216 444.242 507.864 444.698 508.392C445.514 509.328 447.05 509.88 449.234 509.88ZM460.634 518.952L437.834 518.952L437.834 516.192L460.634 516.192L460.634 518.952ZM474.722 512.616L474.722 516.264L484.634 516.264L484.634 518.952L461.834 518.952L461.834 516.264L471.746 516.264L471.746 512.616L465.506 512.616L465.506 505.272L477.914 505.272L477.914 502.8L465.29 502.8L465.29 500.352L480.842 500.352L480.842 507.6L468.434 507.6L468.434 510.168L482.066 510.168L482.066 512.616L474.722 512.616ZM165.808 542.36L165.808 548.144L169.408 548.144L169.408 550.76L165.808 550.76L165.808 554.216L162.904 554.216L162.904 542.36L165.808 542.36ZM159.352 553.736L153.328 550.088C152.008 552.128 150.256 553.832 148.144 555.176L146.2 552.944C149.872 550.784 152.272 547.544 152.704 543.248L155.704 543.464C155.488 545.024 155.104 546.44 154.552 547.76L160.744 551.504L159.352 553.736ZM165.808 561.32L153.64 561.32L153.64 563.192L166.696 563.192L166.696 565.424L150.64 565.424L150.64 559.256L162.808 559.256L162.808 557.504L150.136 557.504L150.136 555.32L165.808 555.32L165.808 561.32ZM189.808 551.912L193.408 551.912L193.408 554.744L189.808 554.744L189.808 565.4L186.904 565.4L186.904 542.36L189.808 542.36L189.808 551.912ZM177.424 544.784C181.048 544.784 183.544 547.664 183.544 553.136C183.544 558.608 181.048 561.488 177.424 561.488C173.776 561.488 171.256 558.608 171.256 553.136C171.256 547.664 173.776 544.784 177.424 544.784ZM177.424 558.68C179.416 558.68 180.592 556.76 180.592 553.136C180.592 549.512 179.416 547.592 177.424 547.592C175.408 547.592 174.232 549.512 174.232 553.136C174.232 556.76 175.408 558.68 177.424 558.68ZM213.808 552.08L217.408 552.08L217.408 554.912L213.808 554.912L213.808 565.4L210.904 565.4L210.904 542.36L213.808 542.36L213.808 552.08ZM204.136 548.432L195.808 548.432L195.808 545.696L207.544 545.696C206.848 553.472 202.408 559.04 196.504 562.04L194.512 559.544C200.104 556.904 203.224 552.632 204.136 548.528L204.136 548.432ZM231.136 555.584L231.136 560.192L241.048 560.192L241.048 562.952L218.248 562.952L218.248 560.192L228.16 560.192L228.16 555.584L221.992 555.584L221.992 544.544L237.52 544.544L237.52 547.232L224.992 547.232L224.992 552.944L238.024 552.944L238.024 555.584L231.136 555.584ZM255.136 552.704L255.136 554.696L265.048 554.696L265.048 557.096L242.248 557.096L242.248 554.696L252.16 554.696L252.16 552.704L246.016 552.704L246.016 546.824L258.28 546.824L258.28 545.216L245.776 545.216L245.776 543.032L261.16 543.032L261.16 548.864L248.896 548.864L248.896 550.568L262.216 550.568L262.216 552.704L255.136 552.704ZM258.304 561.296L245.416 561.296L245.416 558.896L261.28 558.896L261.28 565.52L258.304 565.52L258.304 561.296ZM285.371 550.736L285.371 552.92L295.283 552.92L295.283 555.392L272.483 555.392L272.483 552.92L282.395 552.92L282.395 550.736L276.443 550.736L276.443 543.2L291.587 543.2L291.587 545.576L279.419 545.576L279.419 548.432L292.019 548.432L292.019 550.736L285.371 550.736ZM279.251 558.68L288.515 558.68L288.515 556.616L291.467 556.616L291.467 565.232L276.323 565.232L276.323 556.616L279.251 556.616L279.251 558.68ZM279.203 562.832L288.539 562.832L288.539 560.792L279.227 560.792L279.203 562.832ZM315.851 551.6L300.419 551.6L300.419 543.104L303.395 543.104L303.395 549.056L315.851 549.056L315.851 551.6ZM319.283 556.448L296.483 556.448L296.483 553.904L319.283 553.904L319.283 556.448ZM316.043 565.136L300.539 565.136L300.539 558.104L303.515 558.104L303.515 562.544L316.043 562.544L316.043 565.136ZM346.277 552.08L349.877 552.08L349.877 554.912L346.277 554.912L346.277 565.4L343.373 565.4L343.373 558.776C339.677 560.048 334.277 560.696 328.301 560.696L328.301 545.384L339.797 545.384L339.797 548.072L331.277 548.072L331.325 557.984C334.589 557.984 339.605 557.432 343.373 556.232L343.373 542.36L346.277 542.36L346.277 552.08ZM369.173 551.672L369.173 542.36L371.933 542.36L371.933 565.376L369.173 565.376L369.173 554.432L366.053 554.432L366.053 564.56L363.317 564.56L363.317 543.296L366.053 543.296L366.053 551.672L369.173 551.672ZM352.853 544.28L360.197 544.28L360.197 546.704L352.853 546.704L352.853 544.28ZM351.581 549.056L361.157 549.056C360.773 551.432 359.933 553.568 358.757 555.44L362.453 559.568L360.725 561.536L357.245 557.504C355.805 559.208 354.101 560.624 352.253 561.728L350.597 559.472C354.293 557.504 356.885 554.552 357.965 551.624L357.965 551.552L351.581 551.552L351.581 549.056ZM387.605 556.616L387.605 560.264L397.517 560.264L397.517 562.952L374.717 562.952L374.717 560.264L384.629 560.264L384.629 556.616L378.389 556.616L378.389 549.272L390.797 549.272L390.797 546.8L378.173 546.8L378.173 544.352L393.725 544.352L393.725 551.6L381.317 551.6L381.317 554.168L394.949 554.168L394.949 556.616L387.605 556.616ZM410.117 552.032C405.101 552.032 402.053 550.4 402.053 547.496C402.053 544.664 405.101 542.96 410.117 542.96C415.157 542.96 418.181 544.664 418.181 547.496C418.181 550.4 415.157 552.032 410.117 552.032ZM405.749 546.296C405.365 546.608 405.197 547.04 405.197 547.496C405.197 548 405.389 548.408 405.749 548.72C406.589 549.32 408.053 549.656 410.117 549.656C412.181 549.656 413.645 549.32 414.485 548.72C414.845 548.408 415.037 548 415.037 547.496C415.037 547.04 414.869 546.608 414.485 546.296C413.645 545.72 412.181 545.384 410.117 545.384C408.053 545.384 406.589 545.72 405.749 546.296ZM398.717 555.992L398.717 553.496L421.517 553.496L421.517 555.992L411.797 555.992L411.797 560.672L408.941 560.672L408.941 555.992L398.717 555.992ZM402.485 557.864L405.245 557.864L405.245 562.568L418.325 562.568L418.325 565.136L402.485 565.136L402.485 557.864ZM431.808 550.256L431.736 548L445.272 547.76C445.296 547.04 445.32 546.368 445.32 545.744L432.384 545.744L432.384 543.392L448.2 543.392C448.176 546.92 447.984 550.04 447.696 552.752L444.816 552.656C444.936 551.792 445.056 550.856 445.128 549.92L431.808 550.256ZM440.688 551L440.688 554.264L451.752 554.264L451.752 556.784L428.952 556.784L428.952 554.264L437.664 554.264L437.664 551L440.688 551ZM432.888 558.272L435.864 558.272L435.864 562.568L448.608 562.568L448.608 565.136L432.888 565.136L432.888 558.272ZM471.408 542.36L474.168 542.36L474.168 559.928L471.408 559.928L471.408 542.36ZM468.648 559.136L465.936 559.136L465.936 551.456L463.32 551.456L463.32 548.888L465.936 548.888L465.936 542.888L468.648 542.888L468.648 559.136ZM463.896 554.096L464.112 556.424C461.688 556.904 458.664 557.072 454.224 557.072L454.224 544.952L462.864 544.952L462.864 547.328L457.008 547.328L457.008 549.656L462.36 549.656L462.36 551.888L457.008 551.888L457.008 554.672C458.784 554.672 461.592 554.552 463.896 554.096ZM461.592 558.344L461.592 562.544L474.768 562.544L474.768 565.136L458.616 565.136L458.616 558.344L461.592 558.344ZM483.192 543.656L493.536 543.656L493.536 546.032L483.192 546.032L483.192 543.656ZM479.592 557.696L478.512 555.2C484.512 554.408 489.504 552.512 491.616 550.52L491.616 550.4L489.192 550.448L480.6 550.448L480.6 547.952L495.768 547.952C495.408 550.232 493.728 552.128 491.352 553.664L498.168 555.392L497.088 557.672L488.352 555.272C485.616 556.472 482.496 557.288 479.592 557.696ZM476.952 562.952L476.952 560.288L499.752 560.288L499.752 562.952L476.952 562.952ZM520.488 552.152L524.112 552.152L524.112 554.984L520.488 554.984L520.488 565.4L517.608 565.4L517.608 542.36L520.488 542.36L520.488 552.152ZM509.904 555.56L509.904 559.112C512.28 558.896 514.368 558.584 516.384 558.128L516.72 560.72C512.496 561.728 507.696 562.16 501.36 562.16L501.048 559.424C503.256 559.424 505.248 559.376 507.072 559.304L507.072 555.608C504.216 555.2 502.296 553.328 502.296 550.208C502.296 546.704 504.792 544.736 508.344 544.736C511.872 544.736 514.368 546.704 514.368 550.208C514.368 553.208 512.592 555.056 509.904 555.56ZM505.152 550.208C505.152 552.224 506.424 553.28 508.344 553.28C510.264 553.28 511.536 552.224 511.536 550.208C511.536 548.216 510.264 547.16 508.344 547.16C506.424 547.16 505.152 548.216 505.152 550.208ZM222.273 586.36L225.249 586.36L225.249 603.616L222.273 603.616L222.273 586.36ZM219.969 597.88L218.385 600.136L212.289 595.552C210.969 597.88 209.193 599.824 207.105 601.36L205.017 599.128C208.689 596.656 211.233 592.744 211.593 587.728L214.641 587.896C214.473 589.744 214.065 591.472 213.465 593.056L219.969 597.88ZM213.081 601.36L213.081 606.496L226.113 606.496L226.113 609.136L210.105 609.136L210.105 601.36L213.081 601.36ZM248.121 586.36L248.121 592.432L251.721 592.432L251.721 595.096L248.121 595.096L248.121 599.824L245.217 599.824L245.217 586.36L248.121 586.36ZM241.497 593.296C241.497 596.896 238.977 598.792 235.449 598.792C231.921 598.792 229.401 596.896 229.401 593.296C229.401 589.72 231.921 587.848 235.449 587.848C238.977 587.848 241.497 589.72 241.497 593.296ZM232.233 593.296C232.233 595.408 233.529 596.392 235.449 596.392C237.393 596.392 238.689 595.408 238.689 593.296C238.689 591.208 237.393 590.224 235.449 590.224C233.529 590.224 232.233 591.208 232.233 593.296ZM240.441 600.136C245.433 600.136 248.385 601.936 248.385 604.864C248.385 607.864 245.433 609.592 240.441 609.592C235.449 609.592 232.497 607.864 232.497 604.864C232.497 601.936 235.449 600.136 240.441 600.136ZM244.665 606.232C245.097 605.872 245.289 605.416 245.289 604.84C245.289 604.288 245.097 603.784 244.665 603.448C243.825 602.896 242.433 602.56 240.441 602.56C238.449 602.56 237.057 602.896 236.217 603.448C235.809 603.784 235.593 604.288 235.593 604.84C235.593 605.416 235.809 605.872 236.217 606.232C237.033 606.808 238.449 607.144 240.441 607.144C242.433 607.144 243.825 606.808 244.665 606.232ZM276.507 596.08L276.507 586.36L279.483 586.36L279.483 609.4L276.507 609.4L276.507 598.768L269.955 598.768C267.939 602.008 264.939 604.384 261.147 606.112L259.419 603.64C263.019 602.224 265.539 600.28 267.219 597.904L260.091 598.36L259.947 595.72L268.635 595.384C269.043 594.4 269.379 593.392 269.595 592.312L269.595 592.24L260.931 592.24L260.931 589.576L272.811 589.576C272.595 592.024 272.091 594.184 271.323 596.08L276.507 596.08ZM286.467 587.512L301.923 587.512L301.923 596.776L286.467 596.776L286.467 587.512ZM289.419 594.328L298.971 594.328L298.971 590.008L289.419 590.008L289.419 594.328ZM282.795 599.128L305.595 599.128L305.595 601.72L299.667 601.72L299.667 609.448L296.787 609.448L296.787 601.72L291.627 601.72L291.627 609.448L288.747 609.448L288.747 601.72L282.795 601.72L282.795 599.128ZM324.507 599.584L324.507 586.36L327.483 586.36L327.483 609.4L324.507 609.4L324.507 602.128C320.595 603.592 314.691 604.456 308.787 604.456L308.787 589.192L311.763 589.192L311.763 601.72C314.787 601.72 320.523 600.928 324.507 599.584ZM348.507 601.024L348.507 586.36L351.483 586.36L351.483 609.4L348.507 609.4L348.507 603.496C344.739 604.648 339.531 605.176 332.619 605.176L332.619 589.384L344.547 589.384L344.547 592L335.499 592L335.499 595.72L343.923 595.72L343.923 598.192L335.499 598.192L335.499 602.56C339.747 602.56 344.643 602.104 348.507 601.024ZM357.867 612.472L356.163 611.8C357.771 610.24 358.467 608.464 358.467 606.688C358.467 605.368 357.603 604.456 356.595 604.288C356.691 603.16 357.531 602.104 358.899 602.104C360.267 602.104 361.347 603.136 361.347 605.08C361.347 607.744 359.931 610.864 357.867 612.472ZM388.663 595.48L393.439 595.48L393.439 597.88L370.639 597.88L370.639 595.48L386.191 595.48C386.335 594.784 386.455 593.992 386.551 593.2L373.639 593.632L373.567 591.4L386.767 591.088C386.839 590.344 386.863 589.696 386.887 589.264L374.191 589.264L374.191 586.984L389.815 586.984C389.719 589.792 389.335 593.08 388.663 595.48ZM389.599 605.392L377.431 605.392L377.431 607.168L390.919 607.168L390.919 609.352L374.455 609.352L374.455 603.424L386.599 603.424L386.599 601.744L374.071 601.744L374.071 599.608L389.599 599.608L389.599 605.392ZM413.095 595.672L413.095 586.36L415.855 586.36L415.855 609.376L413.095 609.376L413.095 598.432L409.975 598.432L409.975 608.56L407.239 608.56L407.239 603.808C404.791 604.48 401.359 605.008 395.911 605.008L395.911 595.816L402.103 595.816L402.103 592.168L395.623 592.168L395.623 589.552L404.719 589.552L404.719 598.24L398.695 598.24L398.695 602.392C401.839 602.392 404.743 601.96 407.239 601.312L407.239 587.296L409.975 587.296L409.975 595.672L413.095 595.672ZM438.655 600.64L429.607 594.4C427.327 597.184 424.279 599.344 421.135 600.856L419.455 598.288C424.183 596.2 428.191 592.744 429.727 588.088L432.703 588.736C432.319 589.936 431.815 591.064 431.191 592.144L440.359 598.216L438.655 600.64ZM418.639 606.952L418.639 604.192L441.439 604.192L441.439 606.952L418.639 606.952ZM455.527 600.616L455.527 604.264L465.439 604.264L465.439 606.952L442.639 606.952L442.639 604.264L452.551 604.264L452.551 600.616L446.311 600.616L446.311 593.272L458.719 593.272L458.719 590.8L446.095 590.8L446.095 588.352L461.647 588.352L461.647 595.6L449.239 595.6L449.239 598.168L462.871 598.168L462.871 600.616L455.527 600.616ZM224.121 637.104L227.721 637.104L227.721 639.768L224.121 639.768L224.121 644.16L221.217 644.16L221.217 630.36L224.121 630.36L224.121 637.104ZM206.097 632.448L217.665 632.448C217.017 638.736 212.169 642.888 206.361 644.712L204.825 642.24C210.057 640.752 213.129 637.848 214.185 635.064L214.185 634.968L206.097 634.968L206.097 632.448ZM221.097 647.856L208.425 647.856L208.425 645.264L224.121 645.264L224.121 653.496L221.097 653.496L221.097 647.856ZM241.011 630.336L251.403 630.336L251.403 632.448L241.011 632.448L241.011 630.336ZM237.075 640.944L236.331 638.664C242.619 638.352 247.107 637.272 249.435 635.976L249.435 635.832L246.867 635.904L238.419 635.928L238.419 633.72L253.587 633.72C253.299 635.544 251.955 636.984 249.963 638.064L256.083 638.88L255.291 640.896L246.315 639.528C243.603 640.296 240.387 640.752 237.075 640.944ZM234.795 644.352L234.795 641.976L257.595 641.976L257.595 644.352L234.795 644.352ZM246.195 645.6C251.211 645.6 254.187 647.016 254.187 649.584C254.187 652.2 251.211 653.568 246.195 653.568C241.155 653.568 238.203 652.2 238.203 649.584C238.203 647.016 241.155 645.6 246.195 645.6ZM250.467 650.616C250.875 650.352 251.067 649.992 251.067 649.536C251.067 649.104 250.875 648.72 250.467 648.48C249.627 648.072 248.211 647.808 246.195 647.808C244.179 647.808 242.763 648.072 241.923 648.48C241.515 648.72 241.323 649.104 241.323 649.536C241.323 649.992 241.515 650.352 241.923 650.616C242.763 651.024 244.179 651.264 246.195 651.264C248.211 651.264 249.627 651.024 250.467 650.616ZM270.195 638.472C265.179 638.472 262.155 637.152 262.155 634.56C262.155 632.016 265.179 630.648 270.195 630.648C275.235 630.648 278.235 632.016 278.235 634.56C278.235 637.152 275.235 638.472 270.195 638.472ZM270.195 636.216C272.235 636.216 273.747 635.952 274.587 635.52C274.947 635.28 275.115 634.944 275.115 634.56C275.115 634.176 274.971 633.864 274.587 633.624C273.723 633.192 272.235 632.928 270.195 632.928C268.155 632.928 266.643 633.192 265.803 633.624C265.419 633.864 265.275 634.176 265.275 634.56C265.275 634.944 265.443 635.28 265.803 635.52C266.643 635.952 268.155 636.216 270.195 636.216ZM281.595 642.144L258.795 642.144L258.795 639.72L281.595 639.72L281.595 642.144ZM279.075 653.352L262.611 653.352L262.611 647.472L274.755 647.472L274.755 645.888L262.227 645.888L262.227 643.752L277.755 643.752L277.755 649.464L265.587 649.464L265.587 651.144L279.075 651.144L279.075 653.352ZM306.526 641.496L311.83 641.496L311.83 644.16L301.942 644.16L301.942 653.448L298.918 653.448L298.918 644.16L289.03 644.16L289.03 641.496L303.814 641.496C304.294 639.264 304.606 636.936 304.75 634.392L292.198 634.392L292.198 631.776L307.822 631.776C307.678 635.616 307.198 638.784 306.526 641.496ZM333.718 643.8L330.742 643.8L330.742 637.2L324.67 637.2L324.67 634.584L330.742 634.584L330.742 630.36L333.718 630.36L333.718 643.8ZM327.814 641.304L326.374 643.512L320.086 639.192C318.886 641.304 317.278 643.08 315.334 644.568L313.318 642.384C316.942 639.768 319.078 636.288 319.51 631.32L322.438 631.536C322.246 633.48 321.838 635.232 321.214 636.816L327.814 641.304ZM325.87 644.136C330.862 644.136 333.814 645.936 333.814 648.864C333.814 651.864 330.862 653.592 325.87 653.592C320.854 653.592 317.926 651.864 317.926 648.864C317.926 645.936 320.854 644.136 325.87 644.136ZM330.07 650.232C330.502 649.872 330.718 649.416 330.718 648.84C330.718 648.288 330.502 647.784 330.07 647.448C329.254 646.896 327.862 646.56 325.87 646.56C323.854 646.56 322.486 646.896 321.646 647.448C321.214 647.784 321.022 648.288 321.022 648.84C321.022 649.416 321.214 649.872 321.646 650.232C322.462 650.808 323.854 651.144 325.87 651.144C327.862 651.144 329.254 650.808 330.07 650.232ZM356.59 639.912L360.19 639.912L360.19 642.744L356.59 642.744L356.59 653.4L353.686 653.4L353.686 630.36L356.59 630.36L356.59 639.912ZM339.934 631.944L349.222 631.944L349.222 634.344L339.934 634.344L339.934 631.944ZM351.478 639.192L337.246 639.192L337.246 636.624L351.478 636.624L351.478 639.192ZM344.566 640.824C347.878 640.824 350.062 642.768 350.062 645.528C350.062 648.288 347.878 650.256 344.566 650.256C341.254 650.256 339.046 648.288 339.046 645.528C339.046 642.768 341.254 640.824 344.566 640.824ZM344.566 647.832C346.342 647.832 347.326 646.92 347.326 645.504C347.326 644.088 346.342 643.176 344.566 643.176C342.79 643.176 341.806 644.088 341.806 645.504C341.806 646.92 342.79 647.832 344.566 647.832ZM368.254 642.72C364.75 642.72 362.254 640.848 362.254 637.272C362.254 633.72 364.75 631.848 368.254 631.848C370.246 631.848 371.926 632.472 373.006 633.672L378.742 633.672L378.742 630.36L381.718 630.36L381.718 643.2L378.742 643.2L378.742 640.896L372.982 640.896C371.926 642.096 370.246 642.72 368.254 642.72ZM368.278 634.224C366.382 634.224 365.062 635.184 365.062 637.272C365.062 639.384 366.382 640.344 368.278 640.344C370.174 640.344 371.47 639.384 371.47 637.272C371.47 635.16 370.174 634.224 368.278 634.224ZM378.742 638.64L378.742 635.952L374.11 635.952C374.182 636.36 374.23 636.792 374.23 637.272C374.23 637.752 374.182 638.208 374.086 638.64L378.742 638.64ZM379.078 647.064L383.59 651.336L382.006 653.352L377.926 649.464C376.87 651.24 375.43 652.704 373.702 653.952L371.782 651.864C374.758 649.872 376.51 647.448 377.038 643.896L379.846 644.16C379.678 645.192 379.414 646.176 379.078 647.064ZM370.414 646.632L373.174 649.152L371.494 651.216L369.238 649.032C368.158 650.808 366.718 652.344 365.086 653.496L363.118 651.456C365.878 649.632 367.75 647.112 368.278 644.016L371.062 644.304C370.918 645.096 370.702 645.864 370.414 646.632ZM405.07 639.36L395.926 635.136C393.694 637.128 390.742 638.592 387.67 639.552L386.23 637.128C391.006 635.832 394.822 633.432 396.142 630.288L399.022 630.96C398.686 631.752 398.254 632.496 397.75 633.192L406.366 637.104L405.07 639.36ZM385.03 643.128L385.03 640.656L407.83 640.656L407.83 643.128L385.03 643.128ZM391.822 646.608L401.038 646.608L401.038 644.496L403.99 644.496L403.99 653.232L388.87 653.232L388.87 644.496L391.822 644.496L391.822 646.608ZM391.774 650.832L401.062 650.832L401.062 648.72L391.774 648.72L391.774 650.832ZM426.742 643.584L426.742 630.36L429.718 630.36L429.718 653.4L426.742 653.4L426.742 646.128C422.83 647.592 416.926 648.456 411.022 648.456L411.022 633.192L413.998 633.192L413.998 645.72C417.022 645.72 422.758 644.928 426.742 643.584ZM452.59 640.08L456.19 640.08L456.19 642.912L452.59 642.912L452.59 653.4L449.686 653.4L449.686 646.776C445.99 648.048 440.59 648.696 434.614 648.696L434.614 633.384L446.11 633.384L446.11 636.072L437.59 636.072L437.638 645.984C440.902 645.984 445.918 645.432 449.686 644.232L449.686 630.36L452.59 630.36L452.59 640.08ZM461.23 651.264C459.958 651.264 458.998 650.256 458.998 649.128C458.998 647.928 459.958 646.896 461.23 646.896C462.526 646.896 463.462 647.904 463.462 649.128C463.462 650.256 462.526 651.264 461.23 651.264ZM198.132 741.4L195.156 741.4L195.156 718.36L198.132 718.36L198.132 741.4ZM185.004 737.488C181.26 737.488 178.668 734.584 178.668 729.136C178.668 723.688 181.26 720.784 185.004 720.784C188.748 720.784 191.34 723.688 191.34 729.136C191.34 734.584 188.748 737.488 185.004 737.488ZM185.004 734.68C187.116 734.68 188.316 732.76 188.316 729.136C188.316 725.512 187.116 723.592 185.004 723.592C182.892 723.592 181.692 725.512 181.692 729.136C181.692 732.76 182.892 734.68 185.004 734.68ZM219.972 727.456L216.996 727.288C217.356 725.464 217.5 723.64 217.572 721.864L204.828 721.864L204.828 719.32L220.548 719.32C220.524 722.344 220.332 724.96 219.972 727.456ZM213.132 723.976L213.132 729.136L224.244 729.136L224.244 731.656L201.444 731.656L201.444 729.136L210.156 729.136L210.156 723.976L213.132 723.976ZM212.244 732.76L215.316 733.216C215.004 734.056 214.596 734.848 214.092 735.592L222.372 739.144L220.956 741.4L212.316 737.608C210.3 739.408 207.612 740.728 204.492 741.52L203.052 739.048C207.756 737.92 211.164 735.76 212.244 732.76ZM243.9 741.376L243.9 718.36L246.66 718.36L246.66 741.376L243.9 741.376ZM236.124 727.744L238.428 727.744L238.428 719.296L241.14 719.296L241.14 740.56L238.428 740.56L238.428 730.504L236.172 730.504C235.884 735.112 233.892 737.368 231.108 737.368C228.06 737.368 225.996 734.728 225.996 729.304C225.996 723.88 228.06 721.24 231.108 721.24C233.82 721.24 235.764 723.376 236.124 727.744ZM231.132 734.632C232.572 734.632 233.436 732.88 233.436 729.304C233.436 725.704 232.572 723.976 231.132 723.976C229.668 723.976 228.78 725.704 228.78 729.304C228.78 732.88 229.668 734.632 231.132 734.632ZM267.156 725.992L267.156 718.36L270.132 718.36L270.132 741.4L267.156 741.4L267.156 728.68L261.084 728.68L261.084 725.992L267.156 725.992ZM255.828 720.784L258.852 720.88C258.732 723.472 258.324 725.824 257.676 727.96L264.468 734.752L262.62 736.936L256.644 730.792C255.492 733.432 253.932 735.688 252.06 737.56L249.732 735.448C253.26 732.112 255.564 727.312 255.828 720.784ZM300.366 731.608L297.39 731.608L297.39 718.36L300.366 718.36L300.366 731.608ZM292.758 730.288L281.502 730.288L281.502 720.208L292.758 720.208L292.758 730.288ZM284.286 722.488L284.286 728.032L290.022 728.032L290.022 722.488L284.286 722.488ZM301.086 741.232L285.102 741.232L285.102 732.712L300.534 732.712L300.534 735.112L288.174 735.112L288.174 738.76L301.086 738.76L301.086 741.232ZM315.078 727.264C310.062 727.264 307.038 725.8 307.038 723.088C307.038 720.424 310.062 718.936 315.078 718.936C320.118 718.936 323.118 720.424 323.118 723.088C323.118 725.8 320.118 727.264 315.078 727.264ZM315.078 724.936C317.118 724.936 318.63 724.648 319.47 724.144C319.83 723.88 319.998 723.52 319.998 723.088C319.998 722.68 319.83 722.32 319.47 722.08C318.606 721.576 317.118 721.288 315.078 721.288C313.038 721.288 311.526 721.576 310.71 722.08C310.326 722.32 310.158 722.68 310.158 723.088C310.158 723.52 310.326 723.88 310.71 724.144C311.526 724.648 313.038 724.936 315.078 724.936ZM326.478 731.272L303.678 731.272L303.678 728.752L326.478 728.752L326.478 731.272ZM322.638 741.232L307.518 741.232L307.518 733.24L322.638 733.24L322.638 741.232ZM310.422 735.472L310.422 738.856L319.71 738.856L319.71 735.472L310.422 735.472ZM348.366 741.4L345.462 741.4L345.462 718.36L348.366 718.36L348.366 741.4ZM335.958 732.112C332.334 732.112 329.766 730.072 329.766 726.424C329.766 722.8 332.334 720.736 335.958 720.736C339.582 720.736 342.174 722.8 342.174 726.424C342.174 730.072 339.582 732.112 335.958 732.112ZM335.958 729.688C337.974 729.688 339.294 728.536 339.294 726.424C339.294 724.336 337.974 723.184 335.958 723.184C333.966 723.184 332.646 724.336 332.646 726.424C332.646 728.536 333.966 729.688 335.958 729.688ZM328.11 738.16L327.774 735.4C334.686 735.4 339.726 735.088 344.214 734.128L344.55 736.744C340.086 737.728 334.878 738.16 328.11 738.16ZM377.473 724.168L381.073 724.168L381.073 726.808L377.473 726.808L377.473 730.48L374.569 730.48L374.569 718.36L377.473 718.36L377.473 724.168ZM370.993 729.784L364.993 726.088C363.673 728.128 361.897 729.832 359.809 731.2L357.865 728.968C361.537 726.808 363.937 723.544 364.369 719.248L367.369 719.464C367.153 721.024 366.769 722.44 366.217 723.76L372.409 727.528L370.993 729.784ZM363.577 739.168L363.673 739.168C365.521 739.168 367.273 739.048 368.761 738.832L368.905 741.064C367.225 741.304 365.401 741.4 363.145 741.4L360.889 741.4L360.889 735.376L365.593 735.376L365.593 733.72L360.577 733.72L360.577 731.584L368.137 731.584L368.137 737.248L363.577 737.248L363.577 739.168ZM377.473 741.28L369.673 741.28L369.673 731.584L377.473 731.584L377.473 741.28ZM374.905 733.792L372.169 733.792L372.169 739L374.905 739L374.905 733.792ZM393.313 726.472C388.297 726.472 385.273 725.152 385.273 722.56C385.273 720.016 388.297 718.648 393.313 718.648C398.353 718.648 401.353 720.016 401.353 722.56C401.353 725.152 398.353 726.472 393.313 726.472ZM393.313 724.216C395.353 724.216 396.865 723.952 397.705 723.52C398.065 723.28 398.233 722.944 398.233 722.56C398.233 722.176 398.089 721.864 397.705 721.624C396.841 721.192 395.353 720.928 393.313 720.928C391.273 720.928 389.761 721.192 388.921 721.624C388.537 721.864 388.393 722.176 388.393 722.56C388.393 722.944 388.561 723.28 388.921 723.52C389.761 723.952 391.273 724.216 393.313 724.216ZM404.713 730.144L381.913 730.144L381.913 727.72L404.713 727.72L404.713 730.144ZM402.193 741.352L385.729 741.352L385.729 735.472L397.873 735.472L397.873 733.888L385.345 733.888L385.345 731.752L400.873 731.752L400.873 737.464L388.705 737.464L388.705 739.144L402.193 739.144L402.193 741.352ZM431.707 728.08L435.307 728.08L435.307 730.912L431.707 730.912L431.707 741.4L428.803 741.4L428.803 734.488C424.963 735.76 419.419 736.456 413.755 736.456L413.755 721.192L416.731 721.192L416.731 733.72C419.635 733.72 424.867 733.072 428.803 731.896L428.803 718.36L431.707 718.36L431.707 728.08ZM443.107 725.8L455.563 725.8L455.563 728.416L440.131 728.416L440.131 719.2L443.107 719.2L443.107 725.8ZM436.147 731.08L458.947 731.08L458.947 733.696L449.059 733.696L449.059 741.448L446.035 741.448L446.035 733.696L436.147 733.696L436.147 731.08ZM477.859 724.216L477.859 718.36L480.835 718.36L480.835 741.4L477.859 741.4L477.859 733.864L473.203 733.864L473.203 737.008L461.971 737.008L461.971 721.384L473.203 721.384L473.203 724.216L477.859 724.216ZM464.827 734.344L470.347 734.344L470.347 724.048L464.827 724.048L464.827 734.344ZM473.203 726.76L473.203 731.344L477.859 731.344L477.859 726.76L473.203 726.76ZM487.219 744.472L485.515 743.8C487.123 742.24 487.819 740.464 487.819 738.688C487.819 737.368 486.955 736.456 485.947 736.288C486.043 735.16 486.883 734.104 488.251 734.104C489.619 734.104 490.699 735.136 490.699 737.08C490.699 739.744 489.283 742.864 487.219 744.472ZM225.249 775.8L222.273 775.8L222.273 769.2L216.201 769.2L216.201 766.584L222.273 766.584L222.273 762.36L225.249 762.36L225.249 775.8ZM219.345 773.304L217.905 775.512L211.617 771.192C210.417 773.304 208.809 775.08 206.865 776.568L204.849 774.384C208.473 771.768 210.609 768.288 211.041 763.32L213.969 763.536C213.777 765.48 213.369 767.232 212.745 768.816L219.345 773.304ZM217.401 776.136C222.393 776.136 225.345 777.936 225.345 780.864C225.345 783.864 222.393 785.592 217.401 785.592C212.385 785.592 209.457 783.864 209.457 780.864C209.457 777.936 212.385 776.136 217.401 776.136ZM221.601 782.232C222.033 781.872 222.249 781.416 222.249 780.84C222.249 780.288 222.033 779.784 221.601 779.448C220.785 778.896 219.393 778.56 217.401 778.56C215.385 778.56 214.017 778.896 213.177 779.448C212.745 779.784 212.553 780.288 212.553 780.84C212.553 781.416 212.745 781.872 213.177 782.232C213.993 782.808 215.385 783.144 217.401 783.144C219.393 783.144 220.785 782.808 221.601 782.232ZM248.121 762.36L248.121 768.768L251.721 768.768L251.721 771.432L248.121 771.432L248.121 775.824L245.217 775.824L245.217 762.36L248.121 762.36ZM243.369 773.256L241.929 775.32L236.649 772.32C234.801 773.88 232.545 775.104 230.097 775.992L228.681 773.688C233.577 772.128 236.625 769.464 237.873 766.824L237.873 766.728L230.073 766.728L230.073 764.232L241.353 764.232C240.993 766.632 239.961 768.72 238.473 770.472L243.369 773.256ZM240.441 776.136C245.433 776.136 248.385 777.936 248.385 780.864C248.385 783.864 245.433 785.592 240.441 785.592C235.449 785.592 232.497 783.864 232.497 780.864C232.497 777.936 235.449 776.136 240.441 776.136ZM244.665 782.232C245.097 781.872 245.289 781.416 245.289 780.84C245.289 780.288 245.097 779.784 244.665 779.448C243.825 778.896 242.433 778.56 240.441 778.56C238.449 778.56 237.057 778.896 236.217 779.448C235.809 779.784 235.593 780.288 235.593 780.84C235.593 781.416 235.809 781.872 236.217 782.232C237.033 782.808 238.449 783.144 240.441 783.144C242.433 783.144 243.825 782.808 244.665 782.232ZM273.249 785.4L270.345 785.4L270.345 762.36L273.249 762.36L273.249 785.4ZM260.841 776.112C257.217 776.112 254.649 774.072 254.649 770.424C254.649 766.8 257.217 764.736 260.841 764.736C264.465 764.736 267.057 766.8 267.057 770.424C267.057 774.072 264.465 776.112 260.841 776.112ZM260.841 773.688C262.857 773.688 264.177 772.536 264.177 770.424C264.177 768.336 262.857 767.184 260.841 767.184C258.849 767.184 257.529 768.336 257.529 770.424C257.529 772.536 258.849 773.688 260.841 773.688ZM252.993 782.16L252.657 779.4C259.569 779.4 264.609 779.088 269.097 778.128L269.433 780.744C264.969 781.728 259.761 782.16 252.993 782.16ZM300.507 768.696L294.795 768.696C292.875 772.416 289.107 774.96 284.859 776.256L283.347 773.808C288.531 772.392 291.579 769.584 292.635 766.92L292.635 766.848L284.619 766.848L284.619 764.328L296.091 764.328C296.019 765.048 295.899 765.744 295.707 766.392L300.507 766.392L300.507 762.36L303.483 762.36L303.483 775.8L300.507 775.8L300.507 773.28L294.915 773.28L294.915 771L300.507 771L300.507 768.696ZM295.635 776.136C300.627 776.136 303.579 777.936 303.579 780.864C303.579 783.864 300.627 785.592 295.635 785.592C290.619 785.592 287.691 783.864 287.691 780.864C287.691 777.936 290.619 776.136 295.635 776.136ZM299.835 782.232C300.267 781.872 300.483 781.416 300.483 780.84C300.483 780.288 300.267 779.784 299.835 779.448C299.019 778.896 297.627 778.56 295.635 778.56C293.619 778.56 292.251 778.896 291.411 779.448C290.979 779.784 290.787 780.288 290.787 780.84C290.787 781.416 290.979 781.872 291.411 782.232C292.227 782.808 293.619 783.144 295.635 783.144C297.627 783.144 299.019 782.808 299.835 782.232ZM324.507 769.944L324.507 762.36L327.483 762.36L327.483 776.4L324.507 776.4L324.507 772.584L320.499 772.584L320.499 769.944L324.507 769.944ZM309.987 762.864L319.131 762.864L319.131 764.976L309.987 764.976L309.987 762.864ZM307.371 766.44L321.339 766.44L321.339 768.672L307.371 768.672L307.371 766.44ZM319.971 773.088C319.971 775.128 317.835 776.4 314.547 776.4C311.283 776.4 309.123 775.128 309.123 773.088C309.123 771.048 311.283 769.728 314.547 769.728C317.835 769.728 319.971 771.048 319.971 773.088ZM311.715 773.064C311.715 773.928 312.747 774.48 314.547 774.48C316.347 774.48 317.379 773.928 317.379 773.064C317.379 772.2 316.347 771.624 314.547 771.624C312.747 771.624 311.715 772.2 311.715 773.064ZM327.483 785.232L312.219 785.232L312.219 777.504L327.483 777.504L327.483 785.232ZM324.555 779.76L315.123 779.76L315.123 782.88L324.555 782.88L324.555 779.76ZM342.195 770.472C337.179 770.472 334.155 769.152 334.155 766.56C334.155 764.016 337.179 762.648 342.195 762.648C347.235 762.648 350.235 764.016 350.235 766.56C350.235 769.152 347.235 770.472 342.195 770.472ZM342.195 768.216C344.235 768.216 345.747 767.952 346.587 767.52C346.947 767.28 347.115 766.944 347.115 766.56C347.115 766.176 346.971 765.864 346.587 765.624C345.723 765.192 344.235 764.928 342.195 764.928C340.155 764.928 338.643 765.192 337.803 765.624C337.419 765.864 337.275 766.176 337.275 766.56C337.275 766.944 337.443 767.28 337.803 767.52C338.643 767.952 340.155 768.216 342.195 768.216ZM353.595 774.144L330.795 774.144L330.795 771.72L353.595 771.72L353.595 774.144ZM351.075 785.352L334.611 785.352L334.611 779.472L346.755 779.472L346.755 777.888L334.227 777.888L334.227 775.752L349.755 775.752L349.755 781.464L337.587 781.464L337.587 783.144L351.075 783.144L351.075 785.352ZM380.59 769.92L384.19 769.92L384.19 772.584L380.59 772.584L380.59 776.4L377.686 776.4L377.686 762.36L380.59 762.36L380.59 769.92ZM363.91 762.864L373.15 762.864L373.15 764.976L363.91 764.976L363.91 762.864ZM361.246 766.44L375.406 766.44L375.406 768.672L361.246 768.672L361.246 766.44ZM373.99 773.088C373.99 775.128 371.854 776.4 368.518 776.4C365.182 776.4 363.046 775.128 363.046 773.088C363.046 771.048 365.182 769.728 368.518 769.728C371.854 769.728 373.99 771.048 373.99 773.088ZM365.662 773.064C365.662 773.904 366.694 774.48 368.518 774.48C370.366 774.48 371.398 773.904 371.398 773.064C371.398 772.2 370.366 771.624 368.518 771.624C366.694 771.624 365.662 772.2 365.662 773.064ZM380.59 785.232L365.47 785.232L365.47 777.504L380.59 777.504L380.59 785.232ZM377.686 779.76L368.374 779.76L368.374 782.88L377.686 782.88L377.686 779.76ZM403.582 785.376L403.582 762.36L406.246 762.36L406.246 785.376L403.582 785.376ZM396.334 771.912L398.566 771.912L398.566 763.296L401.182 763.296L401.182 784.56L398.566 784.56L398.566 774.672L395.83 774.672C395.134 777.864 394.03 780.504 392.47 782.856L389.95 781.32C392.71 777.552 393.79 773.04 393.958 768.456L393.958 768.384L391.99 768.384L391.99 765.72L396.814 765.72C396.742 767.976 396.598 770.04 396.334 771.912ZM385.486 768.384L385.486 765.72L391.15 765.72C390.838 772.152 389.47 776.616 386.854 780.264L384.526 778.632C386.95 775.752 388.246 771.864 388.414 768.456L388.414 768.384L385.486 768.384ZM427.486 771.768L427.486 762.36L430.246 762.36L430.246 785.376L427.486 785.376L427.486 774.528L424.366 774.528L424.366 784.56L421.63 784.56L421.63 763.296L424.366 763.296L424.366 771.768L427.486 771.768ZM411.19 764.376L418.846 764.376L418.846 766.704L411.19 766.704L411.19 764.376ZM420.55 771.432L409.246 771.432L409.246 768.912L420.55 768.912L420.55 771.432ZM415.078 773.088C417.838 773.088 419.734 774.888 419.734 777.6C419.734 780.312 417.838 782.088 415.078 782.088C412.318 782.088 410.398 780.312 410.398 777.6C410.398 774.888 412.318 773.088 415.078 773.088ZM415.102 779.736C416.422 779.736 417.262 778.992 417.262 777.576C417.262 776.16 416.422 775.416 415.102 775.416C413.782 775.416 412.942 776.16 412.942 777.576C412.942 778.992 413.782 779.736 415.102 779.736ZM444.43 775.824C439.222 775.824 436.078 773.448 436.078 769.944C436.078 766.44 439.222 764.064 444.43 764.064C449.638 764.064 452.806 766.44 452.806 769.944C452.806 773.448 449.638 775.824 444.43 775.824ZM439.894 768.144C439.414 768.624 439.198 769.272 439.198 769.968C439.198 770.688 439.438 771.312 439.894 771.816C440.71 772.752 442.246 773.256 444.43 773.256C446.614 773.256 448.15 772.752 448.966 771.816C449.422 771.312 449.662 770.688 449.662 769.968C449.662 769.272 449.446 768.624 448.966 768.144C448.126 767.232 446.614 766.704 444.43 766.704C442.246 766.704 440.71 767.208 439.894 768.144ZM450.454 776.016L450.454 780.192L455.83 780.192L455.83 782.952L433.03 782.952L433.03 780.192L438.43 780.192L438.43 776.016L441.406 776.016L441.406 780.192L447.454 780.192L447.454 776.016L450.454 776.016ZM461.23 783.264C459.958 783.264 458.998 782.256 458.998 781.128C458.998 779.928 459.958 778.896 461.23 778.896C462.526 778.896 463.462 779.904 463.462 781.128C463.462 782.256 462.526 783.264 461.23 783.264Z" fill="#020202"/>
<path d="M459.768 103.328H451.056L464.736 155.024H473.16L482.664 117.44L492.168 155.024H500.664L514.2 103.328H505.56L496.416 140.912L487.2 103.328H478.128L468.984 140.912L459.768 103.328ZM411.824 147.176V155.024H446.168V103.328H412.328V111.176H437.744V124.28H414.056V132.128H437.744V147.176H411.824ZM371.371 147.176V155.024H403.771V103.328H395.347V147.176H371.371ZM332.04 135.728H323.616C324.984 148.832 332.976 156.104 344.712 156.104C359.544 156.104 367.824 145.448 367.824 129.176C367.824 112.976 358.896 102.248 344.712 102.248C333.912 102.248 325.704 108.296 324.336 119.168H332.688C333.768 112.688 337.944 109.952 344.712 109.952C354.936 109.952 359.4 118.232 359.4 129.176C359.4 140.696 355.224 148.4 344.712 148.4C337.224 148.4 333.192 144.224 332.04 135.728ZM280.731 129.176C280.731 117.296 286.275 110.024 295.419 110.024C304.563 110.024 310.107 117.296 310.107 129.176C310.107 141.056 304.563 148.328 295.419 148.328C286.275 148.328 280.731 141.056 280.731 129.176ZM272.235 129.176C272.235 146.456 282.459 156.104 295.419 156.104C308.379 156.104 318.603 146.456 318.603 129.176C318.603 111.896 308.379 102.248 295.419 102.248C282.459 102.248 272.235 111.896 272.235 129.176ZM216.021 103.328V155.024H224.301V118.304L236.757 155.024H243.957L256.413 118.232V155.024H264.693V103.328H253.821L240.357 142.928L226.893 103.328H216.021ZM172.129 147.176V155.024H206.473V103.328H172.633V111.176H198.049V124.28H174.361V132.128H198.049V147.176H172.129ZM151.116 148.256V157.832H160.764V148.256H151.116ZM151.404 102.536V123.056L153.06 144.296H158.676L160.476 123.056V102.536H151.404Z" fill="white"/>
</svg>
