<svg width="364" height="496" viewBox="0 0 364 496" fill="none" xmlns="http://www.w3.org/2000/svg">
<g clip-path="url(#clip0_2065_385)">
<path d="M188.588 42.2631C188.154 41.4234 188.144 40.3521 188.55 39.0685C188.704 38.5666 188.839 38.1902 188.946 37.9296C189.293 37.0803 189.728 36.2889 190.249 35.5747C190.76 34.8509 191.32 34.2622 191.928 33.7989C192.44 33.4225 192.865 33.0171 193.203 32.5828C193.541 32.1485 193.83 31.637 194.072 31.0483C194.255 30.614 194.438 30.0156 194.622 29.2435C194.718 28.8767 194.824 28.5582 194.94 28.2976C195.491 26.9658 196.475 25.5181 197.904 23.9642C199.333 22.4103 201.128 20.9627 203.31 19.6501C204.555 18.9166 205.858 18.4533 207.2 18.2506C208.552 18.0576 209.807 18.2024 210.984 18.6849C212.973 19.5053 214.324 20.6056 215.039 21.9953C215.753 23.3755 215.888 24.9293 215.425 26.6569C214.971 28.4328 214.71 30.0156 214.662 31.3764C214.604 32.7469 214.73 34.2235 215.019 35.7967C215.299 37.2927 215.27 39.0589 214.942 41.0953C214.614 43.1317 214.073 44.9655 213.32 46.5965C212.442 48.4785 211.544 49.7815 210.627 50.5053C209.72 51.2292 208.696 51.4029 207.567 51.0458C207.432 51.0168 207.229 50.9396 206.968 50.8334C205.858 50.3702 205.009 49.7139 204.439 48.8453C203.86 47.9767 203.744 47.0212 204.082 45.9595C204.439 44.7821 204.603 43.8266 204.555 43.1028C204.507 42.3789 204.285 41.8191 203.899 41.4138C203.503 41.0084 202.933 40.6513 202.19 40.3425C199.815 39.358 198.184 39.8889 197.315 41.9253C196.794 43.1124 195.954 43.9424 194.796 44.4057C193.627 44.8689 192.315 44.8014 190.857 44.1933C189.785 43.7494 189.042 43.1124 188.608 42.2631H188.588ZM206.476 34.156C206.688 34.0498 206.833 33.8858 206.93 33.6734C207.026 33.4321 207.046 33.1426 206.978 32.8145C206.901 32.245 206.901 31.6563 206.978 31.029C207.046 30.4016 207.181 29.8419 207.393 29.34C207.635 28.7513 207.76 28.3073 207.77 27.9985C207.779 27.6896 207.635 27.4773 207.326 27.3518C206.775 27.1298 206.138 27.2843 205.405 27.8247C204.449 28.5775 203.667 29.6971 203.059 31.1834C202.856 31.666 202.789 32.0617 202.846 32.3801C202.904 32.6986 203.078 32.9785 203.358 33.2295C203.677 33.5094 204.053 33.7506 204.488 33.9244C204.903 34.0981 205.347 34.2042 205.81 34.2428C206.051 34.2911 206.273 34.2622 206.476 34.156Z" fill="#C7C7AC"/>
<path d="M224.557 59.8381C223.428 59.2011 222.221 58.3807 220.947 57.3674C220.213 56.7979 219.46 56.2961 218.697 55.8618C217.829 55.3792 217.008 55.0124 216.226 54.7615C215.821 54.6167 215.464 54.4527 215.155 54.2789C213.996 53.6323 213.263 52.7347 212.954 51.5862C212.635 50.4377 212.828 49.2313 213.533 47.9766C213.851 47.3976 214.305 46.8281 214.865 46.2491C217.394 43.6625 219.537 40.8154 221.285 37.7076C222.453 35.623 223.273 33.6831 223.746 31.859C223.881 31.2799 224.103 30.7201 224.412 30.1603C225.098 28.9443 226.034 28.1335 227.221 27.7185C228.418 27.3035 229.635 27.4387 230.87 28.1336C231.363 28.4134 231.778 28.7126 232.116 29.0311C233.245 30.0638 234.278 30.8552 235.224 31.386C236.045 31.8493 237.116 32.2836 238.429 32.6986C239.047 32.9109 239.549 33.1233 239.935 33.3453C241.045 33.9726 241.933 34.8026 242.59 35.8449C243.246 36.8873 243.613 38.0261 243.68 39.2615C243.748 40.4969 243.458 41.684 242.812 42.8325C241.943 44.3767 240.958 45.3901 239.838 45.8534C238.719 46.3263 237.386 46.3649 235.842 45.9885C235.485 45.9016 235.243 45.9788 235.099 46.2201C235.031 46.3456 235.031 46.4903 235.099 46.6448C235.176 46.8088 235.321 46.944 235.562 47.0501C236.576 47.5134 237.406 48.2372 238.062 49.2217C238.709 50.2061 239.056 51.3449 239.085 52.6382C239.124 53.9315 238.767 55.2344 238.033 56.5567C237.715 57.1357 237.3 57.7148 236.807 58.3035C235.562 59.7512 234.432 60.726 233.419 61.2375C232.405 61.7491 231.363 61.9324 230.31 61.7877C229.258 61.6429 227.859 61.2472 226.111 60.5909C225.619 60.3979 225.098 60.1469 224.547 59.8381H224.557ZM229.673 52.6382C230.359 52.5031 230.89 52.0977 231.266 51.4222C231.739 50.5825 231.672 49.6946 231.054 48.768C230.436 47.8415 229.48 47.0115 228.177 46.2877C227.434 45.8727 226.816 45.7086 226.324 45.7954C225.831 45.8823 225.397 46.1912 225.02 46.7123C224.712 47.108 224.461 47.4844 224.267 47.8319C223.814 48.6329 223.688 49.3182 223.881 49.8876C224.074 50.457 224.605 50.9879 225.474 51.4704C225.889 51.702 226.362 51.924 226.884 52.1364C228.052 52.5996 228.988 52.7733 229.664 52.6382H229.673ZM233.979 39.7055C234.172 39.358 234.191 38.943 234.017 38.4701C233.853 37.9972 233.496 37.5532 232.965 37.1479C232.637 36.8583 232.425 36.6846 232.328 36.6267C232.019 36.453 231.749 36.4144 231.517 36.5205C231.285 36.6171 231.034 36.8294 230.783 37.1479C230.648 37.3409 230.513 37.5339 230.378 37.727C230.31 37.8524 230.166 38.1806 229.953 38.7017C229.751 39.2615 229.953 39.7151 230.571 40.0626C230.899 40.2459 231.285 40.3618 231.71 40.4197C232.878 40.5548 233.631 40.3232 233.979 39.7055Z" fill="#C7C7AC"/>
<path d="M258.643 46.2684C259.531 46.8957 260.497 47.3879 261.539 47.7547C261.916 47.8802 262.34 48.1021 262.804 48.4303C263.808 49.1348 264.416 50.0517 264.638 51.1809C264.86 52.3005 264.58 53.4104 263.798 54.5106C262.997 55.6495 262.196 56.3637 261.394 56.6532C260.593 56.9427 259.782 56.798 258.952 56.2092C258.527 55.9101 258.122 55.524 257.736 55.0511C257.687 54.9932 257.61 54.916 257.494 54.8388C257.263 54.6747 257.021 54.6457 256.77 54.7615C256.519 54.8774 256.268 55.0993 256.027 55.4468C255.911 55.6495 255.795 55.8618 255.68 56.0645C254.762 57.9368 253.807 59.5775 252.793 61.0059C251.76 62.4729 250.563 63.8531 249.212 65.156L248.806 65.6096C248.507 66.0343 248.497 66.3431 248.787 66.5554C248.922 66.652 249.125 66.7099 249.405 66.7292C249.781 66.7678 250.11 66.8836 250.38 67.067C250.998 67.5013 251.336 68.1962 251.403 69.1516C251.461 70.1071 251.181 71.0529 250.544 71.9891C249.723 73.1473 248.855 73.8422 247.918 74.0835C246.982 74.3247 246.036 74.1028 245.07 73.4175C244.549 73.0508 244.028 72.5586 243.516 71.9312C242.937 71.2363 242.368 70.6862 241.808 70.2905C241.132 69.8176 240.157 69.3543 238.873 68.92C238.004 68.5919 237.3 68.2444 236.759 67.8584C235.755 67.1538 235.137 66.3045 234.905 65.3201C234.674 64.3356 234.963 63.274 235.765 62.1351C236.489 61.1121 237.348 60.5041 238.352 60.3207C239.356 60.1277 240.234 60.3014 240.977 60.8322C241.402 61.1314 241.711 61.4982 241.904 61.9132C242.078 62.2027 242.329 62.1158 242.667 61.6333C242.937 61.2472 243.227 60.7164 243.536 60.0312C243.941 59.1336 244.617 58.0044 245.572 56.6532C246.673 55.0897 248.005 53.4104 249.559 51.6249C249.685 51.4801 249.849 51.2774 250.042 51.0072C250.447 50.4281 250.496 50.0324 250.196 49.8104L249.868 49.6657C249.656 49.5981 249.453 49.5016 249.26 49.3665C248.816 49.048 248.488 48.5944 248.256 47.9863C248.034 47.3783 247.976 46.7027 248.092 45.9402C248.208 45.1874 248.526 44.4346 249.038 43.7011C249.704 42.7553 250.515 42.128 251.471 41.8191C252.426 41.5103 253.363 41.684 254.289 42.3403C254.54 42.514 254.772 42.7264 254.984 42.958C256.394 44.4443 257.61 45.5445 258.633 46.2684H258.643Z" fill="#C7C7AC"/>
<path d="M253.227 79.5461C252.117 78.5906 251.499 77.4807 251.374 76.2261C251.248 74.9714 251.673 73.7746 252.668 72.6358C253.034 72.2111 253.556 71.7478 254.231 71.2749C255.815 70.1747 257.33 68.7849 258.788 67.1152C260.371 65.3008 262.06 62.8879 263.885 59.9057C264.194 59.3652 264.628 58.7861 265.169 58.1588C266.472 56.6629 267.891 55.7363 269.435 55.3889C270.98 55.0414 272.37 55.3985 273.615 56.4891C274.098 56.9041 274.532 57.4253 274.928 58.0526C275.922 59.6065 276.888 60.784 277.815 61.5947C278.046 61.7973 278.442 62.1158 279.012 62.5405C281.251 64.2102 282.091 66.6616 281.531 69.9044C280.971 73.1473 279.494 76.7762 277.11 80.7718C276.511 81.7466 275.913 82.5766 275.324 83.2619C273.866 84.9412 272.225 86.1476 270.41 86.9004C268.596 87.6532 266.771 87.8945 264.966 87.6339C263.151 87.3733 261.539 86.6302 260.11 85.3851C259.579 84.9219 259.039 84.3331 258.508 83.619C258.064 83.0495 257.581 82.538 257.069 82.0844C256.374 81.4764 255.621 80.9841 254.801 80.5884C254.135 80.2313 253.623 79.8936 253.247 79.5654L253.227 79.5461ZM262.678 77.9536C263.894 79.0056 265.111 79.5075 266.346 79.4496C267.582 79.3917 268.596 78.9188 269.387 78.0019C269.928 77.3746 270.275 76.6507 270.439 75.8207C270.652 74.7494 270.941 73.8711 271.318 73.1859C271.694 72.5006 272.264 71.6996 273.017 70.7924C273.461 70.2422 273.567 69.557 273.326 68.7366C273.084 67.9163 272.486 67.0959 271.55 66.2756C270.961 65.764 270.488 65.4745 270.13 65.3973C269.773 65.3201 269.435 65.4745 269.107 65.8412C268.847 66.1404 268.615 66.4975 268.431 66.8932C267.196 69.3543 266.192 71.0433 265.4 71.9505C264.985 72.4331 264.503 72.8384 263.952 73.1859C263.296 73.5526 262.746 73.9869 262.311 74.4792C261.848 75.01 261.607 75.5408 261.597 76.062C261.587 76.5831 261.761 77.0271 262.118 77.4035C262.244 77.5483 262.437 77.722 262.688 77.944L262.678 77.9536Z" fill="#C7C7AC"/>
<path d="M297.537 90.4231C296.571 90.3555 295.596 89.7957 294.612 88.7437C294.1 88.1936 293.54 87.4505 292.932 86.5336C292.729 86.2055 292.507 85.9256 292.285 85.6843C291.918 85.2886 291.552 85.1149 291.204 85.1728C290.847 85.2307 290.412 85.4913 289.901 85.9738C289.119 86.6977 289.08 87.4312 289.775 88.1743C290.084 88.5025 290.499 88.8306 291.021 89.1491C291.581 89.5062 292.092 89.9405 292.575 90.4617C293.463 91.4172 293.946 92.4112 294.023 93.4439C294.1 94.4863 293.695 95.4224 292.797 96.2621C290.692 98.2213 288.704 98.202 286.831 96.2042C286.561 95.9147 286.281 95.5576 285.991 95.1426C285.325 94.1871 284.852 93.5597 284.582 93.2606C284.147 92.7973 283.723 92.556 283.308 92.5367C282.892 92.5174 282.371 92.7394 281.753 93.1833C281.638 93.2606 281.483 93.386 281.29 93.5694C280.894 93.9361 280.634 94.3029 280.527 94.6696C280.412 95.0364 280.489 95.3549 280.74 95.6348C280.885 95.7892 281.126 95.9822 281.464 96.1946C281.802 96.4069 282.178 96.6482 282.603 96.8991C283.115 97.1693 283.8 97.5747 284.669 98.1248C285.238 98.4916 285.692 98.8583 286.03 99.2251C286.831 100.094 287.256 101.03 287.285 102.053C287.314 103.076 286.841 104.041 285.856 104.958C284.717 106.02 283.674 106.56 282.728 106.589C281.782 106.618 280.856 106.135 279.939 105.151C279.523 104.697 279.079 104.128 278.626 103.423C278.124 102.603 277.554 101.86 276.927 101.184C275.961 100.152 274.697 99.1575 273.143 98.2213C272.322 97.7291 271.656 97.1983 271.144 96.6482C270.391 95.8375 269.909 94.9688 269.706 94.0423C269.503 93.1158 269.552 92.2182 269.841 91.3496C270.131 90.481 270.633 89.7185 271.337 89.0622C272.187 88.2708 273.22 87.74 274.455 87.4698C275.093 87.296 275.614 87.0162 276.019 86.6494C276.396 86.2923 276.763 85.7808 277.1 85.1052C277.332 84.6323 277.805 84.0629 278.51 83.3969C279.079 82.8661 279.717 82.3642 280.421 81.8817C281.126 81.4087 281.744 81.042 282.294 80.7911C283.076 80.4147 283.645 80.0672 284.012 79.7198C284.34 79.4109 284.611 79.0538 284.814 78.6292C285.016 78.2142 285.209 77.6447 285.383 76.9305C285.634 75.9558 286.126 75.1258 286.85 74.4502C287.459 73.8904 288.154 73.5043 288.945 73.3017C289.737 73.099 290.538 73.099 291.339 73.321C292.14 73.5429 292.855 73.9869 293.482 74.6625C293.839 75.0389 294.158 75.4925 294.438 76.004C295.345 77.7027 296.262 79.0538 297.179 80.0383C297.855 80.7621 298.57 81.3605 299.323 81.8141C299.979 82.2388 300.491 82.6538 300.857 83.0495C301.774 84.0339 302.19 85.0666 302.103 86.1475C302.016 87.2285 301.514 88.1936 300.597 89.0526C299.545 90.037 298.531 90.4906 297.566 90.4231H297.537Z" fill="#C7C7AC"/>
<path d="M316.167 103.105C316.805 103.983 317.567 104.765 318.436 105.441C318.755 105.682 319.083 106.02 319.411 106.483C320.135 107.477 320.415 108.539 320.26 109.677C320.106 110.807 319.488 111.772 318.397 112.563C317.268 113.384 316.283 113.799 315.434 113.818C314.584 113.837 313.86 113.432 313.262 112.611C312.953 112.187 312.692 111.695 312.48 111.116C312.461 111.048 312.403 110.951 312.316 110.836C312.152 110.604 311.93 110.507 311.65 110.527C311.37 110.546 311.07 110.691 310.723 110.942C310.549 111.096 310.366 111.26 310.192 111.415C308.725 112.891 307.286 114.146 305.867 115.169C304.419 116.221 302.846 117.148 301.147 117.949L300.616 118.248C300.201 118.557 300.095 118.846 300.297 119.136C300.394 119.271 300.568 119.387 300.828 119.502C301.176 119.657 301.446 119.869 301.639 120.139C302.083 120.748 302.18 121.52 301.938 122.446C301.687 123.373 301.118 124.174 300.21 124.859C299.062 125.689 298.009 126.075 297.054 125.998C296.088 125.921 295.268 125.409 294.573 124.454C294.196 123.942 293.868 123.305 293.579 122.543C293.26 121.693 292.893 120.998 292.488 120.448C292.005 119.782 291.223 119.03 290.152 118.2C289.428 117.611 288.877 117.051 288.491 116.52C287.767 115.526 287.458 114.522 287.555 113.519C287.651 112.515 288.269 111.598 289.399 110.778C290.412 110.044 291.426 109.745 292.43 109.89C293.434 110.035 294.216 110.479 294.756 111.222C295.065 111.637 295.239 112.081 295.278 112.544C295.345 112.872 295.615 112.872 296.088 112.525C296.475 112.245 296.919 111.839 297.421 111.289C298.096 110.565 299.1 109.716 300.432 108.751C301.977 107.622 303.772 106.464 305.829 105.267C305.993 105.17 306.215 105.035 306.475 104.833C307.045 104.418 307.228 104.051 307.006 103.752L306.736 103.51C306.553 103.375 306.389 103.221 306.253 103.028C305.935 102.584 305.761 102.043 305.751 101.406C305.732 100.76 305.906 100.103 306.253 99.4181C306.601 98.7329 307.142 98.1345 307.875 97.6037C308.812 96.9184 309.777 96.5903 310.781 96.5999C311.785 96.6192 312.625 97.0825 313.291 97.9994C313.474 98.2503 313.619 98.5205 313.744 98.8101C314.604 100.673 315.395 102.101 316.129 103.115L316.167 103.105Z" fill="#C7C7AC"/>
<path d="M327.259 117.871C328.003 119.155 328.379 120.342 328.398 121.433C328.408 122.514 328.051 123.672 327.308 124.888C325.792 127.32 323.919 129.482 321.68 131.374C320.782 132.136 320.135 132.841 319.739 133.497C319.343 134.153 319.237 134.645 319.421 134.964C319.537 135.167 319.759 135.273 320.087 135.273C320.56 135.302 321.506 134.906 322.915 134.086C324.383 133.236 325.888 132.223 327.414 131.036C327.867 130.688 328.311 130.389 328.746 130.148C331.487 128.565 333.621 129.096 335.146 131.731C335.899 133.043 336.063 134.182 335.619 135.157C335.175 136.132 334.383 136.952 333.235 137.618C332.395 138.101 331.536 138.448 330.648 138.66C327.539 139.423 324.807 140.475 322.462 141.836C321.071 142.637 319.469 143.766 317.664 145.223C316.978 145.783 316.322 146.246 315.685 146.613C314.15 147.501 312.789 147.839 311.602 147.617C310.414 147.404 309.294 146.729 308.252 145.58C307.972 145.281 307.711 144.924 307.47 144.519C306.9 143.534 306.659 142.521 306.727 141.469C306.804 140.417 307.103 139.413 307.634 138.448C308.319 137.174 309.41 135.668 310.897 133.902C312.383 132.136 313.764 130.679 315.028 129.511C315.492 129.077 315.608 128.671 315.386 128.285C315.299 128.14 315.135 127.996 314.884 127.841C314.478 127.61 313.909 127.706 313.175 128.131C312.77 128.372 312.171 128.797 311.379 129.414C310.578 130.061 309.941 130.611 309.458 131.055C308.194 132.165 307.113 133.034 306.225 133.661C305.076 134.462 303.908 134.723 302.72 134.462C301.533 134.192 300.529 133.352 299.709 131.943C299.062 130.814 298.936 129.743 299.332 128.7C299.728 127.667 300.462 126.837 301.523 126.229C302.074 125.911 302.72 125.679 303.454 125.525C305.452 125.158 308.02 124.077 311.148 122.263C313.687 120.796 316.129 119.107 318.494 117.196C319.112 116.704 319.652 116.318 320.125 116.047C321.516 115.246 322.78 114.928 323.929 115.092C325.078 115.256 326.033 115.941 326.806 117.128L327.259 117.842V117.871Z" fill="#C7C7AC"/>
<path d="M347.464 163.609C347.029 164.574 346.286 165.269 345.234 165.703C344.558 165.983 343.776 166.157 342.888 166.234C342 166.311 341.189 166.157 340.436 165.761C339.683 165.365 339.152 164.757 338.824 163.947C338.477 163.097 338.409 162.074 338.612 160.897C338.718 160.347 338.66 159.797 338.438 159.247C338.139 158.503 337.646 157.944 336.971 157.567C336.295 157.191 335.639 157.133 335.001 157.394C334.741 157.5 334.48 157.683 334.229 157.934C332.993 159.276 331.777 160.192 330.599 160.675C329.721 161.032 328.871 161.148 328.032 161.032C327.568 160.965 327.153 161.003 326.786 161.158C326.323 161.341 325.985 161.669 325.753 162.132C325.522 162.596 325.435 163.059 325.493 163.522C325.56 164.005 325.657 164.4 325.782 164.7C326.12 165.53 326.757 166.224 327.703 166.784C328.688 167.383 329.345 168.097 329.682 168.927C329.982 169.67 330.011 170.413 329.769 171.166C329.528 171.919 329.074 172.565 328.398 173.115C327.877 173.53 327.375 173.839 326.902 174.032C325.541 174.582 324.18 174.496 322.819 173.762C321.448 173.029 320.222 171.726 319.122 169.853C318.62 168.985 318.195 168.135 317.857 167.305C317.133 165.53 316.853 163.783 317.017 162.045C317.181 160.308 317.876 158.417 319.102 156.361C319.691 155.357 320.821 154.286 322.5 153.157C324.18 152.027 326.033 151.053 328.041 150.232C330.339 149.296 332.376 148.746 334.142 148.592C337.473 148.312 340.127 148.852 342.116 150.223C344.105 151.593 345.572 153.465 346.537 155.82C347.001 156.959 347.358 158.214 347.609 159.594C347.947 161.293 347.889 162.625 347.454 163.59L347.464 163.609Z" fill="#C7C7AC"/>
<path d="M352.329 177.208C351.634 178.173 350.292 178.935 348.323 179.495C347.415 179.756 346.749 179.997 346.344 180.238C345.929 180.479 345.678 180.788 345.581 181.174C345.485 181.56 345.523 182.091 345.716 182.776C345.909 183.462 346.151 183.964 346.44 184.282C346.73 184.601 347.135 184.794 347.666 184.851C348.197 184.909 348.921 184.823 349.838 184.591C351.808 184.108 353.401 184.099 354.598 184.572C355.795 185.044 356.586 186.116 356.963 187.805C357.358 189.561 357.3 190.961 356.789 192.013C356.277 193.065 355.37 193.779 354.076 194.136C352.966 194.455 351.547 194.503 349.819 194.31C349.153 194.223 348.149 194.261 346.788 194.406C345.427 194.551 344.027 194.841 342.569 195.246C339.5 196.115 337.057 197.369 335.242 199.01C334.75 199.444 334.161 199.753 333.486 199.946C332.414 200.245 331.352 200.197 330.281 199.801C329.209 199.406 328.379 198.634 327.79 197.504C327.549 197.08 327.346 196.587 327.192 196.018C326.854 194.812 326.902 193.673 327.336 192.611C327.771 191.54 328.572 190.681 329.74 190.034C330.416 189.648 331.468 189.252 332.906 188.847C333.273 188.741 334.248 188.509 335.831 188.133L336.903 187.872C337.472 187.708 337.83 187.428 337.994 187.033C338.148 186.637 338.129 186.068 337.916 185.344C337.598 184.205 337.26 183.471 336.922 183.124C336.575 182.776 336.092 182.67 335.465 182.796C335.252 182.834 334.963 182.902 334.605 182.998C334.036 183.162 333.466 183.365 332.887 183.616C332.308 183.867 331.767 184.108 331.275 184.35C330.107 184.919 329.248 185.286 328.678 185.45C327.336 185.826 326.188 185.691 325.232 185.044C324.276 184.398 323.552 183.191 323.06 181.445C322.529 179.582 322.568 178.182 323.156 177.237C323.745 176.3 324.884 175.586 326.574 175.113C327.819 174.756 328.939 174.573 329.914 174.554C330.889 174.534 332.124 174.602 333.611 174.747C334.663 174.843 335.783 174.718 336.97 174.389C338.612 173.926 340.224 173.087 341.816 171.88C342.946 171.002 344.182 170.365 345.552 169.979C347.213 169.506 348.699 169.535 350.031 170.056C351.354 170.577 352.232 171.581 352.648 173.058C353.159 174.853 353.063 176.233 352.368 177.208H352.329Z" fill="#C7C7AC"/>
<path d="M329.788 204.154C330.068 203.421 330.512 202.784 331.121 202.262C331.729 201.741 332.453 201.403 333.293 201.278C333.92 201.182 334.606 201.22 335.349 201.384C336.362 201.606 337.733 201.712 339.452 201.712C341.17 201.712 342.85 201.577 344.481 201.317C346.605 200.988 348.217 200.506 349.308 199.879C351.036 198.865 352.638 198.248 354.105 198.016C355.717 197.765 357.011 197.997 357.976 198.701C358.951 199.406 359.54 200.438 359.753 201.79C359.868 202.533 359.868 203.285 359.753 204.048C359.656 204.685 359.675 205.418 359.811 206.258C359.955 207.214 360.274 208.372 360.747 209.733C361.104 210.775 361.345 211.721 361.471 212.56C361.78 214.52 361.645 216.257 361.065 217.772C360.486 219.287 359.598 220.484 358.401 221.382C357.204 222.27 355.853 222.849 354.366 223.109C352.387 223.437 350.688 223.399 349.269 222.993C347.85 222.578 346.605 221.584 345.524 220.011C345.301 219.683 345.108 219.461 344.935 219.336C344.761 219.21 344.568 219.162 344.355 219.191C344.027 219.239 343.641 219.558 343.187 220.127C342.734 220.696 342.058 221.7 341.131 223.138C340.687 223.823 340.108 224.412 339.384 224.904C338.66 225.387 337.897 225.696 337.106 225.812C336.401 225.918 335.735 225.86 335.108 225.638C334.47 225.416 333.93 225.001 333.476 224.403C332.752 223.437 332.308 222.414 332.134 221.314C331.941 220.098 332.115 218.959 332.656 217.898C333.196 216.836 334.104 215.987 335.397 215.359L337.868 214.182C339.162 213.574 340.108 213.111 340.697 212.792C341.295 212.474 341.759 212.126 342.097 211.769C342.434 211.402 342.57 211.016 342.502 210.592C342.473 210.408 342.405 210.215 342.299 210.012C342.029 209.501 341.17 209.366 339.722 209.588C339.374 209.646 338.756 209.762 337.878 209.945C337.164 210.128 336.382 210.283 335.513 210.418C333.814 210.688 332.434 210.418 331.391 209.646C330.348 208.864 329.721 207.773 329.499 206.374C329.383 205.631 329.46 204.888 329.74 204.154H329.788ZM351.277 214.529C351.663 214.761 352.03 214.848 352.377 214.79C352.937 214.703 353.352 214.288 353.623 213.554C353.893 212.821 353.922 211.788 353.71 210.456C353.584 209.665 353.362 209.125 353.024 208.845C352.686 208.565 352.252 208.468 351.692 208.555L351.074 208.719C350.534 208.903 350.099 209.26 349.79 209.8C349.481 210.341 349.375 210.958 349.491 211.653C349.588 212.261 349.839 212.879 350.244 213.506C350.553 213.96 350.9 214.298 351.287 214.529H351.277Z" fill="#C7C7AC"/>
<path d="M362.822 235.27C362.88 236.351 363.083 237.422 363.45 238.464C363.585 238.831 363.672 239.304 363.701 239.874C363.768 241.099 363.421 242.142 362.677 243.01C361.934 243.879 360.882 244.342 359.54 244.419C358.15 244.497 357.088 244.304 356.374 243.86C355.65 243.416 355.264 242.682 355.215 241.669C355.186 241.148 355.244 240.588 355.379 239.989C355.399 239.922 355.408 239.816 355.399 239.671C355.389 239.391 355.254 239.179 355.013 239.053C354.771 238.928 354.433 238.87 354.009 238.889C353.777 238.928 353.536 238.957 353.304 238.995C351.267 239.43 349.375 239.7 347.637 239.787C345.842 239.883 344.017 239.796 342.164 239.545L341.556 239.507C341.035 239.536 340.784 239.729 340.803 240.076C340.803 240.24 340.89 240.443 341.044 240.665C341.247 240.983 341.363 241.312 341.382 241.64C341.421 242.393 341.083 243.087 340.378 243.734C339.664 244.371 338.747 244.738 337.617 244.815C336.198 244.892 335.107 244.632 334.345 244.043C333.582 243.454 333.167 242.576 333.109 241.398C333.08 240.762 333.148 240.047 333.322 239.256C333.515 238.368 333.592 237.586 333.553 236.901C333.515 236.071 333.264 235.019 332.82 233.745C332.54 232.857 332.375 232.085 332.347 231.429C332.279 230.203 332.569 229.19 333.196 228.408C333.833 227.616 334.837 227.182 336.237 227.115C337.482 227.047 338.496 227.356 339.268 228.022C340.04 228.688 340.446 229.489 340.494 230.406C340.523 230.927 340.426 231.39 340.214 231.805C340.089 232.124 340.32 232.259 340.909 232.23C341.382 232.201 341.981 232.104 342.705 231.921C343.66 231.68 344.963 231.516 346.614 231.429C348.526 231.332 350.669 231.332 353.034 231.448C353.227 231.458 353.487 231.458 353.816 231.448C354.52 231.409 354.868 231.207 354.849 230.83L354.762 230.483C354.684 230.271 354.636 230.049 354.617 229.817C354.588 229.276 354.742 228.726 355.08 228.176C355.418 227.626 355.92 227.163 356.586 226.786C357.252 226.41 358.034 226.198 358.932 226.149C360.09 226.092 361.085 226.342 361.915 226.902C362.745 227.462 363.199 228.311 363.257 229.441C363.276 229.749 363.257 230.058 363.199 230.367C362.899 232.394 362.784 234.025 362.851 235.28L362.822 235.27Z" fill="#C7C7AC"/>
<path d="M335.831 248.734C337.434 246.929 339.751 246.137 342.762 246.369C344.133 246.475 345.128 246.958 345.765 247.797C346.402 248.647 346.691 249.641 346.643 250.799C346.595 251.88 346.286 252.816 345.716 253.598C345.147 254.38 344.452 254.727 343.631 254.64C342.714 254.553 341.971 254.746 341.411 255.229C340.841 255.711 340.542 256.426 340.504 257.371C340.455 258.452 340.668 259.35 341.15 260.045C341.623 260.74 342.28 261.106 343.1 261.145C343.506 261.164 343.902 261.097 344.317 260.952C344.915 260.74 345.407 260.267 345.803 259.514C346.189 258.761 346.643 257.632 347.164 256.117C347.628 254.717 347.975 253.752 348.217 253.221C349.713 249.863 351.837 248.068 354.597 247.836C355.099 247.788 355.582 247.768 356.055 247.797C358.015 247.884 359.685 248.492 361.085 249.621C362.475 250.751 363.363 252.372 363.739 254.495C363.981 255.875 364.077 257.333 364 258.867C363.923 260.711 363.643 262.448 363.16 264.098C362.687 265.749 362.108 267.003 361.432 267.872C360.602 268.972 359.704 269.783 358.748 270.323C357.793 270.864 356.876 271.105 356.007 271.067C355.013 271.018 354.192 270.632 353.545 269.889C352.754 269.001 352.387 267.959 352.445 266.753C352.483 265.923 352.715 265.112 353.14 264.32C353.565 263.529 354.115 262.834 354.771 262.245C355.775 261.348 356.306 260.383 356.354 259.369C356.374 258.877 356.277 258.462 356.055 258.134C355.833 257.806 355.544 257.632 355.196 257.613C354.723 257.593 354.279 257.844 353.854 258.366C353.352 258.954 352.87 259.697 352.406 260.566C351.943 261.435 351.373 262.612 350.688 264.069C350.447 264.629 350.07 265.44 349.549 266.502C348.873 267.862 347.869 268.934 346.537 269.715C345.205 270.497 343.747 270.787 342.174 270.603C339.162 270.237 336.864 268.934 335.291 266.714C333.708 264.494 333.013 261.309 333.196 257.149C333.37 253.347 334.258 250.548 335.86 248.743L335.831 248.734Z" fill="#C7C7AC"/>
<path d="M360.37 286.789C360.129 288.285 359.926 290.427 359.762 293.216C359.753 293.593 359.685 294.133 359.569 294.838C359.26 296.749 358.633 298.158 357.687 299.055C356.741 299.953 355.486 300.281 353.922 300.03C350.91 299.548 349.626 297.965 350.061 295.282C350.186 294.49 350.476 293.593 350.929 292.589L351.074 292.145C351.19 291.45 350.804 290.842 349.916 290.321C349.028 289.8 347.831 289.433 346.315 289.182C343.94 288.796 341.585 288.777 339.258 289.124C337.492 289.394 335.967 289.423 334.683 289.211C333.119 288.96 332.038 288.352 331.43 287.377C330.821 286.403 330.648 285.129 330.899 283.546C331.207 281.635 331.98 280.274 333.206 279.473C334.432 278.662 335.928 278.402 337.675 278.681C338.863 278.875 340.658 279.27 343.043 279.869C345.437 280.467 347.705 281.056 349.867 281.615L351.412 282.04C352.445 282.301 353.014 282.108 353.121 281.451C353.15 281.268 353.121 281.027 353.063 280.728C352.706 279.502 352.609 278.411 352.764 277.456C352.918 276.481 353.343 275.69 354.018 275.11C354.704 274.522 355.592 274.165 356.683 274.03C357.291 273.933 357.938 273.943 358.613 274.059C360.013 274.28 361.036 274.966 361.674 276.095C362.32 277.224 362.513 278.546 362.272 280.062C362.147 280.834 361.915 281.587 361.587 282.32C361.065 283.478 360.66 284.964 360.361 286.789H360.37Z" fill="#C7C7AC"/>
<path d="M338.023 306.68C339.017 306.159 340.069 306.053 341.179 306.371C342.27 306.68 343.158 307.269 343.844 308.147C344.23 308.697 344.471 309.334 344.577 310.058C344.684 310.782 344.635 311.506 344.433 312.21C344.114 313.349 343.496 314.208 342.569 314.777C342.019 315.067 341.363 315.25 340.591 315.328C339.818 315.405 339.085 315.347 338.38 315.154C337.308 314.855 336.526 314.237 336.034 313.301C335.532 312.365 335.513 311.081 335.976 309.44C336.343 308.118 337.028 307.201 338.013 306.68H338.023Z" fill="#C7C7AC"/>
<path d="M322.384 319.101C323.224 318.667 324.286 318.648 325.58 319.043C326.082 319.198 326.458 319.323 326.719 319.429C327.568 319.777 328.36 320.201 329.084 320.713C329.808 321.224 330.406 321.775 330.879 322.373C331.256 322.884 331.671 323.299 332.105 323.637C332.54 323.975 333.061 324.255 333.65 324.496C334.084 324.67 334.692 324.853 335.455 325.037C335.822 325.133 336.14 325.239 336.401 325.346C337.733 325.886 339.191 326.861 340.755 328.28C342.319 329.689 343.776 331.484 345.108 333.655C345.852 334.9 346.325 336.194 346.537 337.535C346.74 338.877 346.605 340.141 346.132 341.328C345.321 343.316 344.23 344.677 342.849 345.411C341.469 346.135 339.915 346.279 338.187 345.835C336.401 345.391 334.827 345.15 333.457 345.102C332.086 345.054 330.609 345.189 329.035 345.488C327.539 345.777 325.773 345.758 323.736 345.44C321.699 345.121 319.865 344.59 318.224 343.857C316.332 342.988 315.019 342.1 314.295 341.193C313.571 340.286 313.378 339.272 313.735 338.134C313.764 337.989 313.831 337.796 313.938 337.526C314.391 336.406 315.048 335.557 315.907 334.978C316.766 334.398 317.731 334.273 318.793 334.601C319.971 334.949 320.927 335.103 321.651 335.055C322.375 335.007 322.935 334.775 323.34 334.379C323.745 333.983 324.093 333.414 324.392 332.671C325.358 330.287 324.817 328.666 322.77 327.807C321.573 327.295 320.743 326.465 320.27 325.297C319.797 324.139 319.855 322.827 320.454 321.36C320.888 320.288 321.525 319.535 322.365 319.092L322.384 319.101ZM330.619 336.927C330.725 337.139 330.889 337.284 331.101 337.371C331.343 337.468 331.632 337.487 331.96 337.41C332.53 337.333 333.119 337.323 333.746 337.39C334.374 337.458 334.934 337.583 335.436 337.786C336.024 338.027 336.478 338.153 336.777 338.153C337.077 338.153 337.289 338.008 337.415 337.709C337.637 337.159 337.472 336.522 336.932 335.788C336.169 334.842 335.04 334.07 333.553 333.462C333.071 333.269 332.675 333.202 332.356 333.26C332.038 333.318 331.758 333.491 331.516 333.781C331.236 334.099 331.005 334.476 330.831 334.92C330.667 335.335 330.561 335.779 330.522 336.252C330.474 336.483 330.512 336.715 330.619 336.917V336.927Z" fill="#C7C7AC"/>
<path d="M305.076 355.187C305.703 354.049 306.514 352.842 307.518 351.559C308.088 350.825 308.58 350.072 309.005 349.3C309.487 348.431 309.845 347.601 310.086 346.82C310.231 346.414 310.385 346.057 310.559 345.748C311.196 344.59 312.094 343.847 313.243 343.529C314.391 343.2 315.598 343.393 316.863 344.088C317.442 344.407 318.021 344.851 318.6 345.411C321.207 347.92 324.074 350.043 327.192 351.761C329.277 352.91 331.237 353.72 333.061 354.184C333.64 354.309 334.2 354.531 334.76 354.84C335.976 355.516 336.807 356.442 337.222 357.629C337.637 358.816 337.511 360.032 336.826 361.277C336.556 361.77 336.256 362.194 335.938 362.522C334.905 363.652 334.133 364.694 333.611 365.649C333.158 366.479 332.723 367.551 332.327 368.863C332.125 369.481 331.912 369.983 331.7 370.379C331.082 371.498 330.252 372.386 329.209 373.052C328.167 373.718 327.037 374.094 325.802 374.172C324.566 374.249 323.379 373.969 322.22 373.332C320.666 372.473 319.653 371.488 319.179 370.379C318.706 369.269 318.649 367.937 319.015 366.383C319.102 366.026 319.015 365.785 318.774 365.64C318.649 365.572 318.504 365.572 318.349 365.64C318.185 365.717 318.06 365.871 317.953 366.103C317.5 367.116 316.785 367.956 315.801 368.612C314.816 369.269 313.677 369.616 312.384 369.664C311.09 369.703 309.787 369.365 308.464 368.632C307.885 368.313 307.296 367.908 306.707 367.416C305.259 366.18 304.275 365.061 303.753 364.047C303.232 363.034 303.039 362.001 303.184 360.94C303.319 359.878 303.715 358.478 304.352 356.732C304.545 356.239 304.786 355.718 305.095 355.158L305.076 355.187ZM312.316 360.254C312.451 360.94 312.866 361.461 313.542 361.837C314.391 362.3 315.28 362.223 316.197 361.606C317.123 360.978 317.944 360.023 318.658 358.72C319.064 357.977 319.228 357.359 319.141 356.857C319.054 356.365 318.745 355.931 318.214 355.564C317.809 355.265 317.442 355.014 317.085 354.821C316.283 354.377 315.588 354.251 315.019 354.454C314.449 354.657 313.928 355.187 313.445 356.056C313.214 356.471 313.001 356.944 312.789 357.475C312.326 358.652 312.171 359.579 312.306 360.264L312.316 360.254ZM325.28 364.472C325.628 364.665 326.043 364.675 326.516 364.511C326.989 364.337 327.423 363.989 327.829 363.449C328.119 363.121 328.292 362.908 328.35 362.802C328.524 362.493 328.553 362.223 328.456 361.992C328.35 361.76 328.147 361.519 327.829 361.258C327.636 361.123 327.443 360.988 327.24 360.853C327.115 360.785 326.786 360.64 326.255 360.438C325.696 360.235 325.242 360.438 324.894 361.065C324.711 361.393 324.595 361.779 324.547 362.204C324.412 363.372 324.663 364.125 325.28 364.472Z" fill="#C7C7AC"/>
<path d="M318.89 389.16C318.272 390.048 317.78 391.023 317.432 392.065C317.316 392.442 317.094 392.866 316.766 393.329C316.061 394.333 315.154 394.951 314.034 395.182C312.914 395.404 311.795 395.134 310.694 394.372C309.545 393.58 308.831 392.779 308.532 391.988C308.233 391.197 308.377 390.376 308.957 389.546C309.256 389.121 309.642 388.706 310.115 388.32C310.173 388.272 310.24 388.195 310.327 388.079C310.491 387.848 310.511 387.606 310.405 387.355C310.289 387.104 310.057 386.853 309.709 386.612C309.507 386.496 309.294 386.381 309.092 386.265C307.219 385.367 305.559 384.412 304.13 383.418C302.653 382.395 301.263 381.207 299.95 379.866L299.496 379.461C299.071 379.161 298.753 379.161 298.55 379.461C298.454 379.596 298.396 379.798 298.376 380.078C298.347 380.455 298.232 380.783 298.048 381.053C297.614 381.671 296.919 382.018 295.973 382.086C295.027 382.153 294.071 381.873 293.125 381.246C291.957 380.435 291.262 379.567 291.011 378.631C290.77 377.704 290.982 376.748 291.658 375.783C292.024 375.262 292.517 374.741 293.135 374.22C293.83 373.641 294.37 373.062 294.756 372.502C295.229 371.826 295.683 370.842 296.108 369.558C296.426 368.69 296.774 367.975 297.15 367.435C297.855 366.431 298.695 365.804 299.68 365.572C300.664 365.331 301.726 365.611 302.875 366.412C303.898 367.126 304.516 367.985 304.709 368.979C304.902 369.983 304.738 370.852 304.217 371.614C303.917 372.039 303.56 372.348 303.136 372.55C302.846 372.724 302.942 372.975 303.425 373.313C303.811 373.583 304.352 373.872 305.028 374.172C305.925 374.567 307.064 375.243 308.416 376.179C309.989 377.27 311.679 378.592 313.474 380.126C313.619 380.252 313.822 380.416 314.092 380.599C314.671 381.005 315.077 381.053 315.289 380.744L315.434 380.416C315.501 380.204 315.598 380.001 315.733 379.798C316.042 379.354 316.496 379.017 317.104 378.785C317.702 378.553 318.388 378.495 319.15 378.611C319.913 378.717 320.656 379.036 321.39 379.547C322.336 380.204 322.973 381.014 323.292 381.97C323.61 382.925 323.446 383.862 322.79 384.798C322.616 385.049 322.413 385.28 322.182 385.493C320.705 386.911 319.614 388.137 318.899 389.16H318.89Z" fill="#C7C7AC"/>
<path d="M285.566 383.977C286.522 382.867 287.622 382.24 288.877 382.095C290.132 381.96 291.329 382.375 292.478 383.36C292.913 383.726 293.366 384.248 293.859 384.913C294.969 386.487 296.368 387.992 298.058 389.44C299.892 391.003 302.305 392.683 305.307 394.478C305.848 394.787 306.437 395.211 307.064 395.752C308.57 397.045 309.507 398.454 309.864 399.989C310.231 401.523 309.864 402.923 308.792 404.177C308.377 404.66 307.856 405.104 307.238 405.5C305.694 406.503 304.516 407.478 303.724 408.414C303.522 408.646 303.213 409.051 302.788 409.621C301.137 411.879 298.685 412.729 295.432 412.188C292.179 411.648 288.549 410.2 284.533 407.845C283.549 407.247 282.719 406.668 282.033 406.079C280.344 404.631 279.127 403.01 278.365 401.186C277.602 399.371 277.351 397.557 277.593 395.742C277.834 393.928 278.577 392.306 279.803 390.878C280.267 390.338 280.846 389.797 281.56 389.257C282.13 388.813 282.632 388.33 283.085 387.809C283.684 387.114 284.176 386.352 284.562 385.531C284.91 384.865 285.248 384.344 285.576 383.968L285.566 383.977ZM287.227 393.416C286.184 394.632 285.692 395.868 285.75 397.093C285.808 398.319 286.3 399.333 287.217 400.124C287.844 400.664 288.578 401.012 289.408 401.157C290.48 401.359 291.358 401.649 292.053 402.016C292.739 402.392 293.54 402.952 294.457 403.705C295.007 404.149 295.693 404.245 296.513 403.994C297.334 403.743 298.145 403.145 298.965 402.199C299.467 401.61 299.766 401.137 299.834 400.78C299.911 400.423 299.757 400.085 299.38 399.757C299.071 399.497 298.724 399.275 298.328 399.082C295.857 397.866 294.158 396.871 293.25 396.08C292.768 395.665 292.353 395.182 292.005 394.642C291.638 393.986 291.204 393.436 290.702 393.011C290.161 392.548 289.63 392.316 289.119 392.306C288.597 392.297 288.153 392.47 287.777 392.837C287.632 392.963 287.458 393.156 287.246 393.407L287.227 393.416Z" fill="#C7C7AC"/>
<path d="M275.005 428.354C275.063 427.389 275.623 426.404 276.666 425.42C277.216 424.899 277.95 424.339 278.867 423.731C279.185 423.519 279.475 423.306 279.716 423.075C280.112 422.698 280.276 422.341 280.228 421.984C280.17 421.627 279.9 421.202 279.417 420.681C278.683 419.909 277.95 419.871 277.216 420.565C276.888 420.874 276.569 421.289 276.251 421.82C275.903 422.38 275.469 422.901 274.957 423.384C274.011 424.271 273.026 424.764 271.984 424.851C270.941 424.937 270.005 424.532 269.165 423.644C267.186 421.55 267.196 419.562 269.184 417.68C269.474 417.4 269.831 417.12 270.237 416.83C271.192 416.155 271.81 415.682 272.109 415.402C272.573 414.968 272.814 414.533 272.824 414.118C272.833 413.703 272.621 413.182 272.167 412.574C272.09 412.458 271.955 412.304 271.781 412.111C271.405 411.715 271.038 411.464 270.671 411.348C270.304 411.233 269.986 411.31 269.715 411.57C269.561 411.715 269.378 411.956 269.155 412.294C268.933 412.632 268.702 413.008 268.46 413.443C268.2 413.954 267.794 414.64 267.254 415.518C266.887 416.087 266.52 416.55 266.163 416.888C265.304 417.699 264.367 418.124 263.344 418.162C262.321 418.201 261.356 417.728 260.429 416.753C259.357 415.624 258.807 414.582 258.778 413.636C258.749 412.69 259.222 411.754 260.197 410.837C260.641 410.412 261.22 409.968 261.915 409.505C262.736 408.993 263.479 408.424 264.145 407.787C265.178 406.812 266.153 405.548 267.09 403.984C267.582 403.164 268.103 402.489 268.654 401.977C269.464 401.215 270.324 400.732 271.25 400.52C272.177 400.307 273.075 400.346 273.944 400.635C274.812 400.915 275.575 401.417 276.241 402.122C277.033 402.961 277.573 403.994 277.853 405.22C278.037 405.857 278.317 406.378 278.683 406.774C279.041 407.15 279.552 407.507 280.228 407.845C280.711 408.077 281.28 408.54 281.946 409.244C282.477 409.814 282.989 410.441 283.471 411.146C283.954 411.841 284.321 412.468 284.572 413.008C284.948 413.79 285.306 414.36 285.653 414.717C285.962 415.045 286.329 415.305 286.744 415.508C287.169 415.711 287.729 415.904 288.443 416.068C289.418 416.309 290.248 416.792 290.934 417.516C291.503 418.114 291.889 418.809 292.102 419.6C292.314 420.392 292.314 421.193 292.102 421.994C291.889 422.795 291.445 423.519 290.779 424.146C290.403 424.503 289.959 424.822 289.447 425.111C287.748 426.028 286.416 426.955 285.431 427.881C284.707 428.566 284.118 429.281 283.665 430.033C283.249 430.69 282.834 431.201 282.439 431.578C281.464 432.504 280.431 432.919 279.34 432.842C278.249 432.765 277.284 432.263 276.424 431.356C275.43 430.313 274.967 429.3 275.034 428.335L275.005 428.354Z" fill="#C7C7AC"/>
<path d="M262.456 447.068C261.578 447.715 260.805 448.477 260.139 449.355C259.908 449.674 259.56 450.002 259.106 450.34C258.122 451.073 257.06 451.363 255.921 451.218C254.782 451.073 253.816 450.455 253.015 449.375C252.185 448.255 251.76 447.271 251.741 446.421C251.712 445.572 252.117 444.848 252.928 444.25C253.343 443.941 253.845 443.68 254.415 443.458C254.482 443.439 254.579 443.381 254.695 443.294C254.926 443.13 255.023 442.908 254.994 442.628C254.965 442.358 254.83 442.049 254.579 441.702C254.424 441.528 254.26 441.345 254.096 441.171C252.61 439.714 251.345 438.285 250.312 436.876C249.241 435.428 248.304 433.865 247.503 432.176L247.204 431.645C246.895 431.23 246.596 431.124 246.316 431.336C246.181 431.433 246.065 431.607 245.958 431.867C245.804 432.215 245.592 432.485 245.331 432.687C244.723 433.131 243.96 433.238 243.034 432.996C242.107 432.755 241.296 432.186 240.611 431.288C239.771 430.149 239.385 429.097 239.452 428.142C239.52 427.186 240.031 426.347 240.977 425.652C241.489 425.275 242.126 424.937 242.879 424.648C243.719 424.32 244.424 423.953 244.974 423.548C245.64 423.055 246.383 422.274 247.204 421.202C247.783 420.479 248.343 419.919 248.874 419.533C249.858 418.799 250.862 418.481 251.866 418.577C252.87 418.674 253.797 419.272 254.618 420.401C255.361 421.405 255.66 422.418 255.535 423.422C255.4 424.436 254.965 425.208 254.222 425.758C253.807 426.067 253.363 426.24 252.899 426.289C252.571 426.356 252.581 426.626 252.928 427.099C253.208 427.476 253.623 427.92 254.174 428.431C254.898 429.097 255.757 430.101 256.741 431.423C257.88 432.958 259.048 434.753 260.265 436.789C260.361 436.953 260.506 437.175 260.699 437.436C261.124 438.005 261.481 438.179 261.79 437.957L262.031 437.687C262.157 437.503 262.321 437.339 262.514 437.204C262.948 436.886 263.489 436.712 264.136 436.693C264.783 436.673 265.449 436.838 266.124 437.185C266.81 437.532 267.418 438.063 267.949 438.787C268.634 439.714 268.972 440.688 268.972 441.692C268.972 442.696 268.509 443.536 267.592 444.211C267.35 444.394 267.08 444.549 266.79 444.674C264.937 445.543 263.508 446.354 262.504 447.097L262.456 447.068Z" fill="#C7C7AC"/>
<path d="M247.744 458.273C246.461 459.026 245.283 459.412 244.192 459.431C243.111 459.45 241.952 459.093 240.726 458.36C238.284 456.864 236.112 455.001 234.201 452.781C233.429 451.894 232.714 451.247 232.058 450.851C231.401 450.455 230.909 450.359 230.581 450.542C230.378 450.658 230.272 450.89 230.282 451.218C230.262 451.7 230.668 452.637 231.488 454.046C232.347 455.513 233.38 456.999 234.568 458.524C234.915 458.978 235.214 459.422 235.465 459.846C237.068 462.577 236.556 464.71 233.931 466.255C232.627 467.017 231.488 467.181 230.504 466.747C229.519 466.313 228.698 465.521 228.023 464.382C227.53 463.543 227.173 462.684 226.961 461.805C226.179 458.707 225.098 455.986 223.727 453.64C222.916 452.26 221.777 450.668 220.31 448.873C219.75 448.187 219.277 447.531 218.91 446.904C218.012 445.379 217.665 444.018 217.867 442.831C218.07 441.644 218.746 440.524 219.875 439.472C220.174 439.192 220.522 438.922 220.937 438.691C221.912 438.121 222.926 437.861 223.978 437.928C225.03 437.996 226.044 438.295 227.009 438.816C228.283 439.492 229.809 440.573 231.575 442.049C233.351 443.526 234.819 444.896 235.996 446.151C236.431 446.605 236.836 446.72 237.222 446.498C237.367 446.412 237.512 446.247 237.666 445.997C237.888 445.591 237.792 445.022 237.357 444.288C237.116 443.883 236.682 443.285 236.064 442.503C235.407 441.711 234.857 441.074 234.413 440.601C233.293 439.347 232.415 438.266 231.778 437.378C230.967 436.239 230.697 435.071 230.957 433.875C231.218 432.678 232.048 431.674 233.448 430.844C234.568 430.188 235.649 430.053 236.682 430.439C237.724 430.825 238.545 431.558 239.172 432.61C239.491 433.16 239.732 433.797 239.887 434.531C240.263 436.529 241.373 439.086 243.198 442.194C244.684 444.723 246.383 447.155 248.314 449.5C248.806 450.108 249.193 450.649 249.472 451.121C250.283 452.502 250.612 453.776 250.447 454.924C250.283 456.073 249.617 457.038 248.43 457.819L247.716 458.283L247.744 458.273Z" fill="#C7C7AC"/>
<path d="M202.181 478.782C201.215 478.357 200.511 477.614 200.076 476.572C199.796 475.896 199.613 475.115 199.526 474.227C199.439 473.339 199.593 472.528 199.98 471.775C200.375 471.022 200.974 470.482 201.775 470.144C202.625 469.787 203.638 469.71 204.826 469.913C205.376 470.019 205.926 469.951 206.476 469.729C207.22 469.42 207.77 468.928 208.146 468.253C208.523 467.577 208.571 466.921 208.31 466.284C208.204 466.023 208.021 465.762 207.76 465.512C206.409 464.286 205.482 463.079 204.999 461.902C204.633 461.033 204.507 460.174 204.623 459.335C204.69 458.871 204.642 458.456 204.488 458.09C204.295 457.636 203.966 457.289 203.503 457.057C203.04 456.825 202.576 456.748 202.113 456.806C201.63 456.883 201.235 456.98 200.935 457.105C200.105 457.453 199.42 458.09 198.86 459.036C198.271 460.02 197.566 460.686 196.736 461.033C195.993 461.342 195.249 461.381 194.497 461.14C193.744 460.898 193.087 460.454 192.537 459.788C192.122 459.267 191.813 458.775 191.61 458.292C191.05 456.941 191.127 455.58 191.851 454.2C192.575 452.83 193.869 451.585 195.732 450.475C196.591 449.963 197.441 449.539 198.271 449.191C200.038 448.458 201.785 448.168 203.522 448.313C205.26 448.458 207.162 449.143 209.228 450.359C210.232 450.938 211.313 452.067 212.452 453.737C213.591 455.407 214.585 457.25 215.415 459.258C216.371 461.545 216.931 463.581 217.105 465.347C217.414 468.668 216.883 471.331 215.531 473.329C214.17 475.327 212.317 476.813 209.961 477.788C208.832 478.261 207.577 478.628 206.196 478.888C204.497 479.236 203.165 479.197 202.19 478.763L202.181 478.782Z" fill="#C7C7AC"/>
<path d="M188.598 483.753C187.623 483.067 186.851 481.735 186.281 479.757C186.021 478.85 185.77 478.193 185.519 477.778C185.277 477.373 184.969 477.112 184.582 477.016C184.196 476.919 183.665 476.968 182.98 477.17C182.295 477.373 181.802 477.614 181.474 477.904C181.146 478.193 180.962 478.608 180.914 479.139C180.856 479.67 180.953 480.394 181.194 481.311C181.696 483.28 181.706 484.872 181.252 486.069C180.789 487.275 179.717 488.067 178.037 488.462C176.29 488.868 174.881 488.829 173.829 488.318C172.776 487.816 172.062 486.918 171.686 485.625C171.367 484.515 171.299 483.096 171.483 481.369C171.56 480.703 171.521 479.699 171.357 478.348C171.193 476.997 170.904 475.587 170.489 474.14C169.6 471.08 168.326 468.648 166.675 466.834C166.241 466.342 165.922 465.762 165.72 465.077C165.411 464.016 165.449 462.944 165.845 461.873C166.231 460.802 166.994 459.962 168.123 459.364C168.548 459.122 169.04 458.91 169.6 458.746C170.807 458.399 171.937 458.437 173.008 458.862C174.08 459.286 174.939 460.078 175.595 461.246C175.991 461.921 176.387 462.973 176.802 464.402C176.908 464.768 177.149 465.733 177.535 467.326L177.806 468.388C177.97 468.957 178.25 469.314 178.655 469.469C179.061 469.623 179.621 469.594 180.345 469.382C181.484 469.054 182.217 468.716 182.555 468.368C182.893 468.021 182.999 467.538 182.874 466.911C182.835 466.699 182.768 466.409 182.661 466.052C182.497 465.483 182.285 464.913 182.034 464.334C181.783 463.755 181.532 463.215 181.291 462.722C180.711 461.564 180.335 460.696 180.171 460.136C179.785 458.794 179.91 457.646 180.557 456.69C181.204 455.725 182.391 454.992 184.138 454.49C186.001 453.949 187.401 453.978 188.347 454.557C189.293 455.146 190.008 456.275 190.49 457.955C190.857 459.2 191.05 460.309 191.07 461.294C191.098 462.269 191.041 463.504 190.905 464.99C190.819 466.052 190.944 467.162 191.292 468.349C191.765 469.98 192.614 471.592 193.84 473.184C194.728 474.304 195.375 475.539 195.771 476.9C196.253 478.55 196.234 480.046 195.722 481.378C195.211 482.71 194.216 483.588 192.74 484.013C190.944 484.534 189.564 484.447 188.589 483.762L188.598 483.753Z" fill="#C7C7AC"/>
<path d="M161.482 461.41C162.225 461.68 162.853 462.124 163.383 462.732C163.914 463.34 164.243 464.064 164.387 464.904C164.494 465.531 164.455 466.216 164.291 466.969C164.079 467.982 163.972 469.353 163.992 471.071C164.011 472.789 164.156 474.468 164.416 476.099C164.764 478.222 165.256 479.824 165.884 480.915C166.907 482.633 167.544 484.235 167.776 485.702C168.036 487.314 167.824 488.597 167.119 489.582C166.415 490.557 165.391 491.155 164.04 491.377C163.297 491.503 162.544 491.503 161.781 491.387C161.144 491.3 160.41 491.329 159.57 491.464C158.615 491.618 157.456 491.937 156.105 492.429C155.062 492.796 154.126 493.037 153.286 493.182C151.326 493.5 149.589 493.375 148.073 492.815C146.558 492.246 145.351 491.367 144.444 490.18C143.546 488.984 142.957 487.652 142.687 486.156C142.339 484.177 142.368 482.479 142.764 481.06C143.169 479.641 144.154 478.386 145.718 477.296C146.036 477.074 146.268 476.881 146.394 476.697C146.519 476.524 146.567 476.331 146.529 476.118C146.471 475.79 146.162 475.404 145.583 474.96C145.003 474.516 144 473.841 142.561 472.924C141.866 472.489 141.277 471.91 140.785 471.187C140.293 470.463 139.984 469.71 139.858 468.918C139.742 468.224 139.8 467.548 140.013 466.921C140.235 466.284 140.64 465.743 141.239 465.28C142.194 464.546 143.218 464.093 144.318 463.919C145.534 463.716 146.673 463.89 147.735 464.421C148.807 464.952 149.656 465.859 150.303 467.143L151.5 469.604C152.118 470.887 152.591 471.833 152.91 472.422C153.228 473.011 153.576 473.474 153.942 473.812C154.309 474.149 154.705 474.285 155.12 474.207C155.304 474.178 155.497 474.111 155.699 474.005C156.201 473.734 156.337 472.875 156.105 471.428C156.047 471.08 155.921 470.463 155.728 469.584C155.535 468.87 155.371 468.088 155.236 467.22C154.956 465.521 155.207 464.141 155.979 463.099C156.752 462.056 157.842 461.41 159.242 461.188C159.986 461.062 160.729 461.14 161.472 461.419L161.482 461.41ZM151.259 482.961C151.037 483.347 150.95 483.714 151.008 484.061C151.095 484.621 151.51 485.026 152.253 485.297C152.996 485.567 154.02 485.586 155.352 485.364C156.143 485.239 156.684 485.007 156.964 484.669C157.244 484.341 157.34 483.888 157.244 483.328L157.07 482.71C156.887 482.17 156.52 481.745 155.979 481.436C155.439 481.127 154.821 481.031 154.116 481.147C153.508 481.243 152.89 481.504 152.263 481.919C151.809 482.228 151.471 482.585 151.249 482.961H151.259Z" fill="#C7C7AC"/>
<path d="M130.581 494.659C129.5 494.726 128.429 494.938 127.386 495.305C127.019 495.45 126.546 495.537 125.977 495.566C124.751 495.643 123.699 495.305 122.83 494.562C121.961 493.819 121.478 492.777 121.401 491.435C121.324 490.045 121.498 488.984 121.942 488.26C122.386 487.536 123.11 487.14 124.123 487.082C124.645 487.053 125.204 487.102 125.803 487.227C125.88 487.246 125.986 487.256 126.122 487.246C126.401 487.227 126.614 487.102 126.739 486.851C126.865 486.6 126.923 486.272 126.894 485.847C126.855 485.615 126.817 485.374 126.778 485.142C126.324 483.106 126.054 481.224 125.948 479.477C125.842 477.682 125.909 475.858 126.15 474.005L126.189 473.397C126.16 472.876 125.967 472.634 125.61 472.654C125.446 472.654 125.253 472.75 125.021 472.904C124.702 473.107 124.374 473.223 124.046 473.242C123.293 473.291 122.588 472.953 121.951 472.248C121.304 471.544 120.938 470.627 120.851 469.488C120.764 468.079 121.015 466.979 121.594 466.216C122.173 465.454 123.052 465.029 124.239 464.961C124.876 464.923 125.591 464.99 126.382 465.154C127.27 465.338 128.052 465.415 128.738 465.367C129.568 465.319 130.61 465.068 131.885 464.614C132.763 464.324 133.535 464.16 134.201 464.122C135.427 464.045 136.441 464.324 137.233 464.952C138.024 465.579 138.468 466.593 138.545 467.982C138.623 469.227 138.323 470.241 137.657 471.013C136.991 471.785 136.2 472.2 135.283 472.258C134.761 472.287 134.298 472.2 133.883 471.988C133.564 471.862 133.429 472.094 133.468 472.682C133.497 473.155 133.603 473.754 133.786 474.478C134.028 475.433 134.201 476.736 134.298 478.386C134.414 480.297 134.423 482.44 134.327 484.805C134.317 484.998 134.327 485.258 134.337 485.586C134.375 486.291 134.588 486.638 134.964 486.609L135.312 486.522C135.514 486.436 135.746 486.387 135.978 486.378C136.518 486.349 137.068 486.494 137.619 486.831C138.169 487.169 138.642 487.661 139.018 488.327C139.405 488.993 139.617 489.775 139.675 490.663C139.742 491.821 139.501 492.815 138.951 493.655C138.401 494.494 137.551 494.938 136.422 495.016C136.113 495.035 135.804 495.016 135.495 494.967C133.468 494.687 131.827 494.581 130.581 494.659Z" fill="#C7C7AC"/>
<path d="M116.932 467.77C118.747 469.362 119.557 471.669 119.345 474.68C119.248 476.051 118.775 477.055 117.936 477.691C117.096 478.338 116.101 478.637 114.943 478.589C113.862 478.55 112.926 478.251 112.144 477.682C111.362 477.122 111.014 476.427 111.091 475.607C111.169 474.69 110.976 473.947 110.483 473.387C110.001 472.827 109.277 472.528 108.34 472.489C107.259 472.451 106.371 472.673 105.676 473.155C104.981 473.638 104.624 474.294 104.595 475.115C104.575 475.52 104.643 475.916 104.797 476.331C105.01 476.929 105.492 477.421 106.245 477.807C106.998 478.193 108.137 478.637 109.653 479.139C111.053 479.593 112.018 479.94 112.559 480.172C115.928 481.649 117.743 483.762 117.994 486.513C118.042 487.015 118.061 487.497 118.042 487.97C117.965 489.929 117.376 491.609 116.256 493.008C115.136 494.408 113.524 495.305 111.4 495.701C110.02 495.952 108.562 496.058 107.027 496C105.184 495.932 103.446 495.662 101.795 495.199C100.144 494.736 98.8895 494.166 98.0111 493.5C96.9106 492.68 96.0804 491.792 95.5398 490.837C94.9992 489.881 94.7386 488.964 94.7772 488.096C94.8158 487.102 95.2019 486.281 95.9356 485.625C96.814 484.833 97.8566 484.457 99.0633 484.505C99.8935 484.534 100.704 484.766 101.506 485.181C102.307 485.596 103.002 486.146 103.591 486.802C104.498 487.806 105.463 488.327 106.477 488.366C106.969 488.385 107.384 488.279 107.713 488.057C108.041 487.835 108.215 487.545 108.224 487.188C108.244 486.715 107.983 486.271 107.462 485.847C106.863 485.355 106.13 484.872 105.251 484.418C104.373 483.965 103.195 483.395 101.737 482.729C101.177 482.498 100.366 482.121 99.295 481.61C97.9242 480.944 96.843 479.95 96.0611 478.618C95.2695 477.286 94.9703 475.838 95.144 474.256C95.4915 471.244 96.7754 468.938 98.9861 467.345C101.197 465.753 104.382 465.029 108.533 465.193C112.337 465.338 115.146 466.206 116.961 467.799L116.932 467.77Z" fill="#C7C7AC"/>
<path d="M79.0613 492.574C77.565 492.342 75.422 492.159 72.6225 492.014C72.246 492.004 71.7054 491.946 71.0007 491.84C69.0894 491.551 67.68 490.933 66.7726 489.987C65.8651 489.051 65.5369 487.796 65.7783 486.233C66.2416 483.222 67.8151 481.928 70.4988 482.334C71.2903 482.459 72.1881 482.739 73.2017 483.183L73.6458 483.318C74.3505 483.424 74.949 483.038 75.4606 482.15C75.9722 481.262 76.339 480.056 76.5707 478.541C76.9376 476.157 76.9376 473.812 76.5804 471.486C76.3004 469.719 76.2618 468.195 76.4645 466.921C76.7059 465.357 77.314 464.266 78.2794 463.649C79.2447 463.031 80.5286 462.848 82.1118 463.089C84.0231 463.379 85.3939 464.141 86.2048 465.367C87.0157 466.592 87.2956 468.079 87.0253 469.826C86.8419 471.013 86.4558 472.808 85.8766 475.201C85.2877 477.595 84.7278 479.873 84.1776 482.035L83.7625 483.579C83.5115 484.611 83.7046 485.181 84.361 485.287C84.5444 485.316 84.7954 485.287 85.085 485.219C86.311 484.862 87.4018 484.756 88.3575 484.901C89.3421 485.055 90.1241 485.461 90.7129 486.146C91.3018 486.822 91.6686 487.71 91.8134 488.81C91.9099 489.418 91.9099 490.064 91.8037 490.74C91.5914 492.139 90.9156 493.162 89.7862 493.819C88.6568 494.465 87.3342 494.678 85.8187 494.446C85.0464 494.33 84.2934 494.108 83.5598 493.771C82.4014 493.259 80.9051 492.863 79.0806 492.583L79.0613 492.574Z" fill="#C7C7AC"/>
<path d="M58.9824 470.366C59.5133 471.351 59.6195 472.403 59.3202 473.522C59.021 474.613 58.4321 475.51 57.5633 476.205C57.0131 476.591 56.3759 476.842 55.6519 476.948C54.9279 477.054 54.2039 477.016 53.4992 476.823C52.3601 476.514 51.501 475.896 50.9121 474.979C50.6225 474.439 50.4295 473.773 50.3426 473.011C50.2557 472.238 50.3136 471.505 50.5067 470.8C50.7963 469.729 51.4141 468.938 52.3408 468.436C53.2772 467.934 54.5611 467.905 56.2022 468.349C57.5247 468.706 58.4514 469.382 58.9727 470.366H58.9824Z" fill="#C7C7AC"/>
<path d="M46.462 454.837C46.906 455.677 46.935 456.738 46.5489 458.032C46.4041 458.534 46.2786 458.91 46.1724 459.18C45.8345 460.039 45.4098 460.831 44.9078 461.555C44.4058 462.278 43.8556 462.886 43.2571 463.359C42.7454 463.745 42.3303 464.151 42.0021 464.595C41.6739 465.039 41.394 465.55 41.1526 466.149C40.9789 466.583 40.8051 467.191 40.6217 467.963C40.5252 468.33 40.4286 468.648 40.3224 468.909C39.7915 470.25 38.8262 471.708 37.4264 473.281C36.0267 474.864 34.2408 476.321 32.0785 477.672C30.8428 478.425 29.5493 478.908 28.2075 479.13C26.8656 479.342 25.601 479.216 24.4137 478.743C22.4154 477.952 21.0447 476.871 20.311 475.491C19.5773 474.121 19.4229 472.567 19.8573 470.829C20.2917 469.044 20.5234 467.461 20.5523 466.091C20.5909 464.72 20.4462 463.253 20.1372 461.67C19.838 460.184 19.838 458.418 20.1372 456.372C20.4365 454.326 20.9578 452.492 21.6818 450.851C22.5409 448.96 23.4194 447.637 24.3171 446.904C25.2149 446.17 26.2382 445.977 27.3676 446.325C27.5124 446.354 27.7151 446.421 27.9758 446.527C29.0956 446.971 29.9451 447.618 30.5339 448.477C31.1228 449.336 31.2579 450.291 30.9297 451.363C30.5822 452.55 30.447 453.496 30.4953 454.22C30.5436 454.943 30.7849 455.503 31.1807 455.899C31.5861 456.304 32.1557 456.652 32.899 456.941C35.293 457.887 36.9051 457.337 37.745 455.281C38.247 454.084 39.0772 453.245 40.2356 452.762C41.394 452.28 42.7068 452.328 44.1741 452.917C45.2457 453.341 46.0083 453.978 46.4523 454.808L46.462 454.837ZM28.6901 463.195C28.4874 463.301 28.333 463.465 28.2461 463.687C28.1495 463.929 28.1399 464.218 28.2075 464.546C28.2847 465.116 28.2943 465.705 28.2461 466.332C28.1978 466.959 28.0627 467.519 27.8599 468.031C27.6283 468.619 27.5028 469.073 27.5028 469.372C27.5028 469.671 27.6476 469.884 27.9565 470.009C28.5067 470.231 29.1438 470.057 29.8678 469.507C30.8042 468.735 31.5765 467.606 32.1653 466.11C32.3584 465.627 32.426 465.222 32.3584 464.913C32.2908 464.595 32.1171 464.315 31.8371 464.073C31.5186 463.794 31.1324 463.572 30.698 463.388C30.2829 463.224 29.8389 463.118 29.3659 463.089C29.1342 463.05 28.9025 463.079 28.6998 463.186L28.6901 463.195Z" fill="#C7C7AC"/>
<path d="M10.2329 437.774C11.372 438.391 12.5883 439.202 13.8818 440.196C14.6251 440.756 15.3781 441.248 16.1504 441.663C17.0192 442.136 17.8494 442.493 18.641 442.725C19.0464 442.86 19.4036 443.014 19.7221 443.188C20.8805 443.815 21.6335 444.703 21.9617 445.852C22.2899 447 22.1162 448.207 21.4308 449.471C21.1122 450.05 20.6778 450.639 20.1179 451.218C17.6273 453.843 15.5229 456.719 13.8239 459.856C12.6848 461.95 11.8932 463.909 11.4395 465.733C11.314 466.313 11.1017 466.882 10.7928 467.442C10.1267 468.667 9.19995 469.497 8.01258 469.922C6.82522 470.356 5.60889 470.231 4.36361 469.555C3.86163 469.285 3.44655 468.996 3.10868 468.677C1.96958 467.654 0.927017 466.892 -0.0286665 466.37C-0.858857 465.917 -1.93039 465.502 -3.2529 465.106C-3.87072 464.903 -4.37269 464.701 -4.76848 464.488C-5.88827 463.88 -6.78604 463.06 -7.46178 462.018C-8.13751 460.985 -8.51399 459.846 -8.60087 458.62C-8.68775 457.395 -8.41746 456.198 -7.78034 455.03C-6.9405 453.476 -5.95584 452.453 -4.84571 451.961C-3.73557 451.469 -2.4034 451.411 -0.849209 451.768C-0.492035 451.855 -0.250706 451.768 -0.115559 451.527C-0.0479851 451.401 -0.0479851 451.257 -0.115559 451.102C-0.183132 450.948 -0.34723 450.813 -0.588564 450.706C-1.61182 450.262 -2.45167 449.548 -3.11776 448.573C-3.78384 447.599 -4.14101 446.46 -4.19893 445.167C-4.2472 443.873 -3.91899 442.57 -3.19499 441.238C-2.87643 440.659 -2.48063 440.071 -1.99796 439.472C-0.781638 438.015 0.338155 437.021 1.35176 436.49C2.36536 435.959 3.39828 435.766 4.4505 435.892C5.50272 436.017 6.9121 436.403 8.66902 437.031C9.16134 437.214 9.68262 437.465 10.2425 437.764L10.2329 437.774ZM1.10078 458.041C0.907709 458.398 0.898056 458.804 1.07182 459.277C1.24558 459.75 1.60274 460.184 2.13368 460.58C2.46189 460.86 2.68392 461.033 2.78045 461.091C3.08936 461.255 3.35967 461.294 3.59135 461.188C3.82303 461.082 4.06436 460.869 4.31535 460.551C4.4505 460.358 4.58563 460.155 4.71113 459.962C4.7787 459.837 4.91386 459.508 5.12623 458.978C5.32895 458.418 5.11657 457.964 4.4891 457.626C4.16089 457.443 3.77475 457.337 3.34035 457.289C2.17229 457.163 1.41933 457.414 1.08147 458.041H1.10078ZM5.22276 445.051C4.53737 445.196 4.01608 445.601 3.6396 446.286C3.17624 447.135 3.26313 448.023 3.8906 448.94C4.51807 449.857 5.49305 450.677 6.79626 451.382C7.53957 451.787 8.16705 451.942 8.65937 451.845C9.15169 451.749 9.58609 451.44 9.95292 450.909C10.2522 450.504 10.4935 450.127 10.6866 449.78C11.121 448.969 11.2465 448.284 11.0437 447.715C10.841 447.145 10.3004 446.624 9.43163 446.151C9.01653 445.929 8.54352 445.707 8.01258 445.504C6.83487 445.051 5.90814 444.896 5.22276 445.041V445.051Z" fill="#C7C7AC"/>
<path d="M-23.6312 451.836C-24.5289 451.218 -25.5039 450.745 -26.5562 450.398C-26.9326 450.282 -27.3574 450.06 -27.8208 449.741C-28.8344 449.046 -29.4618 448.139 -29.6935 447.02C-29.9252 445.9 -29.6645 444.781 -28.9019 443.671C-28.1103 442.522 -27.3284 441.798 -26.5272 441.499C-25.7356 441.2 -24.9151 441.335 -24.0849 441.904C-23.6601 442.194 -23.245 442.58 -22.8493 443.053C-22.801 443.111 -22.7238 443.178 -22.6079 443.265C-22.3762 443.429 -22.1349 443.449 -21.8839 443.333C-21.6329 443.217 -21.3916 442.985 -21.1503 442.638C-21.0344 442.426 -20.9186 442.223 -20.8124 442.011C-19.9243 440.129 -18.9879 438.469 -17.9936 437.021C-16.98 435.544 -15.8023 434.135 -14.4701 432.823L-14.0743 432.369C-13.7847 431.944 -13.7847 431.626 -14.0743 431.423C-14.2095 431.327 -14.4122 431.278 -14.6922 431.259C-15.0686 431.23 -15.3969 431.124 -15.6671 430.931C-16.2946 430.506 -16.6421 429.811 -16.7194 428.856C-16.7966 427.9 -16.5263 426.955 -15.8988 425.999C-15.0976 424.831 -14.2288 424.117 -13.3021 423.866C-12.3753 423.615 -11.4197 423.828 -10.4447 424.493C-9.92339 424.851 -9.39245 425.343 -8.87117 425.96C-8.28231 426.646 -7.70312 427.186 -7.14322 427.572C-6.45783 428.035 -5.47319 428.479 -4.18929 428.904C-3.31083 429.213 -2.60613 429.56 -2.05589 429.937C-1.04228 430.632 -0.414814 431.471 -0.173479 432.446C0.0678558 433.431 -0.202431 434.492 -0.994007 435.641C-1.6987 436.673 -2.55786 437.291 -3.55216 437.494C-4.54646 437.696 -5.43457 437.542 -6.18753 437.021C-6.61228 436.731 -6.93084 436.374 -7.12391 435.95C-7.29767 435.66 -7.54865 435.757 -7.88652 436.249C-8.15681 436.635 -8.43677 437.175 -8.73602 437.861C-9.12216 438.768 -9.78824 439.897 -10.7246 441.267C-11.8058 442.85 -13.109 444.539 -14.6439 446.354C-14.7694 446.498 -14.9238 446.701 -15.1169 446.981C-15.5223 447.57 -15.561 447.965 -15.2521 448.178L-14.9238 448.323C-14.7115 448.38 -14.4991 448.487 -14.306 448.612C-13.862 448.921 -13.5144 449.375 -13.2828 449.973C-13.0511 450.571 -12.9835 451.257 -13.0897 452.009C-13.1959 452.762 -13.4951 453.515 -14.0068 454.258C-14.6632 455.214 -15.4644 455.851 -16.4105 456.179C-17.3661 456.497 -18.3025 456.343 -19.2389 455.696C-19.4899 455.522 -19.7216 455.32 -19.9436 455.088C-21.3723 453.621 -22.6079 452.54 -23.6408 451.826L-23.6312 451.836Z" fill="#C7C7AC"/>
<path d="M-18.6019 39.7055C-17.3276 38.9334 -16.1499 38.528 -15.0688 38.4894C-13.9876 38.4508 -12.8292 38.7983 -11.5935 39.5125C-9.13192 40.9698 -6.93095 42.8036 -4.99062 44.9944C-4.20869 45.8727 -3.4847 46.5097 -2.82827 46.8861C-2.16219 47.2721 -1.66987 47.3686 -1.35131 47.166C-1.14859 47.0405 -1.05205 46.8185 -1.0617 46.4904C-1.05205 46.0078 -1.46714 45.0813 -2.30698 43.6818C-3.18544 42.2245 -4.23767 40.7478 -5.45399 39.2519C-5.81117 38.8079 -6.11042 38.364 -6.37106 37.949C-8.01213 35.2466 -7.52946 33.104 -4.92305 31.5212C-3.6295 30.7394 -2.49041 30.5561 -1.50576 30.9807C-0.52112 31.4054 0.318729 32.1775 1.00412 33.3067C1.50609 34.1367 1.87292 34.986 2.1046 35.8739C2.93479 38.9624 4.04493 41.6647 5.45433 43.9907C6.28452 45.3612 7.45258 46.9343 8.9392 48.7102C9.50875 49.3858 9.99141 50.0324 10.3679 50.6597C11.285 52.175 11.6518 53.5262 11.4684 54.7229C11.2753 55.9197 10.6285 57.0489 9.50874 58.1105C9.20949 58.4001 8.86196 58.6703 8.46618 58.9116C7.50084 59.5003 6.48723 59.7706 5.43501 59.7127C4.3828 59.6644 3.3692 59.3749 2.39421 58.8634C1.11031 58.2071 -0.424578 57.1551 -2.2201 55.6977C-4.01563 54.2404 -5.5119 52.8988 -6.69927 51.6635C-7.14332 51.2099 -7.54877 51.1037 -7.9349 51.3353C-8.0797 51.4222 -8.2245 51.5959 -8.3693 51.8469C-8.59133 52.2619 -8.47549 52.8216 -8.04109 53.5551C-7.79975 53.9605 -7.3557 54.5492 -6.71858 55.3213C-6.0525 56.1031 -5.4926 56.7304 -5.03889 57.2033C-3.89979 58.4483 -3.00204 59.51 -2.36491 60.3883C-1.54438 61.5175 -1.24512 62.6853 -1.48645 63.8724C-1.72779 65.0691 -2.54832 66.0922 -3.9384 66.9318C-5.04854 67.6074 -6.12973 67.7522 -7.17229 67.3758C-8.21486 66.9994 -9.0547 66.2852 -9.69182 65.2429C-10.02 64.7024 -10.271 64.0654 -10.4351 63.3319C-10.8406 61.3437 -11.9797 58.8054 -13.8621 55.717C-15.3777 53.2173 -17.1249 50.8045 -19.0846 48.4785C-19.5865 47.8705 -19.9823 47.3397 -20.2623 46.8764C-21.0925 45.5059 -21.44 44.2416 -21.2952 43.0931C-21.1504 41.9446 -20.4939 40.9698 -19.3162 40.1688L-18.6115 39.6959L-18.6019 39.7055Z" fill="#C7C7AC"/>
<path d="M26.6726 18.5498C27.6476 18.9648 28.3619 19.6887 28.8156 20.731C29.1052 21.4066 29.2983 22.1787 29.3948 23.0666C29.4914 23.9546 29.3562 24.7749 28.9701 25.5277C28.5936 26.2805 27.9951 26.8306 27.1939 27.1781C26.3444 27.5448 25.3308 27.6317 24.1434 27.4483C23.5835 27.3518 23.0429 27.4194 22.4927 27.6607C21.759 27.9791 21.2088 28.481 20.842 29.1663C20.4848 29.8515 20.4365 30.5078 20.7068 31.1351C20.8227 31.3957 21.0061 31.6466 21.2667 31.8976C22.6375 33.104 23.5739 34.2911 24.0855 35.4686C24.462 36.3372 24.5971 37.1865 24.5006 38.0262C24.4427 38.4894 24.5006 38.9044 24.655 39.2712C24.8481 39.7248 25.186 40.0626 25.6493 40.2846C26.1224 40.5065 26.5857 40.5838 27.0394 40.5162C27.5221 40.439 27.9082 40.3328 28.2171 40.1977C29.0377 39.8406 29.7231 39.1843 30.2636 38.2288C30.8332 37.2348 31.5379 36.5592 32.3584 36.2021C33.0921 35.8836 33.8451 35.8353 34.598 36.0669C35.351 36.2986 36.0074 36.7329 36.577 37.3892C37.0017 37.9007 37.3203 38.3929 37.523 38.8658C38.1022 40.2074 38.0443 41.5778 37.3396 42.958C36.6349 44.3381 35.3606 45.6024 33.5072 46.7316C32.648 47.2528 31.8178 47.6968 30.9876 48.0539C29.2307 48.8163 27.4835 49.1348 25.7459 49.0093C24.0083 48.8839 22.0969 48.2276 20.0118 47.0501C18.9982 46.4904 17.9073 45.3708 16.7393 43.7204C15.5712 42.0604 14.5576 40.2363 13.6985 38.2481C12.7138 35.9704 12.125 33.9533 11.9319 32.1871C11.5747 28.8671 12.067 26.2033 13.3896 24.1862C14.7121 22.1691 16.5559 20.6538 18.892 19.6501C20.0214 19.1675 21.2667 18.7815 22.6375 18.4919C24.3268 18.1252 25.6686 18.1445 26.6436 18.5595L26.6726 18.5498Z" fill="#C7C7AC"/>
<path d="M40.1679 13.396C41.1525 14.0716 41.9441 15.3938 42.5426 17.353C42.8226 18.2603 43.0832 18.9069 43.3245 19.3123C43.5755 19.7176 43.8844 19.9686 44.2802 20.0554C44.6664 20.1423 45.1973 20.094 45.873 19.8817C46.5488 19.679 47.0508 19.4281 47.3693 19.1289C47.6879 18.8297 47.8713 18.4243 47.9196 17.8839C47.9678 17.353 47.8616 16.6292 47.6106 15.722C47.0894 13.7628 47.0411 12.1703 47.4851 10.9639C47.9292 9.75747 48.9911 8.94676 50.6708 8.53175C52.418 8.09744 53.8178 8.1264 54.8796 8.61861C55.9415 9.11083 56.6752 9.99875 57.0613 11.2824C57.3992 12.3923 57.486 13.811 57.3219 15.5386C57.2544 16.2045 57.3123 17.2083 57.486 18.5595C57.6598 19.9106 57.9784 21.3101 58.4128 22.7578C59.3492 25.8076 60.6524 28.2204 62.332 30.0059C62.7761 30.4885 63.1043 31.0676 63.307 31.7431C63.6353 32.8048 63.6063 33.8761 63.2298 34.9474C62.8533 36.0283 62.11 36.868 60.9902 37.4857C60.5751 37.7366 60.0828 37.9489 59.5133 38.1227C58.3162 38.4894 57.1771 38.4701 56.1056 38.0551C55.0244 37.6401 54.1556 36.8583 53.4799 35.7098C53.0745 35.0439 52.6594 34.0016 52.225 32.5732C52.1188 32.2161 51.8581 31.2413 51.443 29.6585L51.1534 28.5968C50.9797 28.037 50.6901 27.6799 50.2846 27.5255C49.8792 27.3808 49.3193 27.4097 48.5953 27.6317C47.4659 27.9791 46.7322 28.3266 46.3943 28.674C46.0565 29.0215 45.9599 29.5137 46.1047 30.1314C46.1433 30.3437 46.2206 30.6236 46.3267 30.9903C46.5005 31.5598 46.7129 32.1292 46.9832 32.6986C47.2535 33.2681 47.5045 33.8085 47.7458 34.3007C48.3443 35.4493 48.7304 36.3082 48.9042 36.8776C49.3096 38.2095 49.2035 39.358 48.576 40.3328C47.9485 41.3076 46.7612 42.0507 45.0235 42.5816C43.1701 43.151 41.7704 43.1413 40.8147 42.5719C39.859 42.0025 39.1253 40.8829 38.6137 39.2036C38.2372 37.9586 38.0248 36.8487 37.9862 35.8739C37.9476 34.8991 37.9862 33.6638 38.0924 32.1775C38.16 31.1158 38.0152 30.0059 37.658 28.8285C37.1657 27.207 36.2872 25.6049 35.0419 24.0318C34.1345 22.9219 33.4781 21.6961 33.063 20.3353C32.561 18.6849 32.5514 17.1986 33.0437 15.8571C33.536 14.5252 34.5207 13.6276 35.988 13.1837C37.7739 12.6432 39.1543 12.7011 40.1389 13.3767L40.1679 13.396Z" fill="#C7C7AC"/>
<path d="M67.6126 35.3431C66.8692 35.0825 66.2321 34.6482 65.6915 34.0498C65.1509 33.4514 64.8131 32.7276 64.6586 31.8976C64.5428 31.2702 64.5717 30.585 64.7262 29.8322C64.9289 28.8091 65.0061 27.4483 64.9675 25.7207C64.9289 24.0028 64.7552 22.3331 64.4656 20.702C64.0891 18.5884 63.5774 16.9863 62.9307 15.9053C61.8784 14.1971 61.2317 12.6142 60.971 11.1472C60.6814 9.54513 60.8842 8.25185 61.5695 7.25776C62.2549 6.27333 63.2782 5.65565 64.62 5.41436C65.3633 5.27925 66.1163 5.2696 66.8789 5.37576C67.516 5.45297 68.2497 5.41436 69.0895 5.2696C70.0452 5.09587 71.194 4.76773 72.5454 4.25621C73.5783 3.87981 74.5147 3.61922 75.3546 3.4648C77.3045 3.11735 79.0421 3.21387 80.5674 3.75434C82.0926 4.29481 83.3089 5.16343 84.226 6.34089C85.1431 7.51835 85.7512 8.85023 86.0408 10.3365C86.4173 12.3054 86.4173 14.004 86.0408 15.4324C85.6547 16.8608 84.6894 18.1251 83.1352 19.2447C82.8166 19.4667 82.5946 19.6693 82.4691 19.8527C82.3436 20.0361 82.305 20.2195 82.3436 20.4318C82.4015 20.7599 82.7201 21.1363 83.2993 21.5707C83.8785 22.005 84.9018 22.6709 86.3498 23.5588C87.0545 23.9835 87.653 24.5529 88.1453 25.2671C88.6376 25.9813 88.9658 26.7341 89.1106 27.5255C89.2361 28.2204 89.1878 28.8863 88.9851 29.5233C88.7824 30.1603 88.377 30.7104 87.7881 31.1737C86.8421 31.9169 85.8188 32.3898 84.728 32.5828C83.5213 32.7951 82.3726 32.6504 81.301 32.1292C80.2199 31.6177 79.3607 30.7201 78.6946 29.4461L77.4687 27.0043C76.8315 25.7304 76.3489 24.7942 76.0206 24.2055C75.6924 23.6167 75.3352 23.1535 74.9684 22.8253C74.6016 22.4972 74.2058 22.3717 73.7811 22.4393C73.5976 22.4682 73.4046 22.5454 73.2115 22.6516C72.7095 22.9315 72.584 23.7905 72.8447 25.2381C72.9026 25.5856 73.0378 26.2033 73.2405 27.0719C73.4432 27.7764 73.617 28.5679 73.7714 29.4268C74.0707 31.1254 73.8486 32.5056 73.086 33.5576C72.3234 34.6096 71.2519 35.2659 69.8521 35.5168C69.1088 35.6519 68.3655 35.5844 67.6222 35.3238L67.6126 35.3431ZM77.5266 13.6469C77.7486 13.2609 77.8258 12.8941 77.7582 12.5467C77.6617 11.9869 77.237 11.5816 76.4937 11.3306C75.7503 11.0797 74.7174 11.07 73.3949 11.3113C72.6034 11.4561 72.0724 11.6877 71.7925 12.0255C71.5125 12.3633 71.4256 12.8073 71.5318 13.367L71.7152 13.9847C71.9083 14.5252 72.2751 14.9499 72.8254 15.249C73.3756 15.5482 73.9934 15.6351 74.6885 15.5096C75.2966 15.4035 75.9048 15.1332 76.5226 14.7182C76.9667 14.3997 77.3045 14.0426 77.5169 13.6566L77.5266 13.6469Z" fill="#C7C7AC"/>
<path d="M98.0205 1.66001C99.1017 1.5828 100.164 1.35116 101.206 0.965113C101.573 0.820343 102.046 0.72383 102.606 0.685225C103.832 0.598363 104.884 0.916856 105.763 1.6407C106.641 2.36455 107.133 3.40689 107.23 4.74843C107.336 6.13821 107.162 7.19986 106.738 7.9237C106.313 8.64755 105.579 9.05291 104.566 9.13012C104.044 9.16872 103.484 9.13012 102.886 9.00465C102.809 8.98535 102.702 8.98535 102.567 8.995C102.287 9.0143 102.085 9.14942 101.959 9.40035C101.834 9.64164 101.785 9.97943 101.824 10.4041C101.863 10.6357 101.901 10.877 101.949 11.1086C102.432 13.1354 102.731 15.0174 102.857 16.7547C102.992 18.5498 102.944 20.3739 102.731 22.2366L102.702 22.8446C102.741 23.3658 102.934 23.6071 103.291 23.5781C103.455 23.5685 103.648 23.4816 103.88 23.3272C104.199 23.1149 104.517 22.999 104.845 22.9701C105.598 22.9122 106.303 23.2403 106.96 23.9352C107.616 24.6301 107.992 25.547 108.099 26.6762C108.205 28.0853 107.973 29.1855 107.394 29.9576C106.824 30.7297 105.946 31.1641 104.768 31.2509C104.131 31.2992 103.417 31.2509 102.625 31.0868C101.737 30.9131 100.946 30.8552 100.27 30.9035C99.4493 30.9614 98.397 31.2316 97.1324 31.7045C96.254 32.0037 95.4817 32.1774 94.8253 32.2257C93.5993 32.3126 92.5857 32.052 91.7845 31.4343C90.9832 30.8166 90.5295 29.8129 90.4233 28.4231C90.3365 27.1781 90.6164 26.1647 91.2632 25.3733C91.9196 24.5915 92.7015 24.1669 93.6186 24.0993C94.1399 24.0607 94.6033 24.1476 95.0183 24.3502C95.3369 24.466 95.4721 24.2344 95.4238 23.6457C95.3852 23.1728 95.2693 22.584 95.0763 21.8602C94.8156 20.9047 94.6226 19.6114 94.5067 17.9611C94.3716 16.0501 94.3233 13.9172 94.3909 11.5429C94.3909 11.3499 94.3909 11.0893 94.3716 10.7612C94.3233 10.0566 94.1013 9.71885 93.7248 9.7478L93.3773 9.84431C93.1746 9.93118 92.9525 9.97943 92.7112 9.99874C92.1706 10.0373 91.6204 9.89257 91.0605 9.56443C90.5006 9.23628 90.0276 8.74407 89.6414 8.08778C89.2456 7.43149 89.0236 6.64973 88.956 5.76181C88.8691 4.60365 89.1008 3.60957 89.6414 2.76026C90.182 1.91094 91.0218 1.44768 92.1513 1.37047C92.4602 1.35116 92.7691 1.37047 93.078 1.40907C95.1052 1.66001 96.7463 1.74687 98.0012 1.65036L98.0205 1.66001Z" fill="#C7C7AC"/>
<path d="M112.057 28.3555C110.213 26.792 109.373 24.495 109.547 21.4742C109.624 20.1037 110.078 19.0999 110.908 18.4436C111.738 17.7874 112.732 17.4785 113.891 17.5075C114.972 17.5364 115.918 17.826 116.71 18.3664C117.501 18.9166 117.858 19.6018 117.791 20.4318C117.723 21.3487 117.936 22.0918 118.428 22.642C118.92 23.2017 119.644 23.4816 120.59 23.5106C121.671 23.5395 122.56 23.3079 123.245 22.8157C123.93 22.3235 124.278 21.6672 124.297 20.8372C124.297 20.4318 124.23 20.0361 124.075 19.6308C123.853 19.0324 123.361 18.5498 122.608 18.1831C121.855 17.8163 120.706 17.382 119.181 16.8994C117.771 16.4651 116.796 16.137 116.266 15.9054C112.877 14.477 111.033 12.3923 110.744 9.64166C110.686 9.13979 110.657 8.65722 110.676 8.18431C110.724 6.22509 111.294 4.53612 112.395 3.12702C113.495 1.70828 115.097 0.791408 117.212 0.36675C118.592 0.0965138 120.04 -0.0289532 121.575 0.00965207C123.419 0.0482573 125.166 0.299191 126.817 0.7335C128.467 1.17746 129.742 1.72758 130.62 2.38387C131.74 3.18493 132.57 4.0632 133.13 5.00903C133.69 5.95486 133.951 6.86208 133.931 7.74035C133.912 8.73443 133.535 9.56445 132.811 10.2304C131.943 11.0314 130.9 11.4271 129.703 11.3982C128.873 11.3789 128.062 11.1666 127.251 10.7516C126.45 10.3462 125.745 9.81538 125.147 9.15909C124.22 8.16501 123.255 7.66314 122.241 7.63418C121.749 7.62453 121.334 7.7307 121.015 7.96233C120.687 8.19396 120.523 8.4835 120.513 8.8406C120.503 9.31351 120.764 9.75747 121.295 10.1725C121.893 10.655 122.646 11.128 123.534 11.5719C124.423 12.0159 125.6 12.566 127.077 13.2126C127.637 13.4346 128.458 13.8014 129.529 14.2936C130.91 14.9402 132.001 15.9247 132.811 17.2372C133.622 18.5595 133.941 20.0072 133.786 21.5803C133.477 24.6012 132.232 26.9175 130.041 28.5389C127.85 30.1603 124.683 30.9324 120.523 30.8263C116.719 30.7394 113.9 29.9094 112.057 28.3362V28.3555Z" fill="#C7C7AC"/>
<path d="M149.57 3.01119C151.066 3.22352 153.219 3.37794 156.018 3.48411C156.395 3.48411 156.945 3.54201 157.64 3.63853C159.561 3.90876 160.98 4.50715 161.897 5.43367C162.814 6.3602 163.171 7.60522 162.949 9.17838C162.524 12.1992 160.97 13.5215 158.287 13.1451C157.495 13.0389 156.588 12.7687 155.574 12.3344L155.13 12.1992C154.425 12.1027 153.827 12.4984 153.334 13.396C152.842 14.2936 152.485 15.5 152.273 17.0249C151.944 19.4088 151.973 21.7637 152.359 24.08C152.659 25.8365 152.726 27.3614 152.543 28.6451C152.321 30.2086 151.732 31.3088 150.776 31.9362C149.821 32.5635 148.546 32.7662 146.954 32.5442C145.033 32.274 143.662 31.5405 142.832 30.3244C142.001 29.1083 141.702 27.6317 141.953 25.8751C142.117 24.6784 142.474 22.8832 143.025 20.4801C143.575 18.0769 144.106 15.7895 144.627 13.618L145.023 12.0641C145.264 11.0218 145.052 10.462 144.405 10.3655C144.222 10.3365 143.98 10.3655 143.681 10.4427C142.455 10.8191 141.374 10.9446 140.409 10.8094C139.424 10.6743 138.632 10.269 138.034 9.60304C137.435 8.9371 137.059 8.05883 136.904 6.95858C136.798 6.35054 136.789 5.70391 136.885 5.02832C137.078 3.62888 137.735 2.58653 138.854 1.92059C139.974 1.25465 141.287 1.02302 142.812 1.23535C143.585 1.34152 144.338 1.55384 145.081 1.87234C146.249 2.37421 147.745 2.74096 149.57 3.00154V3.01119Z" fill="#C7C7AC"/>
<path d="M169.948 24.9293C169.407 23.9449 169.282 22.9025 169.571 21.783C169.851 20.6827 170.421 19.7852 171.29 19.0806C171.83 18.6849 172.467 18.4243 173.191 18.3085C173.915 18.1927 174.63 18.2216 175.344 18.405C176.483 18.6946 177.352 19.3026 177.951 20.2098C178.25 20.7503 178.453 21.4066 178.539 22.169C178.626 22.9315 178.588 23.6746 178.414 24.3888C178.134 25.4601 177.535 26.2612 176.609 26.7824C175.682 27.3035 174.398 27.3518 172.747 26.9271C171.425 26.5893 170.489 25.9234 169.948 24.9486V24.9293Z" fill="#C7C7AC"/>
</g>
<defs>
<clipPath id="clip0_2065_385">
<rect width="496" height="496" fill="white" transform="translate(-132)"/>
</clipPath>
</defs>
</svg>
