<svg width="1348" height="103" viewBox="0 0 1348 103" fill="none" xmlns="http://www.w3.org/2000/svg">
<path d="M73.44 0.799993L70.56 24.32L68.16 24.68L63.6 13.28C60.84 6.68 60 5.84 53.52 5.84H46.44V71.96C46.44 78.68 46.8 78.8 54 80.48L57.24 81.2V83H17.64V81.2L21 80.48C27.36 79.16 27.84 78.56 27.84 71.96V5.84H20.76C15.24 5.84 13.2 7.64 9 14.6L2.76 24.8L0.6 24.32L3.48 0.799993H4.8C4.8 0.799993 6.12 2.24 9.72 2.24H67.32C70.56 2.24 72.24 0.799993 72.24 0.799993H73.44ZM156.143 42.2C156.143 66.92 138.263 84.44 113.423 84.44C88.3434 84.44 71.5434 68.48 71.5434 43.28C71.5434 17.72 89.4234 0.799993 114.863 0.799993C139.703 0.799993 156.143 17.6 156.143 42.2ZM136.463 47.48C136.463 32.12 133.583 4.51999 112.943 4.51999C95.6634 4.51999 91.2234 24.56 91.2234 38.6C91.2234 54.08 94.8234 80.72 115.223 80.72C132.143 80.72 136.463 61.28 136.463 47.48ZM241.397 41.36C241.397 57.56 234.557 70.04 222.797 77C216.197 80.84 208.037 83 195.797 83H158.597V81.2L162.317 80.36C166.397 79.4 166.997 78.68 166.997 73.52V13.4C166.997 6.08 166.877 5.71999 161.237 4.63999L158.357 4.03999V2.24H174.677C182.597 2.24 190.397 1.27999 198.317 1.27999C224.117 1.27999 241.397 14.6 241.397 41.36ZM221.717 43.04C221.717 18.44 211.757 5 195.077 5C191.957 5 189.437 5.36 185.717 5.6V76.52C185.717 78.32 186.677 79.4 188.357 79.4H192.437C202.037 79.4 208.037 77.24 212.477 73.04C218.837 67.04 221.717 56.84 221.717 43.04ZM292.176 72.92L283.896 51.44H256.416L252.096 63.56C250.896 66.8 250.056 70.28 250.056 72.08C250.056 75.68 252.576 78.32 257.016 80.12L259.656 81.2V83H237.576V81.56L238.176 80.84C240.216 78.32 242.736 75.2 245.016 68.84L263.256 18.8C266.136 11 267.096 6.92 268.056 2.24H285.456C286.536 6.68 288.096 11 290.856 18.2L310.656 68.6C314.256 77.72 315.696 78.8 319.296 81.32V83H286.776V81.2L289.176 80.84C291.456 80.48 293.016 79.28 293.016 76.64C293.016 75.56 292.776 74.36 292.176 72.92ZM269.616 14L257.976 46.88H282.216L269.616 14ZM333.421 70.76V46.52L313.861 12.8C310.141 6.31999 308.461 5.36 305.581 4.51999L304.021 4.03999V2.24H340.981V4.03999L338.701 4.4C334.981 5 333.541 6.31999 333.541 8.36C333.541 9.68 334.141 11.24 335.101 12.92L350.581 40.4L361.021 21.68C364.261 15.56 364.741 13.76 364.741 11.72C364.741 8.84 363.181 6.19999 359.461 4.88L356.941 4.03999V2.24H380.821V4.03999L379.981 4.51999C374.941 7.16 372.421 10.4 367.741 18.8L352.261 46.52V70.76C352.261 78.68 352.981 79.4 358.621 80.6L361.381 81.2V83H324.781V81.2L327.541 80.6C333.181 79.4 333.421 78.68 333.421 70.76ZM389.374 78.32C389.374 89.84 379.534 98.24 371.014 102.8L369.454 100.76C375.334 96.44 380.614 92 380.614 86.96C380.614 84.56 379.294 82.88 376.654 81.92L374.614 81.2C370.174 79.64 369.094 76.4 369.094 73.16C369.094 68.84 372.454 64.88 377.854 64.88C384.214 64.88 389.374 70.04 389.374 78.32ZM463.387 72.92L455.107 51.44H427.627L423.307 63.56C422.107 66.8 421.267 70.28 421.267 72.08C421.267 75.68 423.787 78.32 428.227 80.12L430.867 81.2V83H408.787V81.56L409.387 80.84C411.427 78.32 413.947 75.2 416.227 68.84L434.467 18.8C437.347 11 438.307 6.92 439.267 2.24H456.667C457.747 6.68 459.307 11 462.067 18.2L481.867 68.6C485.467 77.72 486.907 78.8 490.507 81.32V83H457.987V81.2L460.387 80.84C462.667 80.48 464.227 79.28 464.227 76.64C464.227 75.56 463.987 74.36 463.387 72.92ZM440.827 14L429.187 46.88H453.427L440.827 14ZM565.39 60.2C565.39 68.96 558.67 83 533.11 83H493.63V81.2L496.03 80.84C501.31 80 502.27 79.16 502.27 71.36V15.08C502.27 6.44 501.91 5.96 496.03 4.76L493.63 4.03999V2.24H503.83C512.71 2.24 521.71 1.4 531.91 1.4C548.59 1.4 560.95 7.16 560.95 20C560.95 29.48 552.55 38.24 541.27 38.96V39.32C557.11 41.24 565.39 49.4 565.39 60.2ZM542.95 21.08C542.95 12.08 538.63 5.24 528.79 5.24C525.07 5.24 522.19 5.6 520.99 5.71999V37.52H528.79C538.15 37.4 542.95 32.6 542.95 21.08ZM546.19 60.2C546.19 47.24 540.67 41.12 529.03 41H520.99V67.76C520.99 77.24 522.91 79.4 529.75 79.4H532.63C542.83 79.4 546.19 69.92 546.19 60.2ZM603.576 83H567.576V81.2L570.336 80.6C575.976 79.4 576.216 78.68 576.216 70.76V15.56C576.216 6.19999 575.856 5.84 570.336 4.63999L567.576 4.03999V2.24H603.576V4.03999L600.816 4.63999C595.296 5.84 594.936 6.19999 594.936 15.56V70.76C594.936 78.68 595.176 79.4 600.816 80.6L603.576 81.2V83ZM689.756 41.36C689.756 57.56 682.916 70.04 671.156 77C664.556 80.84 656.396 83 644.156 83H606.956V81.2L610.676 80.36C614.756 79.4 615.356 78.68 615.356 73.52V13.4C615.356 6.08 615.236 5.71999 609.596 4.63999L606.716 4.03999V2.24H623.036C630.956 2.24 638.756 1.27999 646.676 1.27999C672.476 1.27999 689.756 14.6 689.756 41.36ZM670.076 43.04C670.076 18.44 660.116 5 643.436 5C640.316 5 637.796 5.36 634.076 5.6V76.52C634.076 78.32 635.036 79.4 636.716 79.4H640.796C650.396 79.4 656.396 77.24 660.836 73.04C667.196 67.04 670.076 56.84 670.076 43.04ZM757.552 59.84L754.192 83H691.912V81.2L695.032 80.48C699.352 79.52 700.552 77.96 700.552 72.08V12.56C700.552 6.31999 698.992 5.36 695.272 4.63999L691.912 4.03999V2.24H752.152L751.072 22.52H748.912L744.952 14.48C741.112 6.79999 738.352 5.84 730.312 5.84H719.272V40.28H734.392C739.432 40.28 741.592 39.08 744.712 33.92L746.272 31.28H748.432V54.08H746.152L744.592 50.84C741.832 45.2 739.192 44.12 734.392 44.12H719.272V74C719.272 78.32 720.592 79.4 725.152 79.4H733.432C740.032 79.4 744.352 77.72 751.912 65.36L755.272 59.84H757.552ZM817.326 83H781.326V81.2L784.086 80.6C789.726 79.4 789.966 78.68 789.966 70.76V15.56C789.966 6.19999 789.606 5.84 784.086 4.63999L781.326 4.03999V2.24H817.326V4.03999L814.566 4.63999C809.046 5.84 808.686 6.19999 808.686 15.56V70.76C808.686 78.68 808.926 79.4 814.566 80.6L817.326 81.2V83ZM897.626 17.6V84.32H889.826L834.266 15.92V67.88C834.266 75.2 835.466 76.76 841.706 80L843.986 81.2V83H820.466V81.2L822.986 79.76C828.626 76.64 829.346 74.36 829.346 67.64V14.36C829.346 7.52 828.026 5.96 824.546 4.76L822.386 4.03999V2.24H846.386L892.706 59.36V17.36C892.706 10.04 891.746 8.47999 885.506 5.24L883.226 4.03999V2.24H906.266V4.03999L903.746 5.48C898.106 8.6 897.626 10.88 897.626 17.6ZM1003.93 63.56C1003.09 67.64 1000.81 75.08 999.608 79.16C995.768 80.96 991.688 82.28 987.248 83.12C983.048 83.96 977.768 84.44 972.368 84.44C950.048 84.44 932.168 71.72 932.168 42.68C932.168 16.76 951.008 0.799993 975.248 0.799993C982.928 0.799993 990.608 2 997.328 5.71999L1001.53 1.75999H1002.85V29.24H1000.69C994.808 12.92 987.728 4.51999 975.968 4.51999C956.648 4.51999 952.448 25.28 952.448 41.36C952.448 65.48 961.928 79.64 978.248 79.64C988.448 79.64 996.008 74.24 1002.25 62.72L1003.93 63.56ZM1094.63 83H1058.63V81.2L1061.39 80.6C1067.03 79.4 1067.27 78.68 1067.27 70.76V44.12H1034.39V70.76C1034.39 78.92 1034.39 79.4 1040.15 80.6L1043.03 81.2V83H1007.03V81.2L1009.79 80.6C1015.31 79.4 1015.67 78.8 1015.67 70.76V15.56C1015.67 6.79999 1015.07 5.84 1009.79 4.63999L1007.03 4.03999V2.24H1043.03V4.03999L1040.27 4.63999C1034.39 5.96 1034.39 7.16 1034.39 14.72V39.44H1067.27V15.56C1067.27 6.19999 1066.91 5.84 1061.39 4.63999L1058.63 4.03999V2.24H1094.63V4.03999L1091.87 4.63999C1086.35 5.84 1085.99 6.19999 1085.99 15.56V70.76C1085.99 78.68 1086.23 79.4 1091.87 80.6L1094.63 81.2V83ZM1147.41 24.8C1147.41 13.88 1142.13 5.11999 1132.17 5.11999C1130.49 5.11999 1126.77 5.36 1125.09 5.84V44.36H1129.17C1141.29 44.36 1147.41 40.04 1147.41 24.8ZM1176.21 83C1172.13 83.48 1167.45 83.72 1163.97 83.72C1159.29 83.72 1156.41 83.24 1153.41 82.16C1145.49 79.4 1133.25 56.36 1129.53 47.84H1125.09V71.96C1125.09 79.16 1125.93 79.4 1130.49 80.48L1133.73 81.2V83H1097.73V81.2L1100.49 80.6C1105.65 79.52 1106.37 79.04 1106.37 71.96V14.24C1106.37 6.44 1105.77 5.84 1100.49 4.63999L1097.73 4.03999V2.24H1108.05C1116.93 2.24 1125.93 1.4 1134.81 1.4C1149.81 1.4 1166.37 5.48 1166.37 23.6C1166.37 35.24 1157.73 41.96 1148.49 44.72C1154.01 56.24 1161.33 66.92 1166.85 73.16C1170.09 76.76 1172.25 79.04 1176.33 81.2L1176.21 83ZM1215.41 83H1179.41V81.2L1182.17 80.6C1187.81 79.4 1188.05 78.68 1188.05 70.76V15.56C1188.05 6.19999 1187.69 5.84 1182.17 4.63999L1179.41 4.03999V2.24H1215.41V4.03999L1212.65 4.63999C1207.13 5.84 1206.77 6.19999 1206.77 15.56V70.76C1206.77 78.68 1207.01 79.4 1212.65 80.6L1215.41 81.2V83ZM1273.99 59.84C1273.99 74.24 1264.39 84.44 1246.15 84.44C1240.39 84.44 1231.27 83.24 1225.99 80.84L1222.87 83.6H1221.55L1218.55 56.48L1220.59 55.88L1225.27 64.76C1229.95 73.64 1234.87 81.2 1245.91 81.2C1255.27 81.2 1259.23 74.84 1259.23 68.36C1259.23 57.44 1246.63 52.88 1235.47 46.52C1226.71 41.6 1219.03 35.48 1219.03 24.32C1219.03 13.28 1228.03 0.799993 1246.27 0.799993C1252.99 0.799993 1257.55 2 1263.07 4.51999L1266.91 1.64H1268.35L1269.79 24.92H1267.27L1264.51 19.64C1257.79 6.92 1251.91 4.03999 1245.91 4.03999C1237.75 4.03999 1233.07 9.68 1233.07 15.44C1233.07 24.32 1240.03 28.52 1253.59 35.24C1263.79 40.4 1273.99 46.52 1273.99 59.84ZM1347.62 0.799993L1344.74 24.32L1342.34 24.68L1337.78 13.28C1335.02 6.68 1334.18 5.84 1327.7 5.84H1320.62V71.96C1320.62 78.68 1320.98 78.8 1328.18 80.48L1331.42 81.2V83H1291.82V81.2L1295.18 80.48C1301.54 79.16 1302.02 78.56 1302.02 71.96V5.84H1294.94C1289.42 5.84 1287.38 7.64 1283.18 14.6L1276.94 24.8L1274.78 24.32L1277.66 0.799993H1278.98C1278.98 0.799993 1280.3 2.24 1283.9 2.24H1341.5C1344.74 2.24 1346.42 0.799993 1346.42 0.799993H1347.62Z" fill="#FFB654" fill-opacity="0.6"/>
</svg>
