<svg width="165" height="173" viewBox="0 0 165 173" fill="none" xmlns="http://www.w3.org/2000/svg">
<g clip-path="url(#clip0_2065_357)">
<path d="M141.152 63.4407C141.076 62.715 140.761 62.0241 140.029 61.5105C139.776 61.2692 139.482 61.1016 139.137 60.9789C130.632 56.2643 121.623 52.311 112.855 48.1047C100.581 42.2216 88.3276 36.3016 75.8191 30.9188C73.3526 29.8574 69.7001 27.5367 66.9023 27.7491C64.0964 27.9326 62.3049 31.2275 60.8158 33.2565C53.0515 43.7076 45.8955 54.6751 38.6787 65.535C32.3575 75.0276 25.6133 84.4503 19.8973 94.3358C19.3965 95.2208 19.4051 96.1518 19.744 96.9294C19.7759 97.0451 19.771 97.1397 19.803 97.2554C22.9473 110.668 25.6332 124.333 29.5933 137.551C31.1055 142.579 32.762 147.566 34.3608 152.57C35.8877 157.313 37.7946 171.192 45.5509 168.584C48.536 168.6 51.6917 167.884 54.4594 167.338C59.3522 166.392 64.218 165.235 69.0311 163.999C79.4729 161.334 89.8876 158.459 100.218 155.389C110.267 152.428 120.306 149.314 130.323 146.237C135.101 144.762 139.879 143.288 144.657 141.813C149.291 140.378 155.552 139.552 159.398 136.499C161.235 135.058 161.387 132.682 160.066 131.274C159.904 129.109 159.092 126.844 158.591 124.805C157.13 118.612 155.763 112.425 154.273 106.24C150.791 91.8309 145.773 77.8151 141.289 63.7138C141.266 63.6271 141.242 63.5404 141.181 63.4327L141.152 63.4407ZM152.802 130.603C135.246 117.622 118.011 104.117 100.426 91.1439C96.1354 87.9726 91.8813 84.8224 87.5983 81.6801C98.7632 78.5975 109.867 75.4073 120.963 72.1882C126.057 70.8441 131.187 69.521 136.297 68.2348C140.041 79.771 144.031 91.3014 147.149 103.042C148.237 107.097 149.153 111.2 150.097 115.295C150.847 118.573 151.625 121.843 152.375 125.121C152.479 125.497 153.051 128.357 153.749 130.435C153.432 130.523 153.099 130.553 152.781 130.64L152.802 130.603ZM44.454 160.113C44.2355 160.671 43.7477 162.953 43.2394 163.249C44.7353 162.369 40.9522 153.052 40.259 150.879C38.7401 146.165 37.1923 141.458 35.7599 136.72C31.9624 124.203 29.3319 111.301 26.3999 98.5454C31.4536 97.0568 36.5072 95.5682 41.5897 94.0716C52.8024 91.1625 63.9912 88.1667 75.1561 85.0841C68.8432 100.455 62.5015 115.834 56.2174 131.196C52.2883 140.806 48.3015 150.432 44.4828 160.105L44.454 160.113ZM68.5084 33.3417C68.5084 33.3417 68.4698 33.5391 68.4201 33.5839C68.4538 33.4813 68.4956 33.4075 68.5084 33.3417ZM62.1963 41.7428C63.4865 39.8931 64.8055 38.0355 66.1404 36.2357C66.3939 35.9168 67.3017 35.0439 67.929 34.2795C69.3624 34.9728 71.0523 35.4707 72.4986 36.0982C84.1551 41.0939 95.5771 46.59 107.028 52.0781C114.686 55.7508 122.507 59.2232 130.098 63.1012C126.508 64.1547 122.917 65.2082 119.356 66.2537C92.797 73.1819 66.284 80.502 39.9325 88.1819C36.2815 89.1277 32.6593 90.0655 29.0082 91.0113C39.2484 74.1207 50.8899 57.8077 62.1963 41.7428ZM129.039 138.098C118.712 141.291 108.414 144.477 98.0466 147.526C87.9971 150.487 77.9396 153.419 67.8182 156.12C62.9923 157.422 58.1873 158.686 53.3614 159.987C52.5536 160.21 51.7169 160.441 50.8435 160.651C51.0073 160.233 51.1423 159.822 51.2853 159.44C53.2677 154.475 55.2869 149.53 57.2981 144.557C62.4995 131.795 67.7298 119.026 72.968 106.286C75.9059 99.1583 78.815 92.0391 81.761 84.9407C97.8584 96.7999 113.964 108.688 129.957 120.732C135.204 124.666 140.271 128.961 145.504 132.96C144.77 133.225 144.057 133.453 143.344 133.681C138.566 135.156 133.788 136.631 129.01 138.106L129.039 138.098Z" fill="#1D262D"/>
<path d="M72.2148 70.4948C74.108 71.2789 76.0348 71.9604 77.9955 72.5391C78.2662 72.62 78.5547 72.5403 78.7456 72.3321C81.2271 69.6245 83.9542 66.5692 85.3357 63.1386C86.3447 60.4954 87.1584 57.5949 86.6518 54.7479C86.2232 52.4083 84.6473 50.0742 82.1883 49.6019C79.9919 49.1816 77.5747 50.0979 75.9948 51.6853C74.7838 52.9219 74.1332 54.5017 73.8767 56.1593C72.4844 54.4902 70.603 53.2984 68.3342 53.178C65.556 53.0117 62.571 54.4581 61.8806 57.3556C60.4146 63.5164 67.3427 68.4797 72.2148 70.4948Z" fill="#1D262D"/>
<path d="M107.472 31.4204C109.943 32.3871 112.119 31.382 113.629 29.3161C115.504 26.7759 116.884 23.5636 118.068 20.6543C119.156 17.9583 120.328 14.8964 118.916 12.1438C118.52 11.3821 117.481 10.7668 116.633 10.8452C113.308 11.1721 111.289 14.0941 109.479 16.6473C107.536 19.3929 105.738 22.4406 104.523 25.5762C103.657 27.8376 105.382 30.5974 107.464 31.3915L107.472 31.4204Z" fill="#1D262D"/>
<path d="M95.6734 26.2462C96.2306 23.541 96.8454 20.8199 97.1399 18.0628C97.4245 15.4951 97.9191 12.9006 96.6766 10.5368C95.9202 9.03435 93.7975 8.65588 92.4379 9.46685C90.1196 10.8537 89.2579 13.5806 88.2717 15.9687C87.2516 18.4594 86.6785 21.1067 86.1919 23.7302C85.0383 29.898 94.3547 32.4907 95.6734 26.2462Z" fill="#1D262D"/>
<path d="M131.594 27.2495C126.902 27.7982 122.435 30.9607 118.569 33.4903C113.26 36.9784 118.198 45.416 123.654 42.0117C127.817 39.4313 132.844 35.7098 134.393 30.8638C134.904 29.2292 133.426 27.0238 131.587 27.2206L131.594 27.2495Z" fill="#1D262D"/>
<path d="M25.8965 53.5383C28.1789 54.495 30.7091 54.3254 32.2607 52.1857C33.5877 50.357 33.7495 47.232 31.8011 45.6854C29.1498 43.6171 26.0431 41.9236 22.9664 40.5639C20.1028 39.3011 16.8709 37.8287 13.849 39.2542C13.0811 39.6218 12.484 40.7201 12.5552 41.5405C12.7555 44.6276 15.362 46.646 17.6499 48.4101C20.1668 50.3288 22.9912 52.3492 25.9045 53.5672L25.8965 53.5383Z" fill="#1D262D"/>
<path d="M39.7336 41.6907C44.0326 46.3532 50.7358 39.3687 46.5811 34.6664C44.8174 32.6643 42.9671 30.686 40.8137 29.0715C38.7339 27.4988 36.6031 25.6291 33.9016 25.6283C32.3186 25.6298 30.6908 27.0437 30.8124 28.7214C30.9955 31.4088 32.7144 33.3611 34.2761 35.419C35.9435 37.6345 37.8674 39.6546 39.7336 41.6907Z" fill="#1D262D"/>
<path d="M23.8131 69.6082C30.2142 69.7388 30.1442 59.9262 23.8057 59.685C19.1896 59.4971 13.7038 59.0826 9.4236 61.0111C7.7356 61.7572 7.60626 64.4375 8.88373 65.5783C12.7002 68.9427 18.9245 69.5578 23.8211 69.6371L23.8131 69.6082Z" fill="#1D262D"/>
</g>
<defs>
<clipPath id="clip0_2065_357">
<rect width="131" height="143" fill="white" transform="translate(0 34.8638) rotate(-15.4344)"/>
</clipPath>
</defs>
</svg>
