<svg width="150" height="134" viewBox="0 0 150 134" fill="none" xmlns="http://www.w3.org/2000/svg">
<g clip-path="url(#clip0_2065_312)">
<path d="M90.9235 45.8969C78.9574 38.2316 62.9398 40.5975 53.9888 51.9534C45.3676 62.9308 48.7124 79.3496 60.0661 87.0148C85.4586 104.238 117.023 67.2366 91.7715 46.5593C87.5786 43.1525 81.5485 49.1144 85.7884 52.5685C93.7501 59.0982 95.4932 69.4604 87.8142 77.1257C82.3965 82.5198 73.5397 84.6017 66.6144 81.0057C57.5692 76.3686 54.3657 64.1137 61.3852 56.2592C68.0277 48.8305 78.5334 48.0734 86.6364 53.2309C91.2532 56.1645 95.4932 48.8305 90.9235 45.8969Z" fill="#1D262D"/>
<path d="M141.143 53.0417C127.622 44.714 110.757 46.9379 96.765 53.3729C98.1783 55.8334 99.5917 58.2465 101.052 60.707C112.83 53.8934 126.209 45.9916 131.58 32.6483C136.479 20.4407 131.344 8.13847 119.378 2.79172C93.4202 -8.75348 73.7751 17.6017 70.1946 40.4556C72.9742 40.8341 75.7537 41.2126 78.4861 41.5911C76.8844 28.0113 70.8071 13.7218 58.5112 6.62434C46.922 4.8724e-05 32.5533 2.4605 23.461 12.1604C14.2744 21.9548 13.6149 36.9541 20.1161 48.3574C26.4289 59.4294 38.4421 62.1265 50.2669 63.7825C50.6438 60.9909 51.0207 58.1992 51.3975 55.4548C39.4315 56.9217 26.9943 56.1646 16.3002 62.6943C5.08786 69.6024 -2.7796 82.2832 0.942135 95.7211C4.85231 109.869 19.3153 113.843 32.412 111.43C46.5923 108.78 58.6997 99.2698 65.2952 86.4944L57.569 83.2296C54.7895 95.5318 53.282 109.49 60.3014 120.704C65.7191 129.41 76.0835 135.798 86.542 133.622C111.746 128.275 113.112 94.0177 95.5401 79.7755C93.8442 81.9993 92.1011 84.2232 90.4051 86.4471C104.68 92.8348 125.408 99.8849 139.541 89.57C152.167 80.3433 154.287 62.9782 141.19 53.089C136.856 49.7769 132.616 57.1582 136.903 60.4231C147.644 68.5615 138.976 83.1349 128.329 85.7373C117.871 88.2924 104.114 83.3242 94.6921 79.113C90.7349 77.3623 85.5056 82.4725 89.5571 85.7846C95.7757 90.8002 99.8272 97.7557 99.3561 105.989C98.8379 114.695 92.6193 124.868 83.1501 125.53C74.4346 126.098 67.4151 118.338 65.0596 110.626C62.5627 102.393 63.929 93.6392 65.8134 85.5007C66.8498 81.0057 60.3957 77.7882 58.0872 82.2359C53.1406 91.7465 45.0847 99.0332 34.7675 102.203C23.3197 105.705 7.96161 103.008 8.57405 88.0558C9.46915 65.8171 35.8039 65.9118 51.4918 64.0191C55.7317 63.4986 57.8046 56.4012 52.6224 55.6914C46.2625 54.7924 37.971 53.7041 32.5062 50.1554C23.5552 44.2882 22.0948 29.3362 27.5125 20.8666C33.2129 11.9711 45.1789 8.65895 54.3184 14.053C63.8347 19.6837 68.8756 31.0869 70.1475 41.6858C70.6658 45.9443 77.6381 47.9789 78.439 42.8214C81.0301 26.2606 91.8655 5.3468 111.793 9.32138C124.183 11.7818 128.235 23.4217 121.639 33.7366C115.892 42.7741 105.857 48.2628 96.8592 53.4676C92.054 56.2592 96.2468 63.0255 101.146 60.8016C112.359 55.6441 126.209 53.8461 136.997 60.4704C141.661 63.3567 145.901 55.9753 141.284 53.1363L141.143 53.0417Z" fill="#1D262D"/>
</g>
<defs>
<clipPath id="clip0_2065_312">
<rect width="150" height="134" fill="white"/>
</clipPath>
</defs>
</svg>
