<svg width="199" height="196" viewBox="0 0 199 196" fill="none" xmlns="http://www.w3.org/2000/svg">
<g clip-path="url(#clip0_2065_299)">
<path d="M195.852 49.4057C196.059 48.6167 195.95 47.8957 195.675 47.2883C195.364 46.4735 194.729 45.7569 193.627 45.39C189.03 43.8979 184.424 42.4359 179.778 40.9947C176.565 40.0205 174.388 43.848 176.458 46.2118C179.329 49.5059 175.718 53.521 172.213 53.834C166.52 54.3353 162.91 46.5587 169.87 44.1488C172.761 43.1582 173.361 39.0164 170.007 37.9667C164.37 36.2251 158.734 34.4835 153.097 32.7419C149.944 31.7859 147.608 35.5979 149.778 37.9589C153.083 41.5487 148.912 46.1145 144.786 45.8791C138.762 45.5265 137.802 37.7674 143.601 36.0534C146.594 35.1592 147.011 30.8637 143.737 29.8713C138.002 28.1324 132.266 26.3935 126.531 24.6545C123.408 23.7077 121.002 27.5314 123.211 29.8716C126.576 33.4796 122.516 38.1118 118.291 37.8791C112.237 37.5173 111.316 29.7374 117.175 28.0416C120.219 27.1956 120.615 22.861 117.372 21.8777C111.636 20.1388 105.9 18.3999 100.165 16.6609C97.0418 15.7141 94.6756 19.5169 96.8452 21.878C100.181 25.4769 96.0903 30.1 91.8746 29.8372C85.8798 29.4937 84.8513 21.7465 90.6501 20.0325C93.6127 19.1292 94.0688 14.8128 90.7866 13.8504C85.141 12.1388 79.4864 10.4572 73.8318 8.77554C70.6487 7.81049 68.3817 11.6106 70.5123 13.9926C73.4519 17.275 70.0029 21.4046 66.3687 21.7113C60.7444 22.2007 57.0471 14.496 63.9176 12.0588C66.7483 11.0499 67.4865 6.88453 64.0541 5.87663C59.2403 4.44994 54.4174 3.05324 49.6155 1.69565C47.8647 1.1976 46.1341 2.14691 45.5347 3.79948C30.7539 46.3875 17.6519 89.3862 6.00315 132.891C5.05008 136.467 2.50304 141.624 2.78479 145.345C2.89512 146.82 3.5422 147.605 4.68794 148.477C6.20862 149.626 8.47901 150.249 10.2744 150.924C18.4707 154.064 26.8817 156.712 35.2353 159.441C59.813 167.384 84.5572 174.886 109.371 182.049C119.107 184.87 128.852 187.661 138.688 190.151C142.187 191.048 150.031 194.376 152.811 190.83C153.885 189.452 154.298 186.793 154.867 185.132C155.785 182.429 156.693 179.757 157.611 177.054C159.583 171.199 161.555 165.344 163.506 159.45C167.214 148.193 170.841 136.878 174.348 125.527C182.126 100.306 189.204 74.9044 195.832 49.3666L195.852 49.4057ZM147.791 185.541C147.637 186.051 147.509 186.471 147.509 186.471C146.97 185.98 146.502 185.576 146.094 185.191C144.977 184.983 143.76 184.778 142.991 184.61C134.498 182.559 126.083 180.139 117.659 177.749C94.1783 171.056 70.8155 163.972 47.5345 156.619C38.0216 153.604 28.5177 150.559 19.1075 147.313C16.2311 146.31 13.3846 145.316 10.5446 144.193C10.2443 144.102 10.0222 143.969 9.82111 143.875C10.0667 143.065 10.2613 142.207 10.4768 141.388C22.321 96.6977 35.6666 52.4626 50.754 8.75564C52.4356 9.26549 54.1355 9.71533 55.8171 10.2252C54.1859 12.2528 53.3437 14.8144 53.6872 17.8993C54.2958 23.0298 58.2492 27.0781 63.4278 28.0586C71.1416 29.5456 78.0516 23.5173 78.0843 16.8124C79.6158 17.2767 81.1473 17.741 82.6788 18.2053C78.1309 24.2292 80.0351 33.847 89.436 36.042C97.3381 37.881 104.549 31.6164 104.528 24.7642C106.09 25.2376 107.621 25.7019 109.183 26.1754C104.575 32.181 106.461 41.8588 115.892 44.0629C123.824 45.911 131.005 39.6373 130.984 32.7851C132.546 33.2585 134.107 33.732 135.639 34.1963C131.031 40.2019 132.947 49.8888 142.348 52.0838C150.22 53.9137 157.413 47.7091 157.452 40.8751C158.893 41.3121 160.335 41.7491 161.776 42.1861C160.076 44.2255 159.155 46.8289 159.541 49.992C160.149 55.1226 164.103 59.1709 169.281 60.1513C176.866 61.6319 183.809 55.7118 183.952 49.0733C185.544 49.5559 187.126 50.0684 188.709 50.5809C178.235 90.6424 166.401 130.324 153.186 169.587C151.644 174.131 150.093 178.706 148.552 183.25C148.588 183.13 148.219 184.131 147.868 185.073C148.405 185.465 148.861 185.8 149.013 185.945C148.983 185.935 148.953 185.926 148.953 185.926C148.761 185.803 148.311 185.666 147.692 185.544L147.791 185.541Z" fill="#1D262D"/>
<path d="M146.085 185.22C146.674 185.333 147.263 185.446 147.761 185.532C147.807 185.382 147.861 185.202 147.907 185.052C145.711 183.535 141.645 181.156 146.055 185.211L146.085 185.22Z" fill="#1D262D"/>
<path d="M69.5348 62.2068C67.7547 60.2914 64.9748 60.2675 62.527 59.6891C59.959 59.0743 57.311 58.075 54.6358 58.2465C53.5266 58.3361 52.6005 59.6603 53.5688 60.5762C55.6283 62.5436 58.4601 63.3694 61.1537 64.2188C63.7662 65.0109 66.4798 66.2266 69.0794 65.115C70.2076 64.6381 70.3229 63.0681 69.5648 62.2159L69.5348 62.2068Z" fill="#1D262D"/>
<path d="M91.2432 68.6902C89.3476 67.2639 86.5177 66.8645 84.2318 66.4007C82.2254 65.9889 80.4828 65.7882 78.5993 66.5929C78.3737 66.6882 78.2737 67.0182 78.4084 67.2228C79.5278 68.9379 81.0885 69.7387 82.9858 70.5104C85.1444 71.3941 87.7197 72.6335 90.0882 72.5C92.2193 72.3927 92.9559 69.9629 91.2523 68.6602L91.2432 68.6902Z" fill="#1D262D"/>
<path d="M108.728 73.5326C106.205 72.7678 103.47 71.8402 100.817 72.4773C100.186 72.6134 100.076 73.3007 100.426 73.7672C102.002 75.8171 104.56 76.7892 106.91 77.7966C109.06 78.7103 111.826 80.4007 114.012 79.0325C114.578 78.68 115.063 77.9428 114.825 77.2154C113.939 74.6213 111.16 74.27 108.737 73.5026L108.728 73.5326Z" fill="#1D262D"/>
<path d="M135.078 81.6851C132.097 80.4864 128.628 79.5985 125.474 78.9699C123.618 78.6036 122.693 80.6815 124.144 81.8422C126.975 84.0763 130.803 85.728 134.378 86.1568C135.454 86.2864 136.303 85.4304 136.675 84.5277C136.73 84.3477 136.764 84.1287 136.758 83.9305C136.848 82.8768 135.991 82.0273 135.087 81.6551L135.078 81.6851Z" fill="#1D262D"/>
<path d="M158.202 88.0408C155.995 87.5353 153.793 86.9007 151.592 86.2661C149.911 85.7562 147.905 85.0172 146.193 85.5792C145.829 85.6981 145.492 86.0544 145.623 86.4872C146.92 90.3198 153.339 91.6435 156.835 92.4414C159.782 93.1054 161.149 88.7049 158.172 88.0317L158.202 88.0408Z" fill="#1D262D"/>
<path d="M55.5289 108.404C53.7488 106.488 50.9689 106.464 48.5211 105.886C45.9532 105.271 43.3051 104.272 40.6299 104.443C39.5207 104.533 38.5946 105.857 39.5629 106.773C41.6224 108.74 44.4543 109.566 47.1478 110.416C49.7604 111.208 52.474 112.423 55.0735 111.312C56.2017 110.835 56.3171 109.265 55.559 108.413L55.5289 108.404Z" fill="#1D262D"/>
<path d="M77.2374 114.887C75.3418 113.46 72.5118 113.061 70.226 112.597C68.2195 112.185 66.4769 111.985 64.5935 112.789C64.3678 112.885 64.2678 113.215 64.4025 113.419C65.522 115.134 67.0826 115.935 68.98 116.707C71.1385 117.591 73.7138 118.83 76.0824 118.696C78.2134 118.589 78.9501 116.159 77.2465 114.857L77.2374 114.887Z" fill="#1D262D"/>
<path d="M94.7216 119.729C92.1991 118.964 89.4637 118.037 86.8113 118.674C86.1798 118.81 86.0698 119.497 86.4202 119.964C87.9957 122.014 90.5536 122.986 92.9042 123.993C95.0536 124.907 97.8201 126.597 100.006 125.229C100.571 124.876 101.057 124.139 100.819 123.412C99.933 120.818 97.1539 120.467 94.7307 119.699L94.7216 119.729Z" fill="#1D262D"/>
<path d="M121.072 127.882C118.091 126.683 114.622 125.795 111.468 125.167C109.612 124.8 108.687 126.878 110.138 128.039C112.969 130.273 116.797 131.925 120.372 132.354C121.448 132.483 122.297 131.627 122.669 130.725C122.724 130.545 122.758 130.325 122.752 130.127C122.842 129.074 121.985 128.224 121.081 127.852L121.072 127.882Z" fill="#1D262D"/>
<path d="M144.196 134.238C141.989 133.732 139.788 133.097 137.586 132.463C135.905 131.953 133.899 131.214 132.188 131.776C131.824 131.895 131.486 132.251 131.617 132.684C132.914 136.517 139.333 137.84 142.829 138.638C145.776 139.302 147.143 134.902 144.166 134.229L144.196 134.238Z" fill="#1D262D"/>
</g>
<defs>
<clipPath id="clip0_2065_299">
<rect width="160.034" height="155.822" fill="white" transform="translate(45.2109) rotate(16.8663)"/>
</clipPath>
</defs>
</svg>
