<svg width="396" height="97" viewBox="0 0 396 97" fill="none" xmlns="http://www.w3.org/2000/svg">
<path d="M21.4 11L67.1 10.6L69.2 5.1C70.4667 5.23333 71.9333 5.43333 73.6 5.7C75.3333 5.96666 77.0333 6.26666 78.7 6.6C80.3667 6.93333 81.9333 7.3 83.4 7.69999C84.9333 8.03333 86.2 8.36667 87.2 8.7C88.3333 9.1 89.2667 9.66666 90 10.4C90.8 11.1333 91.1667 11.9333 91.1 12.8C91.0333 13.5333 90.7333 14.3 90.2 15.1C89.7333 15.8333 89.2667 16.6333 88.8 17.5L87 40.1L85.9 64.1C85.7667 65.3 85.2333 66.3667 84.3 67.3C83.3667 68.2333 82.1667 69.0333 80.7 69.7C79.3 70.3667 77.7333 70.8667 76 71.2C74.2667 71.4667 72.5667 71.6 70.9 71.6C68.3667 71.5333 66.5667 71.0667 65.5 70.2C64.4333 69.3333 63.9667 68.2 64.1 66.8C64.4333 62.8 64.7333 58.8 65 54.8C65.3333 50.7333 65.6667 46.6333 66 42.5L22.6 43.5L8.6 44.2L7 38.3L21.6 38.7L66.3 37.8L67.5 15.3L22.4 15.8L9.5 16.3L7.9 10.4L21.4 11ZM84.5 78.7C86.1 78.9 87.7 79.4333 89.3 80.3C90.9667 81.1667 92.4333 82.1667 93.7 83.3C94.9667 84.4333 95.9333 85.6 96.6 86.8C97.3333 88 97.5667 89 97.3 89.8L16.9 90.1L3 90.7L0.9 84.1L21.9 85L78.9 84.7L84.5 78.7ZM108.6 78.5C108.6 75.3 109.2 72.6 110.4 70.4C111.667 68.1333 113.4 66.3 115.6 64.9C117.8 63.5 120.367 62.5 123.3 61.9C126.3 61.2333 129.533 60.9 133 60.9H169.4C172.867 60.9 176.1 61.2333 179.1 61.9C182.1 62.5 184.7 63.5 186.9 64.9C189.1 66.3 190.833 68.1333 192.1 70.4C193.367 72.6 194 75.3 194 78.5C194 81.6333 193.367 84.3 192.1 86.5C190.833 88.7 189.1 90.5 186.9 91.9C184.7 93.3667 182.1 94.4333 179.1 95.1C176.1 95.7667 172.867 96.1 169.4 96.1H133C129.533 96.1 126.3 95.7667 123.3 95.1C120.367 94.4333 117.8 93.3667 115.6 91.9C113.4 90.5 111.667 88.7 110.4 86.5C109.2 84.3 108.6 81.6333 108.6 78.5ZM154.5 8C155.967 8.33333 157.4 8.86666 158.8 9.6C160.2 10.3333 161.4 11.1667 162.4 12.1C163.4 13.0333 164.167 14.0333 164.7 15.1C165.233 16.1 165.367 17.0333 165.1 17.9L142.9 18C142.167 20.3333 141.4 22.5333 140.6 24.6C139.8 26.6 138.9 28.5667 137.9 30.5C140.1 31.1667 142.333 31.9333 144.6 32.8C146.933 33.6667 149.2 34.6 151.4 35.6C153.6 36.6 155.633 37.6667 157.5 38.8C159.433 39.9333 161.1 41.1 162.5 42.3C163.3 42.9667 163.833 43.8667 164.1 45C164.433 46.0667 164.567 47.2 164.5 48.4C164.5 49.6 164.3 50.7667 163.9 51.9C163.567 52.9667 163.1 53.8333 162.5 54.5C160.3 56.7667 157.467 57.5667 154 56.9C152.8 56.6333 151.867 56.2 151.2 55.6C150.6 55 150.033 54.2333 149.5 53.3C147.367 49.5667 145.2 46.3 143 43.5C140.867 40.6333 138.3 37.8333 135.3 35.1C133.3 38.2333 131.1 41.1 128.7 43.7C126.367 46.2333 123.9 48.5667 121.3 50.7C118.7 52.7667 116 54.7 113.2 56.5C110.4 58.2333 107.567 59.9 104.7 61.5C104.167 61.8333 103.667 61.9 103.2 61.7C102.8 61.4333 102.433 61.1 102.1 60.7C101.567 60.1 101.6 59.5 102.2 58.9C107.2 53.9 111.4 48.1333 114.8 41.6C118.267 35 120.767 27.1333 122.3 18H115.4L103.5 18.6L102.3 12.3L119.3 13.1H122.8C122.8 11.0333 122.767 9 122.7 7C122.633 4.93333 122.533 2.69999 122.4 0.299994C125.733 0.299994 128.933 0.46666 132 0.799994C135.133 1.13333 138.067 1.66666 140.8 2.4C141.733 2.66666 142.533 3.13333 143.2 3.8C143.933 4.4 144.267 5 144.2 5.6C144.133 6.33333 143.9 6.96666 143.5 7.5C143.1 8.03333 142.767 8.8 142.5 9.8L142.4 13.1H150.2L154.5 8ZM172 31.2L166 31.3L156 32L154.4 26.3L164.6 26.5L172 26.3V1.69999C175.333 1.69999 178.6 1.9 181.8 2.3C185.067 2.63333 188.3 3.23333 191.5 4.1C192.433 4.36666 193.233 4.83333 193.9 5.5C194.633 6.1 194.967 6.7 194.9 7.3C194.833 8.03333 194.6 8.73333 194.2 9.4C193.8 10 193.467 10.8 193.2 11.8L192.7 29.7L193 48.5C193 50.1 192.633 51.4333 191.9 52.5C191.233 53.5667 190.233 54.4667 188.9 55.2C187.633 55.8667 186.1 56.4 184.3 56.8C182.5 57.1333 180.5 57.4 178.3 57.6C174.1 58 172 56.8333 172 54.1V31.2ZM155.9 91C158.1 91 160.233 90.7333 162.3 90.2C164.367 89.7333 166.167 88.9667 167.7 87.9C169.3 86.8333 170.567 85.5333 171.5 84C172.5 82.4667 173 80.6333 173 78.5C173 76.3 172.5 74.4333 171.5 72.9C170.567 71.3 169.3 70 167.7 69C166.167 67.9333 164.367 67.1667 162.3 66.7C160.233 66.1667 158.1 65.9 155.9 65.9H146.4C144.267 65.9 142.2 66.1667 140.2 66.7C138.2 67.1667 136.433 67.9333 134.9 69C133.367 70 132.1 71.3 131.1 72.9C130.167 74.4333 129.7 76.3 129.7 78.5C129.7 80.6333 130.167 82.4667 131.1 84C132.1 85.5333 133.367 86.8333 134.9 87.9C136.433 88.9667 138.2 89.7333 140.2 90.2C142.2 90.7333 144.267 91 146.4 91H155.9ZM254.8 63.7C254.867 60.0333 254.933 55.6667 255 50.6C255.067 45.4667 255.067 40.1 255 34.5C255 28.8333 254.933 23.1667 254.8 17.5C254.733 11.7667 254.633 6.5 254.5 1.69999C257.3 1.69999 260.033 1.83333 262.7 2.09999C265.433 2.3 267.9 2.73333 270.1 3.4C271.3 3.73333 272.133 4.2 272.6 4.8C273.133 5.4 273.367 6 273.3 6.6C273.233 7.33333 273.033 7.96666 272.7 8.5C272.367 8.96666 272.067 9.7 271.8 10.7L271.3 29.7H273.4H277.7C277.7 24.4333 277.667 19.3667 277.6 14.5C277.6 9.63333 277.533 5.36666 277.4 1.69999C280.2 1.69999 282.9 1.86666 285.5 2.2C288.167 2.53333 290.567 3 292.7 3.6C295.1 4.26667 296.2 5.33333 296 6.79999C295.867 7.53333 295.633 8.2 295.3 8.8C295.033 9.33333 294.733 10.0333 294.4 10.9L294 32.2L294.4 60C294.467 62.9333 293.633 64.8667 291.9 65.8C290.233 66.7333 287.6 67.2333 284 67.3C281.867 67.3667 280.267 67.1333 279.2 66.6C278.133 66.0667 277.6 65.1 277.6 63.7C277.6 60.1 277.6 55.8667 277.6 51C277.667 46.0667 277.7 40.9 277.7 35.5H273.6L271.3 35.6L271.8 60.2C271.867 62.7333 271.067 64.5667 269.4 65.7C267.8 66.7667 265 67.3 261 67.3C258.6 67.3 256.933 67.0333 256 66.5C255.133 65.9 254.733 64.9667 254.8 63.7ZM203 6.2C204.067 6 205.567 5.93333 207.5 6C209.433 6.06666 211.4 6.23333 213.4 6.5C215.4 6.76666 217.233 7.16666 218.9 7.69999C220.567 8.16666 221.667 8.76666 222.2 9.49999H230.6L233.9 4.3C236.633 4.76666 239.267 5.3 241.8 5.9C244.333 6.5 246.633 7.19999 248.7 8C249.367 8.26666 249.867 8.63333 250.2 9.09999C250.533 9.56666 250.7 10.0667 250.7 10.6C250.7 11.4 250.233 12.2667 249.3 13.2L249 29.5L249.4 45.8C249.4 48.1333 248.6 49.8667 247 51C245.467 52.1333 242.8 53.0333 239 53.7C236.267 54.1667 234.233 54.1333 232.9 53.6C231.633 53 231 52.1667 231 51.1V49.7H221.8C221.333 50.8333 220.433 51.8 219.1 52.6C217.833 53.3333 216.067 53.8 213.8 54C211.867 54.2 210.233 54.2333 208.9 54.1C207.633 53.9667 206.533 53.7333 205.6 53.4C204.867 53.1333 204.3 52.7 203.9 52.1C203.567 51.5 203.4 50.5333 203.4 49.2V28L203 6.2ZM231.1 87.5H278.8L283.9 81.7C285.5 81.8333 287.1 82.3 288.7 83.1C290.3 83.9667 291.7 84.9333 292.9 86C294.1 87.1333 295 88.2667 295.6 89.4C296.267 90.6 296.433 91.6 296.1 92.4H231C230.4 92.8667 229.567 93.2667 228.5 93.6C227.433 94 226.267 94.3333 225 94.6C223.733 94.8667 222.4 95.0333 221 95.1C219.6 95.2333 218.267 95.3 217 95.3C214.733 95.2333 213 94.8667 211.8 94.2C210.667 93.6 210.1 92.4333 210.1 90.7V75.4L209.8 62.6C211.4 62.5333 213.1 62.5333 214.9 62.6C216.7 62.6 218.467 62.7 220.2 62.9C221.933 63.0333 223.567 63.2333 225.1 63.5C226.633 63.7667 227.967 64.1 229.1 64.5C229.9 64.7667 230.6 65.1667 231.2 65.7C231.8 66.2333 232.167 66.7667 232.3 67.3C232.567 68.4333 232.167 69.5667 231.1 70.7V87.5ZM222.3 14.2V45H231V14.2H222.3ZM371 35L367.2 35.1L356.2 36L354.4 29.4L364.3 29.5L371 29.4V19.8L366.2 19.9L355.2 20.8L353.4 14.2L363.3 14.3L371 14.2V1.6C374.333 1.6 377.667 1.8 381 2.2C384.4 2.6 387.467 3.2 390.2 3.99999C390.933 4.2 391.633 4.6 392.3 5.2C392.967 5.8 393.267 6.46666 393.2 7.19999C393.133 7.93333 392.867 8.63333 392.4 9.3C392 9.9 391.667 10.7 391.4 11.7L391 35.3L391.5 60.6C391.567 62.1333 391.233 63.4667 390.5 64.6C389.767 65.7333 388.733 66.7 387.4 67.5C386.133 68.2333 384.6 68.8 382.8 69.2C381.067 69.6 379.2 69.8333 377.2 69.9C375.067 70.0333 373.5 69.8 372.5 69.2C371.5 68.5333 371 67.6333 371 66.5V35ZM303.4 57.7C302.933 57.9667 302.5 58.0333 302.1 57.9C301.767 57.7667 301.367 57.5333 300.9 57.2C300.567 56.8667 300.367 56.5333 300.3 56.2C300.233 55.8 300.3 55.4667 300.5 55.2C303.367 51.7333 305.867 48.3667 308 45.1C310.2 41.7667 312.133 38.4 313.8 35C315.533 31.6 317.033 28.0667 318.3 24.4C319.567 20.7333 320.7 16.8 321.7 12.6L322.2 3.2C328.133 3.26666 333.567 3.96666 338.5 5.3C340.5 5.83333 341.9 6.53333 342.7 7.4C343.5 8.2 343.967 8.96666 344.1 9.7C344.233 10.3667 344.1 11.0667 343.7 11.8C343.3 12.4667 342.833 13.2333 342.3 14.1C340.3 19.3667 337.967 24.1333 335.3 28.4C337.5 29.1333 339.733 30.0667 342 31.2C344.333 32.2667 346.533 33.4333 348.6 34.7C350.733 35.9667 352.7 37.3 354.5 38.7C356.3 40.0333 357.8 41.3667 359 42.7C359.667 43.5 360.133 44.4333 360.4 45.5C360.733 46.5667 360.833 47.6667 360.7 48.8C360.633 49.8667 360.4 50.9333 360 52C359.6 53 359.067 53.8333 358.4 54.5C357.267 55.6333 355.933 56.4 354.4 56.8C352.867 57.2 351.333 57.2333 349.8 56.9C348.6 56.6333 347.7 56.2 347.1 55.6C346.5 55 346 54.2 345.6 53.2C344.067 49.2667 342.133 45.6333 339.8 42.3C337.467 38.9 334.933 35.8 332.2 33C328.6 37.9333 324.4 42.4 319.6 46.4C314.867 50.3333 309.467 54.1 303.4 57.7ZM330.3 87.5H377.7L382.8 81.7C384.4 81.8333 386 82.3 387.6 83.1C389.2 83.9667 390.6 84.9333 391.8 86C393 87.1333 393.9 88.2667 394.5 89.4C395.167 90.6 395.333 91.6 395 92.4H330.2C329.6 92.8667 328.767 93.2667 327.7 93.6C326.633 94 325.467 94.3333 324.2 94.6C322.933 94.8667 321.6 95.0333 320.2 95.1C318.8 95.2333 317.467 95.3 316.2 95.3C313.933 95.2333 312.2 94.8667 311 94.2C309.867 93.6 309.3 92.4333 309.3 90.7V74.9L309 62.1C310.6 62.0333 312.3 62.0333 314.1 62.1C315.9 62.1 317.667 62.2 319.4 62.4C321.133 62.5333 322.767 62.7333 324.3 63C325.833 63.2667 327.167 63.6 328.3 64C329.1 64.2667 329.8 64.6667 330.4 65.2C331 65.7333 331.367 66.2667 331.5 66.8C331.767 67.9333 331.367 69.0667 330.3 70.2V87.5Z" fill="#1E1E1E"/>
</svg>
