<svg width="420" height="124" viewBox="0 0 420 124" fill="none" xmlns="http://www.w3.org/2000/svg">
<path d="M118.539 26.6165V29.8237H113.828V46.0585H109.912V14.3596H113.828V26.6165H118.539ZM90.0477 38.2021V17.43H93.9386V34.9701C98.1776 34.9204 102.678 34.535 107.476 33.553L107.899 36.8347C102.528 37.9162 97.4566 38.2146 92.7204 38.2021H90.0477ZM147.465 14.3596V46.1082H143.711V14.3596H147.465ZM120.378 28.0834C120.365 21.0972 123.075 16.7588 127.24 16.7712C131.081 16.7588 133.704 20.3762 134.151 26.3182H137.222V14.9066H140.939V44.5916H137.222V29.4632H134.176C133.816 35.6787 131.156 39.4701 127.24 39.4701C123.075 39.4701 120.365 35.1068 120.378 28.0834ZM123.995 28.0834C123.97 33.0557 125.201 35.7408 127.24 35.7284C129.328 35.7408 130.596 33.0557 130.596 28.0834C130.596 23.1358 129.328 20.4383 127.24 20.4508C125.201 20.4383 123.97 23.1358 123.995 28.0834ZM178.566 14.3596V46.1082H174.874V14.3596H178.566ZM150.919 36.6483C157.495 32.745 160.516 27.785 161.1 21.3955H152.535V18.2256H164.991C164.979 21.2836 164.606 24.18 163.748 26.8651H168.161V15.1303H171.841V44.6289H168.161V29.9853H162.468C160.615 33.6276 157.632 36.8099 153.144 39.4204L150.919 36.6483ZM218.234 14.3596V46.1082H214.48V14.3596H218.234ZM191.147 28.0834C191.135 21.0972 193.845 16.7588 198.009 16.7712C200.694 16.7588 202.783 18.524 203.951 21.6193H208.103V14.9066H211.808V44.5916H208.103V34.5723H203.951C202.783 37.6925 200.694 39.4701 198.009 39.4701C193.845 39.4701 191.135 35.1068 191.147 28.0834ZM194.703 28.0834C194.69 33.0557 195.908 35.7408 198.009 35.7284C200.098 35.7408 201.403 33.0557 201.403 28.0834C201.403 23.1358 200.098 20.4383 198.009 20.4508C195.908 20.4383 194.69 23.1358 194.703 28.0834ZM204.747 24.7767C204.896 25.7961 204.983 26.9024 204.983 28.0834C204.983 29.2519 204.896 30.3458 204.747 31.3651H208.103V24.7767H204.747ZM238.483 16.995C238.483 20.9853 242.971 25.0378 249.733 25.9079L248.192 29.0654C242.797 28.2698 238.508 25.622 236.444 22.0295C234.356 25.622 230.08 28.2698 224.734 29.0654L223.181 25.9079C229.906 25.0378 234.381 21.0102 234.381 16.995V15.3665H238.483V16.995ZM221.937 35.0447V31.8251H250.889V35.0447H238.272V46.1082H234.406V35.0447H221.937ZM286.667 14.3596V23.6579H291.105V26.9024H286.667V37.593H282.739V14.3596H286.667ZM261.942 24.4535C261.917 19.7795 265.684 16.4729 270.519 16.4729C275.355 16.4729 279.059 19.7795 279.084 24.4535C279.059 29.0903 275.355 32.4466 270.519 32.4466C265.684 32.4466 261.917 29.0903 261.942 24.4535ZM265.783 24.4535C265.758 27.2256 267.859 29.0281 270.519 29.0281C273.204 29.0281 275.255 27.2256 275.268 24.4535C275.255 21.6566 273.204 19.8789 270.519 19.8789C267.859 19.8789 265.758 21.6566 265.783 24.4535ZM266.305 45.5115V35.1566H270.196V42.3416H287.91V45.5115H266.305ZM320.117 14.3596V46.1082H316.363V14.3596H320.117ZM293.03 28.0834C293.018 21.0972 295.728 16.7588 299.892 16.7712C303.733 16.7588 306.356 20.3762 306.804 26.3182H309.874V14.9066H313.591V44.5916H309.874V29.4632H306.829C306.468 35.6787 303.808 39.4701 299.892 39.4701C295.728 39.4701 293.018 35.1068 293.03 28.0834ZM296.648 28.0834C296.623 33.0557 297.853 35.7408 299.892 35.7284C301.981 35.7408 303.248 33.0557 303.248 28.0834C303.248 23.1358 301.981 20.4383 299.892 20.4508C297.853 20.4383 296.623 23.1358 296.648 28.0834Z" fill="#343434"/>
<path d="M12.9329 83.9784C12.908 88.1428 15.5434 92.1207 20.5406 93.7615L18.4895 96.8444C14.9716 95.6386 12.4729 93.2394 11.0683 90.1939C9.67599 93.5626 7.05306 96.198 3.34864 97.5033L1.17322 94.4204C6.39422 92.7173 9.00472 88.4411 9.01715 83.9287V80.3113H12.9329V83.9784ZM6.28234 109.512V99.4052H10.2602V106.342H27.8997V109.512H6.28234ZM22.7036 101.692V78.3596H26.6318V87.7325H31.0696V91.0267H26.6318V101.692H22.7036ZM57.5586 78.3596V90.4052H62.4564V93.6124H57.5586V110.183H53.6429V78.3596H57.5586ZM33.9771 102.389V81.3555H48.8445V84.5253H37.868V99.1441C42.8279 99.1068 46.7313 98.8831 51.1069 98.0999L51.5545 101.394C46.6194 102.252 42.3431 102.401 36.5876 102.389H33.9771ZM89.5296 87.3347V90.43H67.502V79.5032H71.3929V87.3347H89.5296ZM63.7479 97.2173V94.1345H92.799V97.2173H63.7479ZM67.2409 109.387V100.027H71.1443V106.217H89.7285V109.387H67.2409ZM130.056 78.3845V101.692H126.153V90.9894H120.024V87.7823H126.153V78.3845H130.056ZM103.876 95.216C110.713 93.053 115.226 89.0005 115.984 83.966H105.505V80.7588H120.26C120.248 89.1621 114.704 95.4273 105.505 98.3361L103.876 95.216ZM109.346 109.512V99.3182H113.336V106.342H130.864V109.512H109.346Z" fill="#343434"/>
<path d="M154.06 91.3748L156.994 81.5171H160.338L158.535 91.3748H154.06ZM146.639 91.3872L149.573 81.5295H152.916L151.114 91.3872H146.639Z" fill="#343434"/>
<mask id="path-4-inside-1_2065_236" fill="white">
<path d="M174.5 82.0005C174.5 77.5822 178.082 74.0005 182.5 74.0005H329.5C333.918 74.0005 337.5 77.5822 337.5 82.0005V114H174.5V82.0005Z"/>
</mask>
<path d="M174.5 82.0005C174.5 77.5822 178.082 74.0005 182.5 74.0005H329.5C333.918 74.0005 337.5 77.5822 337.5 82.0005V114H174.5V82.0005Z" fill="#F0F0F0"/>
<path d="M174.5 74.0005H337.5H174.5ZM337.5 116H174.5V112H337.5V116ZM174.5 114V74.0005V114ZM337.5 74.0005V114V74.0005Z" fill="#343434" mask="url(#path-4-inside-1_2065_236)"/>
<path d="M357.923 81.5792L354.99 91.437H351.646L353.448 81.5792H357.923ZM359.079 91.4245L360.882 81.5668H365.357L362.423 91.4245H359.079Z" fill="#343434"/>
<path d="M404.482 78.3596V90.4052H409.38V93.6124H404.482V110.183H400.567V78.3596H404.482ZM380.901 102.389V81.3555H395.768V84.5253H384.792V99.1441C389.752 99.1068 393.655 98.8831 398.031 98.0999L398.478 101.394C393.543 102.252 389.267 102.401 383.511 102.389H380.901ZM414.563 107.274C413.058 107.274 411.815 106.056 411.84 104.552C411.815 103.06 413.058 101.854 414.563 101.854C416.029 101.854 417.273 103.06 417.285 104.552C417.273 106.056 416.029 107.274 414.563 107.274Z" fill="#343434"/>
</svg>
